<?xml version="1.0" encoding="utf-8"?>
<svg version="1.1" xmlns="http://www.w3.org/2000/svg" xmlns:xlink="http://www.w3.org/1999/xlink" x="0px" y="0px"
   viewBox="0 0 469.9 363.2" style="enable-background:new 0 0 469.9 363.2;" xml:space="preserve">
<g id="tutorial-wrapper">
  <g id="tutorial_3_">
    <path id="t0" style="fill:none;stroke:#2C3033;stroke-width:13;stroke-miterlimit:10;" d="M21.9,123v19.2v10.5v49.2
      c0,5,1.1,8.8,3.3,11.4s5.6,3.9,10.2,3.9c2.5,0,5.3-0.4,8.4-1.2"/>
    <line id="t1" style="fill:none;stroke:#2C3033;stroke-width:13;stroke-miterlimit:10;" x1="0.7" y1="147.4" x2="43.4" y2="147.4"/>
    <path id="u0" style="fill:none;stroke:#2C3033;stroke-width:13;stroke-miterlimit:10;" d="M65.7,142.2c0,12,0,24,0,36
      c0,6-0.3,11.9-0.2,17.9c0.2,8.9,5.6,20.1,15.5,21c11.9,1,26.4-4.9,32.9-15.3"/>
    <polyline id="u1" style="fill:none;stroke:#2C3033;stroke-width:13;stroke-miterlimit:10;" points="114.9,221.4 114.8,213.6 
      114.6,199.8 114.6,142.2     "/>
    <path id="t10" style="fill:none;stroke:#2C3033;stroke-width:13;stroke-miterlimit:10;" d="M153.6,123v19.2v10.5v49.2
      c0,5,1.1,8.8,3.3,11.4s5.6,3.9,10.2,3.9c2.5,0,5.3-0.4,8.4-1.2"/>
    <line id="t11" style="fill:none;stroke:#2C3033;stroke-width:13;stroke-miterlimit:10;" x1="132.3" y1="147.4" x2="175.1" y2="147.4"/>
    <path id="o_1_" style="fill:none;stroke:#2C3033;stroke-width:13;stroke-miterlimit:10;" d="M221.9,146.3c8.8,0,15.9,3.2,21.3,9.6
      c5.4,6.4,8.1,14.9,8.1,25.5c0,0.1,0,0.6,0,0.7c0,6.1-1,11.6-2.9,16.5c-2,5-5,9-8.7,12.2c-4.9,4.3-10.7,6.6-17.7,6.6
      c-8.8,0-15.9-3.2-21.2-9.6c-5.4-6.4-8.1-14.9-8.1-25.4c0-0.1,0-0.6,0-0.7c0-6.2,1-11.7,3-16.6c2-5.1,5-9,8.7-12.2
      C209.3,148.6,215,146.3,221.9,146.3"/>
    <polyline id="r1" style="fill:none;stroke:#2C3033;stroke-width:13;stroke-miterlimit:10;" points="281.6,142.2 281.7,151.3 
      281.8,165.2 281.8,221.4     "/>
    <path id="r0" style="fill:none;stroke:#2C3033;stroke-width:13;stroke-miterlimit:10;" d="M281.5,164.3c2.1-4.1,5.9-7.5,9.6-10.2
      c3.9-2.9,8.5-5.6,13.4-6.5c2.9-0.5,6.1-0.3,8.8,0.5"/>
    <line id="i_1_" style="fill:none;stroke:#2C3033;stroke-width:13;stroke-miterlimit:10;" x1="333.7" y1="142" x2="333.7" y2="221.2"/>
    <path id="a0_1_" style="fill:none;stroke:#2C3033;stroke-width:13;stroke-miterlimit:10;" d="M418.2,221.4c-0.1-0.1-0.1-0.9-0.2-1
      c-0.8-2-1.4-4.6-1.9-7.9c-0.2-1.3-0.3-6.8-0.3-8.4l0-6.4v-17.4v-10.3c0-1.3-0.2-5.5-0.5-6.6c-0.6-4.7-2.5-8.6-5.7-11.6
      c-4-3.7-9.7-5.5-17-5.5c-4.1,0-7.9,0.7-11.3,2.1c-3.4,1.4-6.1,3.3-8.4,5.7c-3,3.1-4.6,6.5-4.6,10.2"/>
    <path id="a1_1_" style="fill:none;stroke:#2C3033;stroke-width:13;stroke-miterlimit:10;" d="M410,178.2h-12.9
      c-14,0-23.8,3.9-27.7,10.7c-2.7,4.7-4.1,9.3-2.6,14.6c1.3,4.6,5.5,9,10.2,11.2c4.6,2.2,10.8,1.7,16.7,0.7
      c6.3-1.1,17.4-10.2,21.4-15.2"/>
    <line id="l_1_" style="fill:none;stroke:#2C3033;stroke-width:13;stroke-miterlimit:10;" x1="451.7" y1="221.4" x2="451.7" y2="108.9"/>
  </g>
</g>
<g id="js-wrapper">
  <g id="js_4_">
    <path id="letter-j" style="fill:none;stroke:#0C97CE;stroke-width:13;stroke-miterlimit:10;transform-origin:bottom center;" d="M281.7,254.3c0-21.7,0-50,0-63.5
      c0-4-1.9-21.9,0.3-24.1c1.9-14.5,17.9-20.5,30.8-16.3"/>
    <path id="letter-s" style="fill:none;stroke:#0C97CE;stroke-width:13;stroke-miterlimit:10;transform-origin:bottom left;" d="M368.6,164.8
      c0-19,28.1-23.7,40.6-13.7c5.9,4.7,7,14.4,2.2,20.3c-4.3,5.3-13.1,7.5-19.6,8.8c-6.9,1.3-12.3,2.4-17.8,7.1
      c-7.2,6.2-7.7,15.9-1.2,22.9c12.6,13.5,43.9,6.6,44.5-13.7"/>
  </g>
</g>
<g id="dot">
  <g id="dot_1_">
    <g>
      <path id="dot-red" style="fill:none;stroke:#DB3340;stroke-width:9;stroke-miterlimit:0;transform-origin:center;" d="M308.6,225.4c0.1,0,0.2,0,0.3,0c-0.5-0.1-1.1-0.1-1.6-0.2c0.2,0,0.4,0.1,0.7,0.2
        c-0.5-0.2-1-0.4-1.4-0.6c0.1,0.1,0.3,0.1,0.4,0.2c-0.4-0.3-0.8-0.6-1.2-0.9c0.1,0.1,0.2,0.2,0.3,0.3c-0.3-0.4-0.6-0.8-0.9-1.2
        c0.1,0.1,0.2,0.2,0.2,0.4c-0.2-0.5-0.4-1-0.6-1.4c0.1,0.2,0.1,0.4,0.2,0.7c-0.1-0.5-0.1-1.1-0.2-1.6c0,0.2,0,0.3,0,0.5
        c0.1-0.5,0.1-1.1,0.2-1.6c0,0.2-0.1,0.4-0.2,0.7c0.2-0.5,0.4-1,0.6-1.4c-0.1,0.1-0.2,0.3-0.3,0.4c0.3-0.4,0.6-0.8,0.9-1.2
        c-0.1,0.1-0.2,0.2-0.3,0.3c0.4-0.3,0.8-0.6,1.2-0.9c-0.1,0.1-0.2,0.1-0.4,0.2c0.5-0.2,1-0.4,1.4-0.6c-0.2,0.1-0.4,0.1-0.6,0.2
        c0.5-0.1,1.1-0.1,1.6-0.2c-0.2,0-0.3,0-0.5,0c0.5,0.1,1.1,0.1,1.6,0.2c-0.2,0-0.4-0.1-0.7-0.2c0.5,0.2,1,0.4,1.4,0.6
        c-0.1-0.1-0.3-0.1-0.4-0.2c0.4,0.3,0.8,0.6,1.2,0.9c-0.1-0.1-0.2-0.2-0.3-0.3c0.3,0.4,0.6,0.8,0.9,1.2c-0.1-0.1-0.2-0.2-0.2-0.4
        c0.2,0.5,0.4,1,0.6,1.4c-0.1-0.2-0.1-0.4-0.2-0.7c0.1,0.5,0.1,1.1,0.2,1.6c0-0.2,0-0.3,0-0.5c-0.1,0.5-0.1,1.1-0.2,1.6
        c0-0.3,0.1-0.4,0.2-0.7c-0.2,0.5-0.4,1-0.6,1.4c0.1-0.1,0.2-0.3,0.3-0.4c-0.3,0.4-0.6,0.8-0.9,1.2c0.1-0.1,0.2-0.2,0.3-0.3
        c-0.4,0.3-0.8,0.6-1.2,0.9c0.1-0.1,0.3-0.2,0.4-0.2c-0.5,0.2-1,0.4-1.4,0.6c0.2-0.1,0.3-0.1,0.5-0.1c-0.5,0.1-1.1,0.1-1.6,0.2
        C308.4,225.5,308.5,225.5,308.6,225.4c1.6-0.1,3.1-0.6,4.2-1.8c1-1,1.8-2.7,1.8-4.2c-0.1-3.1-2.6-6.2-6-6
        c-2.2,0.1-4.1,0.9-5.8,2.4c-1.4,1.4-2.3,3.6-2.2,5.6c0.1,2.1,0.8,4.2,2.3,5.7c1.5,1.5,3.7,2.3,5.8,2.3c2.1,0,4.1-0.9,5.6-2.3
        c1.5-1.5,2.2-3.6,2.3-5.7c0.1-2-0.8-4.2-2.2-5.6c-1.6-1.6-3.6-2.3-5.8-2.4c-3.1-0.1-6.1,2.9-6,6
        C302.8,222.8,305.2,225.3,308.6,225.4L308.6,225.4z"/>
      <path id="circle-red-0" style="fill:none;stroke:#DB3340;stroke-width:1;stroke-miterlimit:0;transform-origin:center;" d="M308.6,225.4c0.1,0,0.2,0,0.3,0c-0.5-0.1-1.1-0.1-1.6-0.2c0.2,0,0.4,0.1,0.7,0.2
        c-0.5-0.2-1-0.4-1.4-0.6c0.1,0.1,0.3,0.1,0.4,0.2c-0.4-0.3-0.8-0.6-1.2-0.9c0.1,0.1,0.2,0.2,0.3,0.3c-0.3-0.4-0.6-0.8-0.9-1.2
        c0.1,0.1,0.2,0.2,0.2,0.4c-0.2-0.5-0.4-1-0.6-1.4c0.1,0.2,0.1,0.4,0.2,0.7c-0.1-0.5-0.1-1.1-0.2-1.6c0,0.2,0,0.3,0,0.5
        c0.1-0.5,0.1-1.1,0.2-1.6c0,0.2-0.1,0.4-0.2,0.7c0.2-0.5,0.4-1,0.6-1.4c-0.1,0.1-0.2,0.3-0.3,0.4c0.3-0.4,0.6-0.8,0.9-1.2
        c-0.1,0.1-0.2,0.2-0.3,0.3c0.4-0.3,0.8-0.6,1.2-0.9c-0.1,0.1-0.2,0.1-0.4,0.2c0.5-0.2,1-0.4,1.4-0.6c-0.2,0.1-0.4,0.1-0.6,0.2
        c0.5-0.1,1.1-0.1,1.6-0.2c-0.2,0-0.3,0-0.5,0c0.5,0.1,1.1,0.1,1.6,0.2c-0.2,0-0.4-0.1-0.7-0.2c0.5,0.2,1,0.4,1.4,0.6
        c-0.1-0.1-0.3-0.1-0.4-0.2c0.4,0.3,0.8,0.6,1.2,0.9c-0.1-0.1-0.2-0.2-0.3-0.3c0.3,0.4,0.6,0.8,0.9,1.2c-0.1-0.1-0.2-0.2-0.2-0.4
        c0.2,0.5,0.4,1,0.6,1.4c-0.1-0.2-0.1-0.4-0.2-0.7c0.1,0.5,0.1,1.1,0.2,1.6c0-0.2,0-0.3,0-0.5c-0.1,0.5-0.1,1.1-0.2,1.6
        c0-0.3,0.1-0.4,0.2-0.7c-0.2,0.5-0.4,1-0.6,1.4c0.1-0.1,0.2-0.3,0.3-0.4c-0.3,0.4-0.6,0.8-0.9,1.2c0.1-0.1,0.2-0.2,0.3-0.3
        c-0.4,0.3-0.8,0.6-1.2,0.9c0.1-0.1,0.3-0.2,0.4-0.2c-0.5,0.2-1,0.4-1.4,0.6c0.2-0.1,0.3-0.1,0.5-0.1c-0.5,0.1-1.1,0.1-1.6,0.2
        C308.4,225.5,308.5,225.5,308.6,225.4c1.6-0.1,3.1-0.6,4.2-1.8c1-1,1.8-2.7,1.8-4.2c-0.1-3.1-2.6-6.2-6-6
        c-2.2,0.1-4.1,0.9-5.8,2.4c-1.4,1.4-2.3,3.6-2.2,5.6c0.1,2.1,0.8,4.2,2.3,5.7c1.5,1.5,3.7,2.3,5.8,2.3c2.1,0,4.1-0.9,5.6-2.3
        c1.5-1.5,2.2-3.6,2.3-5.7c0.1-2-0.8-4.2-2.2-5.6c-1.6-1.6-3.6-2.3-5.8-2.4c-3.1-0.1-6.1,2.9-6,6
        C302.8,222.8,305.2,225.3,308.6,225.4L308.6,225.4z"/>
      <path id="circle-red-1" style="fill:none;stroke:#DB3340;stroke-width:1;stroke-miterlimit:0;transform-origin:center;" d="M308.6,225.4c0.1,0,0.2,0,0.3,0c-0.5-0.1-1.1-0.1-1.6-0.2c0.2,0,0.4,0.1,0.7,0.2
        c-0.5-0.2-1-0.4-1.4-0.6c0.1,0.1,0.3,0.1,0.4,0.2c-0.4-0.3-0.8-0.6-1.2-0.9c0.1,0.1,0.2,0.2,0.3,0.3c-0.3-0.4-0.6-0.8-0.9-1.2
        c0.1,0.1,0.2,0.2,0.2,0.4c-0.2-0.5-0.4-1-0.6-1.4c0.1,0.2,0.1,0.4,0.2,0.7c-0.1-0.5-0.1-1.1-0.2-1.6c0,0.2,0,0.3,0,0.5
        c0.1-0.5,0.1-1.1,0.2-1.6c0,0.2-0.1,0.4-0.2,0.7c0.2-0.5,0.4-1,0.6-1.4c-0.1,0.1-0.2,0.3-0.3,0.4c0.3-0.4,0.6-0.8,0.9-1.2
        c-0.1,0.1-0.2,0.2-0.3,0.3c0.4-0.3,0.8-0.6,1.2-0.9c-0.1,0.1-0.2,0.1-0.4,0.2c0.5-0.2,1-0.4,1.4-0.6c-0.2,0.1-0.4,0.1-0.6,0.2
        c0.5-0.1,1.1-0.1,1.6-0.2c-0.2,0-0.3,0-0.5,0c0.5,0.1,1.1,0.1,1.6,0.2c-0.2,0-0.4-0.1-0.7-0.2c0.5,0.2,1,0.4,1.4,0.6
        c-0.1-0.1-0.3-0.1-0.4-0.2c0.4,0.3,0.8,0.6,1.2,0.9c-0.1-0.1-0.2-0.2-0.3-0.3c0.3,0.4,0.6,0.8,0.9,1.2c-0.1-0.1-0.2-0.2-0.2-0.4
        c0.2,0.5,0.4,1,0.6,1.4c-0.1-0.2-0.1-0.4-0.2-0.7c0.1,0.5,0.1,1.1,0.2,1.6c0-0.2,0-0.3,0-0.5c-0.1,0.5-0.1,1.1-0.2,1.6
        c0-0.3,0.1-0.4,0.2-0.7c-0.2,0.5-0.4,1-0.6,1.4c0.1-0.1,0.2-0.3,0.3-0.4c-0.3,0.4-0.6,0.8-0.9,1.2c0.1-0.1,0.2-0.2,0.3-0.3
        c-0.4,0.3-0.8,0.6-1.2,0.9c0.1-0.1,0.3-0.2,0.4-0.2c-0.5,0.2-1,0.4-1.4,0.6c0.2-0.1,0.3-0.1,0.5-0.1c-0.5,0.1-1.1,0.1-1.6,0.2
        C308.4,225.5,308.5,225.5,308.6,225.4c1.6-0.1,3.1-0.6,4.2-1.8c1-1,1.8-2.7,1.8-4.2c-0.1-3.1-2.6-6.2-6-6
        c-2.2,0.1-4.1,0.9-5.8,2.4c-1.4,1.4-2.3,3.6-2.2,5.6c0.1,2.1,0.8,4.2,2.3,5.7c1.5,1.5,3.7,2.3,5.8,2.3c2.1,0,4.1-0.9,5.6-2.3
        c1.5-1.5,2.2-3.6,2.3-5.7c0.1-2-0.8-4.2-2.2-5.6c-1.6-1.6-3.6-2.3-5.8-2.4c-3.1-0.1-6.1,2.9-6,6
        C302.8,222.8,305.2,225.3,308.6,225.4L308.6,225.4z"/>
    </g>
  </g>
</g>
<g id="dot-1">
  <g id="dot-1_1_">
    <g>
      <path id="dot-yellow" style="fill:none;stroke:#E8B81A;stroke-width:9;stroke-miterlimit:0;transform-origin:center;" d="M333.7,125.2c0.1,0,0.2,0,0.3,0c-0.5-0.1-1.1-0.1-1.6-0.2c0.2,0,0.4,0.1,0.7,0.2
        c-0.5-0.2-1-0.4-1.4-0.6c0.1,0.1,0.3,0.1,0.4,0.2c-0.4-0.3-0.8-0.6-1.2-0.9c0.1,0.1,0.2,0.2,0.3,0.3c-0.3-0.4-0.6-0.8-0.9-1.2
        c0.1,0.1,0.2,0.2,0.2,0.4c-0.2-0.5-0.4-1-0.6-1.4c0.1,0.2,0.1,0.4,0.2,0.7c-0.1-0.5-0.1-1.1-0.2-1.6c0,0.2,0,0.3,0,0.5
        c0.1-0.5,0.1-1.1,0.2-1.6c0,0.2-0.1,0.4-0.2,0.7c0.2-0.5,0.4-1,0.6-1.4c-0.1,0.1-0.2,0.3-0.3,0.4c0.3-0.4,0.6-0.8,0.9-1.2
        c-0.1,0.1-0.2,0.2-0.3,0.3c0.4-0.3,0.8-0.6,1.2-0.9c-0.1,0.1-0.2,0.1-0.4,0.2c0.5-0.2,1-0.4,1.4-0.6c-0.2,0.1-0.4,0.1-0.6,0.2
        c0.5-0.1,1.1-0.1,1.6-0.2c-0.2,0-0.3,0-0.5,0c0.5,0.1,1.1,0.1,1.6,0.2c-0.2,0-0.4-0.1-0.7-0.2c0.5,0.2,1,0.4,1.4,0.6
        c-0.1-0.1-0.3-0.1-0.4-0.2c0.4,0.3,0.8,0.6,1.2,0.9c-0.1-0.1-0.2-0.2-0.3-0.3c0.3,0.4,0.6,0.8,0.9,1.2c-0.1-0.1-0.2-0.2-0.2-0.4
        c0.2,0.5,0.4,1,0.6,1.4c-0.1-0.2-0.1-0.4-0.2-0.7c0.1,0.5,0.1,1.1,0.2,1.6c0-0.2,0-0.3,0-0.5c-0.1,0.5-0.1,1.1-0.2,1.6
        c0-0.3,0.1-0.4,0.2-0.7c-0.2,0.5-0.4,1-0.6,1.4c0.1-0.1,0.2-0.3,0.3-0.4c-0.3,0.4-0.6,0.8-0.9,1.2c0.1-0.1,0.2-0.2,0.3-0.3
        c-0.4,0.3-0.8,0.6-1.2,0.9c0.1-0.1,0.3-0.2,0.4-0.2c-0.5,0.2-1,0.4-1.4,0.6c0.2-0.1,0.3-0.1,0.5-0.1c-0.5,0.1-1.1,0.1-1.6,0.2
        C333.5,125.2,333.6,125.2,333.7,125.2c1.6-0.1,3.1-0.6,4.2-1.8c1-1,1.8-2.7,1.8-4.2c-0.1-3.1-2.6-6.2-6-6
        c-2.2,0.1-4.1,0.9-5.8,2.4c-1.4,1.4-2.3,3.6-2.2,5.6c0.1,2.1,0.8,4.2,2.3,5.7c1.5,1.5,3.7,2.3,5.8,2.3c2.1,0,4.1-0.9,5.6-2.3
        c1.5-1.5,2.2-3.6,2.3-5.7c0.1-2-0.8-4.2-2.2-5.6c-1.6-1.6-3.6-2.3-5.8-2.4c-3.1-0.1-6.1,2.9-6,6
        C327.8,122.5,330.3,125,333.7,125.2L333.7,125.2z"/>
      <path id="circle-yellow-0" style="fill:none;stroke:#E8B81A;stroke-width:9;stroke-miterlimit:0;transform-origin:center;" d="M333.7,125.2c0.1,0,0.2,0,0.3,0c-0.5-0.1-1.1-0.1-1.6-0.2c0.2,0,0.4,0.1,0.7,0.2
        c-0.5-0.2-1-0.4-1.4-0.6c0.1,0.1,0.3,0.1,0.4,0.2c-0.4-0.3-0.8-0.6-1.2-0.9c0.1,0.1,0.2,0.2,0.3,0.3c-0.3-0.4-0.6-0.8-0.9-1.2
        c0.1,0.1,0.2,0.2,0.2,0.4c-0.2-0.5-0.4-1-0.6-1.4c0.1,0.2,0.1,0.4,0.2,0.7c-0.1-0.5-0.1-1.1-0.2-1.6c0,0.2,0,0.3,0,0.5
        c0.1-0.5,0.1-1.1,0.2-1.6c0,0.2-0.1,0.4-0.2,0.7c0.2-0.5,0.4-1,0.6-1.4c-0.1,0.1-0.2,0.3-0.3,0.4c0.3-0.4,0.6-0.8,0.9-1.2
        c-0.1,0.1-0.2,0.2-0.3,0.3c0.4-0.3,0.8-0.6,1.2-0.9c-0.1,0.1-0.2,0.1-0.4,0.2c0.5-0.2,1-0.4,1.4-0.6c-0.2,0.1-0.4,0.1-0.6,0.2
        c0.5-0.1,1.1-0.1,1.6-0.2c-0.2,0-0.3,0-0.5,0c0.5,0.1,1.1,0.1,1.6,0.2c-0.2,0-0.4-0.1-0.7-0.2c0.5,0.2,1,0.4,1.4,0.6
        c-0.1-0.1-0.3-0.1-0.4-0.2c0.4,0.3,0.8,0.6,1.2,0.9c-0.1-0.1-0.2-0.2-0.3-0.3c0.3,0.4,0.6,0.8,0.9,1.2c-0.1-0.1-0.2-0.2-0.2-0.4
        c0.2,0.5,0.4,1,0.6,1.4c-0.1-0.2-0.1-0.4-0.2-0.7c0.1,0.5,0.1,1.1,0.2,1.6c0-0.2,0-0.3,0-0.5c-0.1,0.5-0.1,1.1-0.2,1.6
        c0-0.3,0.1-0.4,0.2-0.7c-0.2,0.5-0.4,1-0.6,1.4c0.1-0.1,0.2-0.3,0.3-0.4c-0.3,0.4-0.6,0.8-0.9,1.2c0.1-0.1,0.2-0.2,0.3-0.3
        c-0.4,0.3-0.8,0.6-1.2,0.9c0.1-0.1,0.3-0.2,0.4-0.2c-0.5,0.2-1,0.4-1.4,0.6c0.2-0.1,0.3-0.1,0.5-0.1c-0.5,0.1-1.1,0.1-1.6,0.2
        C333.5,125.2,333.6,125.2,333.7,125.2c1.6-0.1,3.1-0.6,4.2-1.8c1-1,1.8-2.7,1.8-4.2c-0.1-3.1-2.6-6.2-6-6
        c-2.2,0.1-4.1,0.9-5.8,2.4c-1.4,1.4-2.3,3.6-2.2,5.6c0.1,2.1,0.8,4.2,2.3,5.7c1.5,1.5,3.7,2.3,5.8,2.3c2.1,0,4.1-0.9,5.6-2.3
        c1.5-1.5,2.2-3.6,2.3-5.7c0.1-2-0.8-4.2-2.2-5.6c-1.6-1.6-3.6-2.3-5.8-2.4c-3.1-0.1-6.1,2.9-6,6
        C327.8,122.5,330.3,125,333.7,125.2L333.7,125.2z"/>
      <path id="circle-yellow-1" style="fill:none;stroke:#E8B81A;stroke-width:9;stroke-miterlimit:0;transform-origin:center;" d="M333.7,125.2c0.1,0,0.2,0,0.3,0c-0.5-0.1-1.1-0.1-1.6-0.2c0.2,0,0.4,0.1,0.7,0.2
        c-0.5-0.2-1-0.4-1.4-0.6c0.1,0.1,0.3,0.1,0.4,0.2c-0.4-0.3-0.8-0.6-1.2-0.9c0.1,0.1,0.2,0.2,0.3,0.3c-0.3-0.4-0.6-0.8-0.9-1.2
        c0.1,0.1,0.2,0.2,0.2,0.4c-0.2-0.5-0.4-1-0.6-1.4c0.1,0.2,0.1,0.4,0.2,0.7c-0.1-0.5-0.1-1.1-0.2-1.6c0,0.2,0,0.3,0,0.5
        c0.1-0.5,0.1-1.1,0.2-1.6c0,0.2-0.1,0.4-0.2,0.7c0.2-0.5,0.4-1,0.6-1.4c-0.1,0.1-0.2,0.3-0.3,0.4c0.3-0.4,0.6-0.8,0.9-1.2
        c-0.1,0.1-0.2,0.2-0.3,0.3c0.4-0.3,0.8-0.6,1.2-0.9c-0.1,0.1-0.2,0.1-0.4,0.2c0.5-0.2,1-0.4,1.4-0.6c-0.2,0.1-0.4,0.1-0.6,0.2
        c0.5-0.1,1.1-0.1,1.6-0.2c-0.2,0-0.3,0-0.5,0c0.5,0.1,1.1,0.1,1.6,0.2c-0.2,0-0.4-0.1-0.7-0.2c0.5,0.2,1,0.4,1.4,0.6
        c-0.1-0.1-0.3-0.1-0.4-0.2c0.4,0.3,0.8,0.6,1.2,0.9c-0.1-0.1-0.2-0.2-0.3-0.3c0.3,0.4,0.6,0.8,0.9,1.2c-0.1-0.1-0.2-0.2-0.2-0.4
        c0.2,0.5,0.4,1,0.6,1.4c-0.1-0.2-0.1-0.4-0.2-0.7c0.1,0.5,0.1,1.1,0.2,1.6c0-0.2,0-0.3,0-0.5c-0.1,0.5-0.1,1.1-0.2,1.6
        c0-0.3,0.1-0.4,0.2-0.7c-0.2,0.5-0.4,1-0.6,1.4c0.1-0.1,0.2-0.3,0.3-0.4c-0.3,0.4-0.6,0.8-0.9,1.2c0.1-0.1,0.2-0.2,0.3-0.3
        c-0.4,0.3-0.8,0.6-1.2,0.9c0.1-0.1,0.3-0.2,0.4-0.2c-0.5,0.2-1,0.4-1.4,0.6c0.2-0.1,0.3-0.1,0.5-0.1c-0.5,0.1-1.1,0.1-1.6,0.2
        C333.5,125.2,333.6,125.2,333.7,125.2c1.6-0.1,3.1-0.6,4.2-1.8c1-1,1.8-2.7,1.8-4.2c-0.1-3.1-2.6-6.2-6-6
        c-2.2,0.1-4.1,0.9-5.8,2.4c-1.4,1.4-2.3,3.6-2.2,5.6c0.1,2.1,0.8,4.2,2.3,5.7c1.5,1.5,3.7,2.3,5.8,2.3c2.1,0,4.1-0.9,5.6-2.3
        c1.5-1.5,2.2-3.6,2.3-5.7c0.1-2-0.8-4.2-2.2-5.6c-1.6-1.6-3.6-2.3-5.8-2.4c-3.1-0.1-6.1,2.9-6,6
        C327.8,122.5,330.3,125,333.7,125.2L333.7,125.2z"/>
    </g>
  </g>
</g>
</svg>
