<?xml version="1.0" encoding="utf-8"?>
<!-- Generator: Adobe Illustrator 19.0.1, SVG Export Plug-In . SVG Version: 6.00 Build 0)  -->
<svg version="1.1" id="Layer_1" xmlns="http://www.w3.org/2000/svg" xmlns:xlink="http://www.w3.org/1999/xlink" x="0px" y="0px"
	 viewBox="0 0 1825 813.5" enable-background="new 0 0 1825 813.5" xml:space="preserve">
<rect x="-36.6" y="-124.1" display="none" fill="#20DA9B" stroke="#FF0000" stroke-miterlimit="10" width="1925" height="1094.7"/>
<g>
	<g>
		<line fill="none" stroke="#FFFFFF" stroke-miterlimit="10" x1="53.3" y1="49.8" x2="59.5" y2="29.6"/>
		<line fill="none" stroke="#FFFFFF" stroke-miterlimit="10" x1="65.3" y1="50.3" x2="59.1" y2="30.1"/>
		<line fill="none" stroke="#FFFFFF" stroke-miterlimit="10" x1="65.6" y1="117.6" x2="59.4" y2="137.8"/>
		<line fill="none" stroke="#FFFFFF" stroke-miterlimit="10" x1="53.6" y1="117.1" x2="59.8" y2="137.2"/>
		<g>
			<g>
				<line fill="none" stroke="#FFFFFF" stroke-miterlimit="10" x1="59.8" y1="137.2" x2="59.8" y2="134.7"/>
				
					<line fill="none" stroke="#FFFFFF" stroke-miterlimit="10" stroke-dasharray="4.8488,4.8488" x1="59.7" y1="129.9" x2="58.9" y2="35.3"/>
				<line fill="none" stroke="#FFFFFF" stroke-miterlimit="10" x1="58.9" y1="32.9" x2="58.9" y2="30.4"/>
			</g>
		</g>
	</g>
	<g>
		<line fill="none" stroke="#FFFFFF" stroke-miterlimit="10" x1="1194.8" y1="16.7" x2="1215" y2="22.8"/>
		<line fill="none" stroke="#FFFFFF" stroke-miterlimit="10" x1="1194.3" y1="28.6" x2="1214.4" y2="22.4"/>
		<line fill="none" stroke="#FFFFFF" stroke-miterlimit="10" x1="1127" y1="28.9" x2="1106.8" y2="22.7"/>
		<line fill="none" stroke="#FFFFFF" stroke-miterlimit="10" x1="1127.5" y1="17" x2="1107.3" y2="23.1"/>
		<g>
			<g>
				<line fill="none" stroke="#FFFFFF" stroke-miterlimit="10" x1="1107.3" y1="23.1" x2="1109.8" y2="23.1"/>
				
					<line fill="none" stroke="#FFFFFF" stroke-miterlimit="10" stroke-dasharray="4.8488,4.8488" x1="1114.7" y1="23.1" x2="1209.2" y2="22.3"/>
				<line fill="none" stroke="#FFFFFF" stroke-miterlimit="10" x1="1211.7" y1="22.3" x2="1214.2" y2="22.3"/>
			</g>
		</g>
	</g>
</g>
<g>
	<g>
		<polygon fill="#FFFFFF" stroke="#FFFFFF" stroke-miterlimit="10" points="1716.1,195.8 1723.1,175 1730.1,195.5 		"/>
		<g>
			<line fill="#FFFFFF" x1="1723.6" y1="196.3" x2="1723.6" y2="252.3"/>
			<g>
				<line fill="none" stroke="#FFFFFF" stroke-width="2" stroke-miterlimit="10" x1="1723.6" y1="196.3" x2="1723.6" y2="198.8"/>
				
					<line fill="none" stroke="#FFFFFF" stroke-width="2" stroke-miterlimit="10" stroke-dasharray="4.6355,4.6355" x1="1723.6" y1="203.4" x2="1723.6" y2="247.5"/>
				<line fill="none" stroke="#FFFFFF" stroke-width="2" stroke-miterlimit="10" x1="1723.6" y1="249.8" x2="1723.6" y2="252.3"/>
			</g>
		</g>
		<circle fill="#FFFFFF" stroke="#FFFFFF" stroke-width="2" stroke-miterlimit="10" cx="1722.8" cy="257.8" r="5.5"/>
	</g>
	<g>
		<polygon fill="#FFFFFF" stroke="#FFFFFF" stroke-miterlimit="10" points="191.5,22.7 170.8,15.7 191.3,8.7 		"/>
		<g>
			<line fill="#FFFFFF" x1="192" y1="15.2" x2="248" y2="15.2"/>
			<g>
				<line fill="none" stroke="#FFFFFF" stroke-width="2" stroke-miterlimit="10" x1="192" y1="15.2" x2="194.5" y2="15.2"/>
				
					<line fill="none" stroke="#FFFFFF" stroke-width="2" stroke-miterlimit="10" stroke-dasharray="4.6355,4.6355" x1="199.2" y1="15.2" x2="243.2" y2="15.2"/>
				<line fill="none" stroke="#FFFFFF" stroke-width="2" stroke-miterlimit="10" x1="245.5" y1="15.2" x2="248" y2="15.2"/>
			</g>
		</g>
		<circle fill="#FFFFFF" stroke="#FFFFFF" stroke-width="2" stroke-miterlimit="10" cx="253.5" cy="16" r="5.5"/>
	</g>
	<g>
		<polygon fill="#FFFFFF" stroke="#FFFFFF" stroke-miterlimit="10" points="483.6,150.6 504.3,157.6 483.8,164.5 		"/>
		<g>
			<line fill="#FFFFFF" x1="483.1" y1="158" x2="427.1" y2="158"/>
			<g>
				<line fill="none" stroke="#FFFFFF" stroke-width="2" stroke-miterlimit="10" x1="483.1" y1="158" x2="480.6" y2="158"/>
				
					<line fill="none" stroke="#FFFFFF" stroke-width="2" stroke-miterlimit="10" stroke-dasharray="4.6355,4.6355" x1="476" y1="158" x2="431.9" y2="158"/>
				<line fill="none" stroke="#FFFFFF" stroke-width="2" stroke-miterlimit="10" x1="429.6" y1="158" x2="427.1" y2="158"/>
			</g>
		</g>
		<circle fill="#FFFFFF" stroke="#FFFFFF" stroke-width="2" stroke-miterlimit="10" cx="421.6" cy="157.3" r="5.5"/>
	</g>
</g>
<g>
	<line fill="#FFFFFF" stroke="#FFFFFF" stroke-width="4" stroke-miterlimit="10" x1="96.5" y1="276.2" x2="143.8" y2="473.4"/>
	<line fill="#FFFFFF" stroke="#FFFFFF" stroke-width="4" stroke-miterlimit="10" x1="141" y1="209.6" x2="291" y2="174.8"/>
	<line fill="#FFFFFF" stroke="#FFFFFF" stroke-width="4" stroke-miterlimit="10" x1="267.4" y1="80.4" x2="320.1" y2="149.8"/>
	<line fill="#FFFFFF" stroke="#FFFFFF" stroke-width="4" stroke-miterlimit="10" x1="322.9" y1="15.1" x2="328.5" y2="131.8"/>
	<line fill="#FFFFFF" stroke="#FFFFFF" stroke-width="4" stroke-miterlimit="10" x1="577.1" y1="54" x2="629.9" y2="120.7"/>
	<line fill="#FFFFFF" stroke="#FFFFFF" stroke-width="4" stroke-miterlimit="10" x1="1086.8" y1="92.3" x2="981.3" y2="197.1"/>
	<line fill="#FFFFFF" stroke="#FFFFFF" stroke-width="4" stroke-miterlimit="10" x1="1485.8" y1="159.6" x2="1559.4" y2="55.4"/>
	<line fill="#FFFFFF" stroke="#FFFFFF" stroke-width="4" stroke-miterlimit="10" x1="271.1" y1="306.8" x2="152.1" y2="492.9"/>
	<line fill="#FFFFFF" stroke="#FFFFFF" stroke-width="4" stroke-miterlimit="10" x1="324.3" y1="289.1" x2="584" y2="304.4"/>
	<line fill="#FFFFFF" stroke="#FFFFFF" stroke-width="4" stroke-miterlimit="10" x1="460.4" y1="481.8" x2="345.1" y2="199.8"/>
	<line fill="#FFFFFF" stroke="#FFFFFF" stroke-width="4" stroke-miterlimit="10" x1="1477.1" y1="190.1" x2="1010.4" y2="207.2"/>
	<line fill="#FFFFFF" stroke="#FFFFFF" stroke-width="4" stroke-miterlimit="10" x1="372.9" y1="187.7" x2="579.9" y2="294.7"/>
	<line fill="#FFFFFF" stroke="#FFFFFF" stroke-width="4" stroke-miterlimit="10" x1="1603.5" y1="288.5" x2="1492.4" y2="204"/>
	<line fill="#FFFFFF" stroke="#FFFFFF" stroke-width="4" stroke-miterlimit="10" x1="468.8" y1="487.3" x2="568.8" y2="356.8"/>
	<line fill="#FFFFFF" stroke="#FFFFFF" stroke-width="4" stroke-miterlimit="10" x1="596.9" y1="308.2" x2="626.1" y2="133.2"/>
	<line fill="#FFFFFF" stroke="#FFFFFF" stroke-width="4" stroke-miterlimit="10" x1="934" y1="198.4" x2="636.8" y2="126.2"/>
	<line fill="#FFFFFF" stroke="#FFFFFF" stroke-width="4" stroke-miterlimit="10" x1="625.7" y1="300.6" x2="911.8" y2="218.7"/>
	<line fill="#FFFFFF" stroke="#FFFFFF" stroke-width="4" stroke-miterlimit="10" x1="734" y1="495.7" x2="628.5" y2="352.6"/>
	<line fill="#FFFFFF" stroke="#FFFFFF" stroke-width="4" stroke-miterlimit="10" x1="752.1" y1="488.7" x2="931.3" y2="256.8"/>
	<line fill="#FFFFFF" stroke="#FFFFFF" stroke-width="4" stroke-miterlimit="10" x1="1068.8" y1="499.8" x2="988.2" y2="256.8"/>
	<line fill="#FFFFFF" stroke="#FFFFFF" stroke-width="4" stroke-miterlimit="10" x1="1177.1" y1="311.9" x2="997.9" y2="230"/>
	<line fill="#FFFFFF" stroke="#FFFFFF" stroke-width="4" stroke-miterlimit="10" x1="1088.2" y1="491.5" x2="1184" y2="363.7"/>
	<line fill="#FFFFFF" stroke="#FFFFFF" stroke-width="4" stroke-miterlimit="10" x1="1227.1" y1="351.2" x2="1304.9" y2="495.7"/>
	<line fill="#FFFFFF" stroke="#FFFFFF" stroke-width="4" stroke-miterlimit="10" x1="1446.5" y1="230.4" x2="1316" y2="497.1"/>
	<line fill="#FFFFFF" stroke="#FFFFFF" stroke-width="4" stroke-miterlimit="10" x1="1624.3" y1="333.2" x2="1546.5" y2="510.9"/>
</g>
<g>
	<g>
		<path fill="#2C3033" d="M717,451.5c1.2,0,2.3,0,3.6,0c0.2,0.5,0.4,1.1,0.7,2.1c4.7-0.4,9.5-0.9,14.5-1.4c0-0.6,0-1.4,0-2
			c0.4-0.3,0.7-0.7,0.9-0.7c2.4,0.2,4.8-0.5,7.1,0.9c1.1,0.6,3,0.3,4.4,0.1c7.4-1.4,8-1.4,14.9,0.7c2.4,0.7,4.8,1.2,7.6,1.9
			c0.8-0.2,2.1-0.5,3.7-0.8c1.7,2,3.3,4,5.1,6.3c1.5-0.4,3.3-0.8,5.1-1.3c0.2-0.6,0.4-1.1,0.6-1.7c0.7,0,1.4,0,2.2,0
			c1.8,1.9,3.8,4,5.7,6c2.1-1.9,4.1-1.4,5.8,0c1.6,1.2,2.9,2.8,4.8,4.8c5.6-0.1,10.2,3.9,15.3,6.8c1.8,1,3.4,2.4,4.9,3.9
			c3.5,3.3,3.7,3.5,8.3,3.5c1.1,0.9,2.1,1.6,3.5,2.7c0.3,0.9,0.9,2.4,1.1,3.9c0.2,1.6,0.1,3.3,0,5c-0.2,3.6,1.1,6.8,2.9,10.1
			c0.4,10.5,0.4,10.5-2.2,14.2c-1.4,0-2.9,0.7-4.2-1c-2,2.3-2.2,5.2-2.4,7.9c-0.4,5.2-1.7,10.3-1.1,15.6c-1.5,3.4-0.5,7.6-3,10.8
			c-2.5,3.1-2.6,6.4-0.2,10.1c0-1.1,0-1.9,0-2.6c0.9-0.4,1.5-0.7,2.4-1.1c-0.5-1-0.9-2-1.5-3.2c2.2,0,4.1,0,6.2,0c0,1.5,0,2.9,0,4
			c-2.2,4.4-4.5,8.4-8.1,11.4c0.9,2.5,1.9,4.8,2.6,7.2c1.2,4.4,3.9,8.5,2.1,14c-0.6,0.5-1.8,1.6-3.8,3.3c-3.4,2-7.1-0.3-11-2.4
			c-0.5,1-1,1.8-1.7,3c0,1.4,0,3.1,0,5.1c-1.9,1.4-3.9,2.9-5.8,4.3c-1.8-0.5-3.3-0.9-5.8-1.7c1.3,1.6,2,2.3,2.6,3.1
			c0,0.8,0,1.7,0,2.5c-0.2,0.3-0.2,0.6-0.5,0.8c-1.4,1-2.7,2.4-4.2,3c-3.4,1.2-5.7,3.4-7.3,7.1c0,1.4-0.1,3.4,0,5.4
			c0.4,5.6-2.3,9.2-7.1,11.6c-1.1,0.6-2.2,1.1-3.7,1.9c0.2,0-0.1,0-0.4,0.1c-4.6,0.6-8.7-0.7-12.8-2.9c-3.6-2-7.6-3.3-11.4-5
			c-0.5,0.3-1,0.6-1.5,0.9c0-0.2,0-0.5,0-0.5c-3.4-0.9-6.9-1.8-10.7-2.8c-0.3,0.4-0.9,0.9-1,1.5c-0.6,3.1-2.4,5.4-4.5,7.6
			c-0.5,0.5-0.5,1.4-0.7,2.2c-1.3,0-2.6,0-3.9,0c4.4,3.3,8.7,6.3,14.7,6c0.1,1.4,0.1,2.9,0.2,4.2c-1.3,1.7-2.4,3.5-3.8,5
			c-2.6,2.6-5.2,5.2-6.1,9.8c0.2,0.7,0.7,2.1,1.2,3.9c4.9,5.1,8.9,11.1,12.7,17.4c4.4,7.3,8,14.9,11.1,22.9
			c1.5,3.9,2.9,7.8,4.2,11.7c0.2,0.6,0.6,1.1,0.6,1.7c0.1,4.8,1.7,9.4,2.2,14.1c0,0.1,0.5,0.2,0.8,0.4c0,4.2-0.2,8.3,0,12.5
			c0.2,4.2,0.8,8.3,1.2,12.8c2.3-2.7,4.6-5,6.4-7.5c2.6-3.7,5.8-7,7.5-11.4c1.2-3,3.3-5.6,4.4-8.6c1.2-3.2,4.1-3.6,6.5-5
			c2.9,2.4,5.7,4.8,8.3,6.9c0.8-1,1.4-2.1,2.4-2.9c1.5-1.3,2.5-2.9,3.2-4.7c1.1-3,2.4-6.1,2.9-9.2c0.8-5.1,2-10.2,3-15.2
			c0.4-2.2,1.8-4.2,1.1-6.6c0.8,0,1.7,0,2.5,0c2.1-4.2,5.8-6.8,9.7-9c3.7-2.1,7.8-3.5,11.8-5.1c3.5-1.4,6.9-2.9,9.5-5.9
			c3.2-3.6,7.7-5.3,12.1-6.9c1.9-0.7,4.3-0.1,6.4-0.1c0.6,3.1-1.3,5.4-2.5,7.9c-0.4,0.9-0.4,1.1,0.5,1.1c0,0.5,0,1,0,1.5
			c-2.5,0.8-3.8,3-5.6,4.6c-1.7,1.5-3.1,3.2-5.2,4.4c-2.1,1.2-3.5,3.3-5.8,5.6c2.5,0,4.5,0.1,6.4,0c1.4-0.1,2.7-0.6,4.1-1
			c1,1.4,2,1.4,3,0c0.8-0.1,1.9,0.5,2-1.1c0.1-0.7,0.6-1.3,1-1.9c1.8-4.7,5.6-7.1,10.3-9.1c1.2,0,2.8,0,4.3,0
			c4.2-4.2,7.9-8.8,14.3-9.9c1.6,0.8,3.3,1.7,5,2.6c0.1,0.9,0.1,1.7,0.1,2.3c2.5,0,4.6,0,6.6,0c-0.9-2.5-2-4.9-2.7-7.3
			c-1.5-5.6-1.4-11.6-3-17.2c-0.8-2.7-0.3-5.9-1.2-8.5c-1.8-5.2-1.6-10.8-3.9-15.8c0.4-5-2.1-9.6-2.1-14.6c0-2.1-1-4.2-1.5-6.3
			c-0.8-3.6-1.8-7.3-2.4-11c-0.2-1.4-0.6-2.7-1-4.1c-0.5-1.5-0.6-3.1-0.9-4.6c-1.3-5.9-2.7-11.7-5.1-17.4c-1.9-4.7-3.1-9.7-5-14.4
			c-0.7-1.8-1.2-3.8-1.8-5.7c-0.6-1.8-1.3-3.6-1.2-5.4c0.1-2.2-0.9-4.1-1-6.1c-0.2-4-0.1-7.9-0.1-11.7c6.1-2.9,12.4-4.6,18.8-5.7
			c0.2-0.9,0.4-1.9,0.5-2.7c1,0,1.9,0,2.7,0c0.5,0.4,1,0.8,2.3,1.8c-0.6-2.7-1.2-4.3-1.3-5.9c-0.3-3.5-0.3-7-0.8-10.5
			c-0.6-3.9-0.3-7.9-2.2-11.6c-0.3-0.5,0.1-1.3-0.1-2c-0.1-0.3-0.6-0.5-1-0.8c0.2-5-0.4-10,0.9-15c0.6-2.4,1.3-4.8,1.8-7.2
			c0.9-4.5,4.4-8,5-12.6c-0.6-0.2-1.1-0.4-1.4-0.5c-0.5-3.9-1-7.6-1.4-11.4c1.8-0.9,3.4-1.8,5.1-2.7c0.1-1,0.1-2.2,0.2-3.6
			c4.2-2.9,8.4-5.8,12.9-8.9c0-0.7-0.1-1.9,0-3c0.1-0.9,0.6-1.7,1-2.6c0.7-1.9,1.6-3.6,4-3.4c0.8,0,1.7,0,2.6,0c0.8,2,1.6,4,2.4,6
			c1.7,0,3.2,0,4.4,0c2.7,1.8,5.2,3.5,7.9,5.2c3.4-3.6,5.3-8,5.6-12.6c0.4-7.9,4.1-13.5,10.6-17.6c1.6,0,3.3,0,5.2,0
			c0.4,0.7,1.2,1.5,1.2,2.3c0,1.4-0.2,3-1,4c-2.9,3.9-3.6,8.3-4,12.9c-0.1,2-0.8,4-0.9,6.1c-0.2,2,0,4,0,6.2c-1.3,1.1-2.6,2.3-4,3.6
			c0,2.9,0,5.8,0,8.6c0,1.5-2.2,12.7-3,13.7c-2,2.3-2.6,5.4-4.5,7.6c-3.1,3.8-5,8.3-7.5,12.4c-1.5,2.4-3.4,4.6-4.8,7
			c-3,5-4.1,10.6-2.9,16.1c0.8,3.8,0.3,7.4,0.9,10.9c1,0.6,2,1.2,2.5,1.5c0.9,4.5,1.8,8.5,2.4,12.6c0.6,4.1,0.9,8.3,1.4,12.4
			c0.6-0.4,1.1-0.7,1.7-1c-0.7,4.3,1.4,8.3,1,12.5c1.9,1.6,0.5,3.7,1,5.6c0.5,1.9,1.4,3.7,1.9,5.7c1,3.7,1.9,7.5,2.9,11.2
			c1.4,5.1,2.9,10.1,4.3,15.2c0.9,3.4,1.7,7.1,4.4,10.2c2.2,2.5,3.5,5.8,5,8.8c0.9,1.8,1.3,3.7,2.4,5.5c1.9,3.1,3.4,6.4,7.1,7.9
			c0,1.2,0,2.3,0,3.5c-1.7,1-0.8,3.1-2.5,4.2c0.9,0.8,1.4,1.4,2.1,2c1.8,0,3.6,0,5.4,0c0,1.7,0,3.1,0,4.4c1.8,1.7,3.5,2.9,5.9,2.1
			c0-0.7,0-1.2,0-1.7c2.2,0,4.3,0,6.5,0c2,0,4.3-0.6,5.9,0.1c4.4,2,9.2,2.6,13.5,4.9c3.5,1.9,7.2,2.3,11.4,1.8
			c-1.6-5.5-3.1-10.6-4.6-15.7c-3.3-0.7-6.1-2.4-9.3-3.3c-2.6-0.8-5.2-2.3-7.2-4.2c-4.4-4-9.1-7.4-14.1-10.6
			c-1.2-0.8-2.4-1.7-3.3-2.8c-1.1-1.3-1.9-2.8-1.8-4.7c0.2-2.3,0-4.7,0-6.6c1.5-2.9,2.9-5.4,3-8.5c-1.5-1-2.8-1.9-4-2.7
			c0-4.2,0-8.2,0-12.5c-0.6-0.5-1.4-1.1-1.9-1.5c-0.6-3.6,0.5-6.5,1.7-9.4c-2.7-2.1-4.4-5.3-7.7-6.7c-0.5-0.2-0.7-1-1.1-1.5
			c-1.7-2.3-0.7-5-1-7.2c2.7-6.1,8.9-8.1,12.7-12c1.7-8.8,3.1-17.4,9.8-24c1.1,0,2.2,0,3.2,0c0.9-2.3,1.6-4.6,2.6-6.6
			c0.9-1.8,2.2-3.4,3.1-5.2c2.3-4.2,3.8-8.7,5.6-13.1c2.5-6.1,5.7-12.2,11-16.4c6.5-5.1,14.2-8.1,21.9-11c0-0.5,0-1,0-1.5
			c1.6-0.4,2.3,0.9,3.2,1.7c2.4-0.6,4.8-1.3,7.2-1.6c2-0.3,4.5,0.7,5.9-0.2c1.7-1.3,4.1,0.2,5.3-1.8c3.2,0.4,6.6-0.9,9.7,0.7
			c0.5,0.3,1.3,0.4,1.9,0.3c4-0.7,7.7,0.7,11.6,1.2c3.6,0.5,7.5,1.4,10.7,3c5.2,2.7,10.7,4.7,15.8,8c4.4,2.9,8.2,6.4,12.7,9
			c1.6,3.1,4.5,5.2,6.4,8.2c2,3,4.1,6,5.7,9.2c2.6,5.1,4.2,10.6,5.3,16.3c1.1,5.6,0.8,11.1,0.6,16.6c-0.2,3.7-1.3,7.6-3.8,11.2
			c0.1,2.7-0.7,5.6-1.5,8.5c-1.4,5.6-3.8,10.9-4.6,16.6c-0.4,2.8-1.8,5.5-2.9,8.2c-0.2,0.6-1.1,0.9-1.8,1.4
			c-0.1,0.6-0.2,1.4-0.3,2.2c-2.3,2.3-4.4,4.6-6.8,6.7c-3.7,3.3-6.1,7.5-9,11.3c-0.6,0.8-1.2,1.9-1.9,2.6c-2.6,2.7-5.5,5-6.7,8.7
			c-0.2,0.6-0.9,1-1.4,1.4c-0.4,2.2,0.6,4.6-1.1,6.6c1.8,2.9,0.1,6.3,1.2,9c1.2,2.9,0.4,5.8,1,9c2,0,4,0.5,5.8-0.9
			c0,1.8,0,3.7,0,4.5c-1.3,2.7-2.3,4.7-3.1,6.5c1.7,2.5,2.8,5.2,4.7,7.4c1.1,1.2,2.2,2.7,3.3,4c1.2,1.5,2.4,3,3.5,4.5
			c0.7,0.9,1.5,1.2,2.6,1c0,0.5,0,1,0,1.5c0.7,0.3,1.6,0.5,2,1.1c4.6,5.8,10.4,10.8,13.1,18c1.6,4.2,3.2,8.4,4,12.9
			c0.5,2.6,0.1,5.3,1,7.6c0.9,2.5,0.6,4.8,0.9,7.1c0,0.3,0.6,0.5,1,0.8c0.3,0.4,0.9,0.8,1,1.3c0.5,2.1,0.6,4.4,1.3,6.5
			c2.5,7.1,5.1,14.1,5.7,21.6c1.9,1.5,0.7,3.9,1.9,5.8c1.1,1.8,0.9,4.3,1.4,6.4c0.7,3.2,1.5,6.4,1.8,9.7c0.3,3.3,1.7,6.4,1.8,9.7
			c0.1,3.4,0.8,6.6,1.6,10.1c1.7-3.2,2.8-6.3,2.6-9.9c-0.4-6.2,0.8-11.9,3.7-17.5c1.1-2.2,2-4.7,2.2-7c0.3-4.4,1.7-8.6,1.2-13.1
			c-0.3-2.7,0.8-5.2,1.7-7.8c1.8-5.3,3.4-10.6,5.3-15.8c2.4-6.7,4.9-13.3,7.4-19.9c0.9-2.3,1.3-4.9,3.5-6.5c0.5-3.7,3.1-6.4,4.7-9.5
			c2.4-4.6,5.5-8.7,8.3-13.1c2.5-3.8,5-7.6,8.8-10.3c2.2-1.5,4.3-3.3,5.6-4.3c1.8-4.6,1.7-8.9,5.4-11.4c2.2,0.7,4.6-0.9,6.9,1.2
			c1.1-1.5,2.1-3.1,3.3-4.5c4.3-4.9,8-10.3,11.6-15.7c1.5-2.3,2.9-4.8,2.5-8c-0.4-3.5-0.2-7-0.9-10.6c-0.8-4.4-0.3-9-1-13.6
			c-1.2-6.8,1.1-13.7,0.9-20.6c0-0.3,0.1-0.7,0.3-0.9c1.4-1.2,0.1-3,0.8-4.2c0.8-1.5,1-3,0.9-4.6c0-3.3,0-6.7,0-9.6
			c0.8-1.6,1.5-2.8,1.9-3.7c-0.4-1.3-0.8-2.1-0.9-3c-0.1-2.3,0.1-4.7-0.1-7c-0.2-2.7,0.6-4.9,2.3-7.1c2.2-2.8,4.2-5.9,3.7-10
			c4.4-2.3,5.4-7.8,10.3-9.8c0-1.7,0-3.5,0-5.6c2.5-0.9,5-1.7,7.4-2.7c3.5-1.3,7.4-1.4,10.2-4.3c0.1-0.9,0.3-1.8,0.4-2.7
			c4.7,0.7,7-3,10.8-4.9c1.3,0,3.1,0,5,0c0.6,1.9,2.4,1.2,3.3,0.9c2.9-0.8,5.8-2.1,8.6-3.2c0.1-0.9,0.2-1.6,0.3-2.8
			c2.1,0.4,4-0.3,6.2,0.7c1.5,0.7,3.7,0,5.6-0.2c1.3-0.1,2.9-0.9,3.7-0.4c2.6,1.5,4.8,0.8,7.5-0.4c0.8,1,1.6,1.9,2.4,3
			c2.5,0.8,5.3,1.6,8.1,2.5c0.2-0.8,0.3-1.3,0.4-1.8c0.2-0.1,0.5-0.3,0.8-0.4c3.1-0.5,5.4,1.6,7.9,2.5c3.4,1.2,6.8,3,10.1,4.5
			c2.7,1.2,5.1,3,7.6,4.5c0.8-0.2,1.8-0.5,2.6-0.7c1.8,2.6,3.4,4.9,5,7.1c2.3,0,4.3,0,6.3,0c2.7,4.5,5.7,8.9,7.2,14.7
			c0.3-1.6,0.4-2.5,0.6-3.5c0.8,0,1.6,0,2.4,0c2.5,3.5,5.1,7.2,7.6,10.8c1.4-0.6,1.8-2.6,4.5-1.7c1.8,1.8,4.7,3.8,4.3,7.6
			c1.2-0.4,2-0.8,3.1-1.2c2.7,2.2,4.3,5,5.3,8.2c0.5-0.3,1-0.6,1.6-0.9c0.3,1.7,0.8,3.4,1,5.1c0.2,2,0,4,0,6c0,0.7,0,1.3,0,2
			c-0.5-0.3-1-0.6-1.6-0.9c-1.3,9.6-1.6,8.8-6.6,13.9c1.8,3.4,1,7.1,1.2,10.5c-0.6,0.6-1,1-1.4,1.4c-1.3,0-2.8,0-4.2,0
			c-0.3-0.7-0.6-1.4-1-2.4c-1,0.9-1.7,1.5-2.3,2c0.2,4.1-2.3,6.9-4,10c-2.7,4.7-6.6,8.7-8.1,14.1c-0.7,2.4-1.6,4.7-2.6,7.7
			c-0.5,0.5-1.6,1.6-2.7,2.7c-1.1,0.1-2.2,0.1-3.2,0.2c-1.6,1.6-3,3-3.7,3.7c-1,2.5-1.7,4.2-2.3,5.7c0.2,0.7,0.6,1.4,0.6,2.1
			c0.1,1.3-0.4,3,0.3,3.8c1.3,1.7,1.1,3.8,0.6,5.2c-1.1,2.7-0.5,5.4-0.9,8.1c-0.4,2.9-1.2,5.8-3.6,8.4c-3.3-0.4-6.7-0.8-10.1-1.3
			c-1.5,4.8-2.7,9.3-4.4,13.6c-1.2,3.2-1.6,6.3-2.2,9.6c-0.5,3.1-0.5,6.4-2.6,9.4c-2.4,3.3-4.2,7-6.5,9.3c-1.2,2.8-2,4.8-2.8,6.7
			c0.5,0.2,0.8,0.3,1.1,0.5c0,2.1-1.7,3.8-1,6c-0.5-0.3-1-0.6-1.9-1.1c-2.5,5.5-3.4,11.7-7,16.4c-0.5,3.8-0.9,7.5-1.4,10.9
			c0.7,0.7,1.2,1.2,1.9,1.9c1.9,0,4.1,0,6.3,0c0.4,1.7,1.2,3.3,1,4.7c-0.4,2.2-0.8,4.5-1.7,6.7c-1.2,2.8-2,5.9-2.2,9.1
			c-0.3,4.4,0.7,8.7,1.3,13.3c0.9,0.6,1.9,1.3,2.9,2.1c1.5,1.1,3.3,2,4.6,3.3c3.1,3.5,7.1,6,10,9.7c3.6,4.6,6.1,9.4,7.3,15
			c1,4.7,2.5,9.3,3.5,14c1,4.8,3.6,9.3,2.1,15c-1.3,1.7-3,3.8-4.7,5.9c-143,0-286,0-429,0c-0.9-1.1-1.8-2.2-2.3-2.8
			c-1.7-0.3-2.9-0.1-3.5-0.6c-1.6-1.3-3.2-2.4-5.4-2.7c-0.9-0.1-1.6-1.7-2.5-2.8c-2.8-1.1-5.4-2.7-6.7-6c-2.6-0.7-5.3-1.5-8.2-2.3
			c-1.4-1.3-2.9-2.8-4.6-4.4c-0.4-3-0.8-6-1.2-9.2c-1.1-1.1-2.2-2.8-3.7-3.6c-4.8-2.4-8.1-6.4-11.8-9.9c0-2.2,0-4.3,0-6.5
			c1.1-0.7,2-1.4,3-2c-6.2-8-13.3-12.6-21.1-13.4c0-2.1,0-4.2,0-6.3c1.2-1.2,2.4-2.3,3.5-3.6c0.4-0.4,0.3-1.2,0.4-1.8
			c1.7,0,3.4-0.1,5-0.1c0-0.9,0-1.4,0-1.9c2.2-0.3,4.4-0.8,6.6-1c2.5-0.2,5,0,7.5,0c7,0,14,0,20.9,0c0.1,0.3,0.2,0.6,0.6,1.4
			c3.1-8.7,5.1-17.2,7.8-25.3c1.2,0,2.3,0,3.2,0c1.2,1.2,2.1,2.5,3.4,3.3c5.2,3.4,9.7,7.6,14,12c2.8,2.9,5.7,5.6,8.4,8.5
			c0.8,0.8,1.5,1.2,2.6,1c4.3,3.4,8.1,7.3,11.1,12.1c1.4,2.3,3.8,4,5.8,5.9c0.6,0.5,1.7,0.7,1.9,1.3c0.9,2.6,3.2,3.7,4.6,5.6
			c1.3-2.1,3.1-3.8,3.5-5.8c0.4-2.1,1.4-3.9,2.4-5.5c1.1-1.9,0.9-4,1.6-5.8c0.5-1.6,2.5-2.3,2.2-4.1c-0.3-2,1-3.2,1.7-4.8
			c0.6-1.6,1.6-3,1.4-4.9c-0.1-1,0.7-2,0.9-3.1c0.3-1.2,0.4-2.4,0.6-3.8c-0.4-1-1-2.2-1.5-3.5c-1.7-3.9-5.4-5.6-8.8-7.5
			c-2.9-1.6-6.2-2.6-9.3-4.1c-7.6-3.7-15.4-7.1-23.1-10.6c-8.6-3.9-17.1-8.2-25-12c-3.5,1.3-6.6,2.4-9.6,3.6c-3.2,1.2-6.6,1.8-9.3,4
			c-0.6,0.1-1.4,0-1.8,0.4c-4,3.2-7.9,6.5-11.9,9.8c-2,1.6-3.9,3.2-6,4.8c-2.4,1.8-5.1,3.3-7.1,5.5c-1.1,1.2-1.7,2.9-3.5,3.5
			c-1.7,0.6-2.1,3-4.2,3c-2.5,2.9-6.1,3.6-9.4,5c-6.5,2.7-11.8,6.7-15.1,13c-1.7,4.4-4,8.7-4,13.6c2.5,1.2,4.8,2.3,7.2,3.4
			c1.3,0.6,2.1,1.5,1.8,3c-3,3.2-4.9,7.1-6.9,10.8c-1.8,3.4-2.6,7.3-4.4,10.6c-2,3.8-4.4,7.5-6.8,11.2c-2.1,3.2-4.5,6.5-5.7,10.1
			c-0.8,2.4-2.2,4.4-2.9,6.6c-0.5,3-0.9,5.8-1.3,8.7c-75.3,0-150.7,0-226,0c-0.6-2.7,0.9-5,1-7.6c0.1-3.3-0.2-6.7,0.1-10
			c0.2-3.2-0.7-6.4,0.6-9.7c1.1-2.9,0.3-6.3,1.2-9.5c1-4,0.8-8.3,1.2-12.5c0-0.3-0.1-0.8,0-1c1.6-1.7,0.7-3.7,1-5.6
			c0.3-1.9,0.8-3.7,1-5.6c0.4-4.4,0.7-8.7,1-13.1c0-0.3,0-0.7,0.1-1c1.5-3.7,2.5-7.7,3.5-11.5c1.2-4.5,2.4-9,3.4-13.6
			c0.8-3.7,1-7.6,2.3-11c3.6-9.5,5.7-19.6,10.5-28.6c0-2.7,2.5-4.4,3-6.7c1.4-5.9,4.9-11,6.6-16.8c2-6.8,5-13.2,7.3-19.2
			c-0.4-2.6-0.7-4.6-1-6.3c5.4-5.8,10.5-11.2,15.6-16.6c0.3-0.4,0.8-0.7,1-1.1c0.4-0.6,0.7-1.4,1-2c1.7,0,3.4,0,5,0
			c1.6,1.1,3.2,2.1,4.6,3.1c4.2-2,7.1-5.2,9.6-8.5c2.4-3.1,3.6-7.1,5-10.1c-0.7-5.2-1.3-9.7-1.9-14.3c-1-0.2-1.9-0.3-2.7-0.4
			c-0.8-4.8,0.6-9,2.9-12.8c-0.6-1.1-1.1-2-1.7-3c-1,0-2,0-3,0c-0.1,0-0.2-0.2-0.5-0.5c0.6-5.2-1-10.6,0.9-15.4
			c-0.4-1.3-0.8-2.2-0.8-3.1c-0.1-5.5,0.1-11-0.1-16.5c-0.1-3.4,0.8-6.6,1.7-9.8c0.5-1.8,0.5-3.8,1.5-5.4c1.3-2,3-3.8,4.5-5.6
			c0.2-0.2,0.2-0.6,0.3-1.1c-0.7-0.8-1.4-1.6-2-2.2c-0.3-3.1,1-5.3,3.1-7c2-1.7,4.1-3.1,5.9-4.6c0-2.4,0-4.4,0-7.2
			c0.6-0.6,1.6-1.6,2.5-2.5c-0.2-0.7-0.4-1.6-0.7-2.6c1.1-0.9,1.9-2,3-2.5c5.2-2.5,10-5.7,13-9.4c1.8-0.8,2.7-1.1,3.5-1.5
			c1.6-0.9,1.6-2.7,2-4.2c3.6,0.4,3.6-4.3,6.7-4.3C717,452.5,717,452,717,451.5z M1297,705.5c0,0.6,0,1.2,0,1.7
			c-0.9,0.3-1.5,0.5-1.8,0.6c0.5,1.3,0.9,2.4,1.4,3.9c0.6-1.5,1.4-2.7,1.3-3.8c-0.1-2.3,0.6-4.3,1.1-6.4c0-0.3,0-0.7,0-1
			c2.1-0.2,4.1,0.1,5.9,1.4c1.2,0.9,2.4,1.7,3.8,2.7c1.3-4.6,5.8-8.6,1.3-13.6c0-1.9-0.2-3.9,0-5.9c0.2-2,0.7-4,1.2-6.1
			c0.6-0.9,1.3-1.9,2.1-2.9c-1.7-0.6-3-1.1-4.3-1.6c-3-0.9-3.6-3.9-3.8-6.1c-0.4-4.6-0.8-9.4,1.2-13.9c0.5-1.1,0.5-2.4,0.8-3.4
			c-3.2-1.9-6-3.7-8.7-5.3c-2.5,4.7-6.2,8.5-9.6,12.5c0.2,0.7,0.1,1.6,0.5,1.9c1.7,1.4,2.3,3.4,3.1,5.3c1,2.4,2.4,4.9,1.4,7.7
			c-1,2.7-1.4,5.7-3.3,8.1c-0.8,0.1-1.7,0.3-2.6,0.4c2.6,8.2,5,15.9,7.5,23.7C1296,705.5,1296.5,705.5,1297,705.5z M1344.8,634.9
			c1.3,0.9,2.5,1.7,3.8,2.6c0.5-0.5,1-1,1.3-1.3c0-1.3,0-2.4,0-3.7C1348,632.7,1346,631.8,1344.8,634.9z M1339.1,769.3
			c2.2,0,4,0,6.6,0c-2.5-1.9-4.4-3.3-6.6-4.9C1339.1,766.2,1339.1,767.7,1339.1,769.3z M1318.3,665c-0.3-0.2-0.5-0.3-0.8-0.5
			c-0.5,0.5-0.9,0.9-1.5,1.5c0.1,1.1,0.1,2.3,0.2,3.5c0.2,0,0.4,0,0.5,0C1317.3,668,1317.8,666.5,1318.3,665z M992.3,514.1
			c-0.1,2.2-2.4,3.4-0.7,5.4C992.1,517.8,993.9,516.6,992.3,514.1z M1342.2,780.7c1.5,0.7,3.1,1.1,4.7,0
			C1345.3,780.7,1343.8,780.7,1342.2,780.7z M1343.9,795.7c-0.3,0-0.6,0-0.9,0.1c0.1,0.9,0.2,1.8,0.4,2.6c0.2,0,0.3,0,0.5,0
			C1343.9,797.4,1343.9,796.6,1343.9,795.7z M883.7,681.5c-0.1,0-0.2,0-0.3,0c0,0.3,0,0.7,0,1c0.1,0,0.2,0,0.3,0
			C883.7,682.2,883.7,681.8,883.7,681.5z"/>
		<path fill="#2C3033" d="M219.1,469.6c-0.5-0.9-0.8-1.7-1.3-2.7c5.3-1.5,9.2,1.3,12.8,3.9c2.3,1.6,4.4,3.8,5.4,6.7
			c0.3,0.9,1,1.6,1.7,2.3c2.5,2.4,4.3,5.5,7.4,7.1c-0.6,2.7,0.7,5.2-1.1,7.5c-0.3,0.4-0.1,1.3,0.1,1.9c0.2,0.7,0.7,1.4,0.8,2.2
			c0.1,0.8,0,1.7,0,2.7c-2.3,2.2-4.3,5-7.9,5.7c3.6,4.6,3.8,6.2,0.8,9c-2.1-2.4-4.1-4.8-6.6-7.8c-0.1,1.8-0.2,3-0.3,4.3
			c-0.1,1.8-0.4,3.5-0.5,5.3c0,1.6,0.2,3.3,0.5,4.9c0.3,1.9,0.7,3.7,1,5.6c0.3,1.7-0.8,3.6,1,5.1c0.2,0.2,0.2,1.2,0,1.4
			c-2.1,2.2,0.2,5.5-1.9,7.7c-0.3,0.4-0.2,1.3,0,2c1,4.2,1.2,8.7,4.3,12.2c1.3,1.5,1.8,3.5,2.7,5.4c0.9,1.8,1.7,3.6,3,6.4
			c0,0.9,0,2.9,0,4.7c-2.7,3.9-6.6,3.8-10.1,3.6c-1.2,0.6-2,1-3,1.5c0.4,1.6,0.3,3.7,1.2,4.9c1.3,1.8,0.6,3.4,0.8,4.9
			c-0.9,1-1.7,1.9-2.4,2.6c-3,0.6-5.6-2.3-8.7-0.4c2.6,0.6,5,1.1,7.8,1.7c0.6,0.6,1.6,1.5,2.8,2.6c-2.3,5.2-7.8,8.1-9.4,15.3
			c0.3,4.3,0.8,10.3,1.2,15.2c-2.4,6.4-7.1,7.1-11.9,7.6c-5.4,0.6-10.7-1.2-16.1-1.2c-1.6,0-3.3-1-5.1-0.9c-1.6,0.1-3.3,0-4.8,0
			c-0.8,4.4-1.5,8.6-2.9,12.7c5.2,2.8,9.7,7.8,16.7,8.5c-0.8,2.5-1.6,4.8-2.6,7.8c-2.7,2.7-6.6,5.7-6.5,11
			c-2.7,4.6,0.3,9.1,0.1,13.7c0.6,0.4,1.3,0.8,1.9,1.3c0.6,4.5,2.3,8.7,3.5,13c0.5,1.6,1.8,3.6,1.3,4.8c-1.7,4.5-0.5,9.1-0.8,13.6
			c-0.5,6.3-0.7,12.7-1,19c0,0.5-0.1,1-0.3,1.3c-1.2,1.3-0.5,2.7-0.5,4.2c1.5,0.8,2.9,1.5,4.4,2.4c1.1-3,2-5.7,3.1-8.5
			c1-2.6-0.5-5.5,1.3-8c0.4-0.6,0.1-1.6,0.1-2.5c0-3.9-0.3-7.8,1-11.6c1.8-5.3,0.9-7.9,6.8-13.2c1.1-1,2-2.4,3.2-3.8
			c0.5,0.3,1.1,0.6,1.7,0.9c0.1-0.3,0.2-0.6,0.4-0.9c5.3-2.7,9.1-7,12-12.1c2.2-3.8,5-6.7,9.5-7.9c2.8,3.5,1,7.8,1.7,11.7
			c1.2-1.3,2.7-2.4,3.4-3.9c0.9-1.9,2.4-3,3.6-4.5c1.2-1.5,2.3-3.1,3.5-4.5c1.3-1.5,2.7-2.9,4.2-4.2c1.4-1.2,3-2.3,4.8-3.6
			c2.3-0.7,4.2,1.2,6.3,2c0.3,5-2,9.3-4.7,12.9c-3.5,4.7-6.6,9.6-10,14.4c-0.4,0.6-0.2,1.5-0.3,2.2c3.9,1.6,5.7,4.5,6.3,8.3
			c1.6,0.4,3.6-0.5,4.8,2.2c-0.2,1.9-0.5,4.6-0.8,7.8c0.3,0.5,0.9,1.6,1.7,2.9c0,1,0.1,2.3,0,3.6c-0.2,1.4-0.7,2.7-1,4.1
			c-1.5,6.7-4.1,14-13,16.9c0,1.1,0.1,2.2,0,3.4c-0.2,2.7-1.1,5.3-2.7,7.3c-3.1,3.7-6.8,6.8-11.2,8.9c-1.8,0.9-3.5,2.1-5.6,3.3
			c2.3,1.2,4.2,2.2,6.4,3.4c0,1,0,2.5,0,3.8c-1.6,2.1-3.5,3.8-4,6.1c-1,0.7-1.6,1.4-2.3,2.2c0.6,1.5,1.2,2.8,2.2,5.2
			c0-3,0-5,0.1-7.4c2,0.4,4,0.4,6.3,0.4c0-2.9,0-5.5,0-8c1,0,1.7,0,2.9,0c0.3,0.5,0.8,1.3,1.1,1.9c1.1-1.4,2-2.5,2.9-3.6
			c1.3-1.5,2.7-2.8,3.8-4.4c4-5.7,7.1-12.1,11-18c3.1-4.8,6.7-8.8,12.2-10.7c1.9-0.6,3.2-1.7,3.9-3.8c0.6-1.9,1.9-3.5,2.9-5.3
			c0.2-0.4,0.3-0.9,0.4-1.3c1.1,0,2.1,0,3.1,0c2.1-5.1,2.8-10.5,2.5-16c-0.2-4.5,0-9,0-13.5c0-3.4,1.1-6.5,3.2-9.2
			c2.2-2.9,4.5-5.8,6.7-8.7c1.1-1.4,2.1-2.7,2.1-4.6c0.5,0,1,0,1.7,0c2.3-6.3,4.1-12.9,9-18.3c2.2,1.4,3.9,3,4.8,5.3
			c0.5,0,1,0,1.5,0c0,2.5,0.6,5.1-0.1,7.4c-1.2,3.5-1.7,7.1-2.9,10.6c-2.1,1.6-2.4,3.7-1.8,5.8c2.1,0,3.9,0,5.4,0
			c0.5-0.5,0.9-0.9,1.3-1.3c0-2.2,0-4.4,0-6.7c0-0.3-0.6-0.5-1-0.8c0.5-2.6,1.4-3.5,4-4c-0.4,2.9,2.2,2.8,4.1,4.3
			c-0.6-2.5-1.1-4.4-1.6-6.3c0,0-0.3,0-0.5,0c0-1.6-0.1-3.3,0-4.9c0.1-1,0.6-2,1-3c0.3-1,0.7-2,1-3c0.5,0,1,0,1.5,0
			c2.6,4.5,5.2,9.1,7.9,13.7c4.4-1.5,6.8-5.7,10.5-8.4c3.3-2.4,6.7-4.1,10.4-5.2c2.7-0.8,5.2-2.5,8.1-2c0.9,0.1,1.7,0.7,2.5,1
			c0,1.7,0,3.2,0,4.2c-3.7,3.1-7.6,5.6-10.5,9c-3.8,4.3-7.8,8.4-11.7,12.6c-1.8,2-3.1,4.3-4.7,6.7c-0.1,3.5,0.4,7.3-1,10.8
			c-0.6,1.4-1.7,2.7-2.8,4.3c-0.8,7-3.5,13.8-8.7,19.4c-1,1.1-1.7,2.6-2.5,3.9c-2.1,0.2-0.2,2.4-1.5,3c-0.5,0-1,0-1.5,0
			c-1.5,0.1-0.8,1.2-1,2c-0.5,0-1,0-1.2,0c-3.1,3.9-6.1,7.6-9.1,11.3c2.3,1.3,4.3,2.5,6.3,3.7c1.6,0,3.3-0.2,4.2,2.5
			c-2.6,5.3-6.2,10.3-10.3,15.4c0.6,5-0.5,9.9-3,14.4c-0.8,1.4-2.4,2.4-3.9,3.8c0,0,0,0.5,0,1c-3.2,2.1-4.8,5.5-5.8,8.7
			c-1.9,5.7-4.7,11-7.2,16.3c-83.3,0-166.7,0-250,0c0-4-0.1-8,0-12c0.2-4,0.6-8.1,1-12.1c0-0.5-0.2-1.2,0.1-1.4
			c2.2-2,0.4-4.9,1.7-7.4c1.1-2.1,0.3-5.3,1.1-8c0.6-2.1,0.2-4.4,1-6.6c0.7-2-0.4-4.5,1.1-6.5c-0.1-5.3,1.1-10.5,2.1-15.7
			c0.5-2.9,0.5-5.8,1.1-8.5c0.4-1.7,0.6-3.4,0.8-5.1c0.2-1.7,0.7-3.4,1-5.1c0.4-2.7,0.2-5.6,1.1-8c1.4-3.8,2.1-7.7,3.8-11.4
			c1.7-3.8,2.7-7.9,4.9-11.5c0.6-1,0.8-2.3,1.2-3.5c1.5-4.1,2.8-8.2,4.5-12.1c4.5-10.2,10.8-19.3,18.4-27.4c2.7-2.8,5.6-5.4,8.8-7.8
			c3.1-2.3,6.2-4.8,10.2-5.1c0.7-2.2,1.5-4.1,1.8-6c0.4-2.2,0.4-4.5,0.6-7.1c2.3,0.4,4.3,0.8,6.5,1.2c1.2-3,2.4-6.1,3.7-9.5
			c-1-0.7-1.8-1.3-2.6-2c0-2.2,0-4.3,0-6.4c-0.9,0-1.6,0-2.5,0c-0.4-1.2-0.8-2.6-1.3-3.9c-0.5-1.1-1-2.3-1.7-3.3
			c-1.1-1.6-2.4-3-3.5-4.6c-2-2.8-3.4-6-3.7-9.4c-0.3-4.3-1.7-8.2-3.7-12c-1.4-2.6-2.9-5.1-4.3-7.7c-0.2-0.4-0.3-0.8-0.3-0.9
			c-1.1,0.3-1.9,0.6-3,1c-0.9-1-2.5-1.9-2.6-2.9c-0.3-3.4-1.9-6.2-3.2-9.2c-1.1-2.6-1.1-5.5-2.2-7.7c-1.1-0.6-1.9-1.1-2.6-1.6
			c-0.7-8.1-0.5-12,0.8-14.9c-1.9-3-0.6-6.4-0.9-8.5c1.8-4.7,3.5-8.4,6.5-10.6c-0.3-1.3-0.9-2.6-0.6-3c1.4-1.6,0.8-3.4,0.9-5.2
			c0.1-1.7,0.1-3.3,0-5c-0.1-2,0.6-3.7,2-5.2c2.3-2.5,4.8-4.6,8-6c3.4-1.5,5.8-3.9,6-7.9c0-0.7,0.6-1.4,1-2.1c0.5-0.8,0.9-1.6,1-1.7
			c4.5-4,9.4-2.3,14.3-3c-0.5-1-0.9-1.7-1.4-2.6c0.1-2.5-0.6-5.5,0.9-7.4c2.1-1.1,3.5-1.8,5.4-2.8c3,0.3,6.8-0.6,10.6,0.6
			c0.9-0.3,2.1-0.7,3.2-1c0-0.9,0-1.7,0-2.6c3.1,0.5,6.2,1,9.5,1.5c0.4-0.8,2.6,0.2,2.6-2c0-0.5,1.4-1.2,2.3-1.4c3-0.5,6-1.1,9-1
			c3,0.1,6.2-1.3,9.1,0.9c0.2,0.2,0.6,0,1,0c1.7,0,3.9-0.7,4.9,0.2c1.5,1.3,3.3,0.2,4.5,1.2c0.1,0.5,0.2,1,0.4,1.5
			c2.5,0.6,4.7,0,6.8-1.3c0-0.7,0-1.3,0-2c0.3-0.2,0.5-0.4,0.8-0.5c0.5-0.1,1,0.1,1.5,0c1.8-0.4,3.6-1.5,5.6-0.9
			c1.7,0.5,3.4,1.5,5,2.3c2.4,1.2,5,1.9,7.8,1.6c0.6,0.9,1.1,1.6,1.8,2.8c-1.7,0.2-2.9,0.3-3.7,0.3c0.5,0.5,1.3,1.3,2,2
			c-0.1,0.1-0.3,0.2-0.4,0.3c1.8,0.9,3.5,2.2,5.4,2.5c1.8,0.3,3.7-0.5,5.4-0.8c1,1,1.9,2.7,2.8,2.8
			C217.7,467.5,216.6,471,219.1,469.6c1.2,1,1.2,1,2.9,0.1C220.9,469.6,219.9,469.6,219.1,469.6z M239.1,502.3c0-0.3,0-0.6,0-0.9
			c-0.7,0.1-1.3,0.3-2,0.4c0,0.2,0.1,0.4,0.1,0.6c0.6-0.1,1.3-0.1,3-3.4c-0.8,0.7-1.1,0.9-1.1,1c0.1,0.5,0.3,0.9,0.4,1.4
			C239.7,500.9,239.8,500.3,239.1,502.3z M191.5,459.7c-0.7-0.8-0.9-1.2-1.1-1.1c-0.5,0.1-0.9,0.3-1.4,0.4c0.6,0.2,1.2,0.3,0-0.6
			c0-0.5-0.1-1.1-0.2-2.1c-0.8,0.3-1.3,0.5-1.8,0.6c-0.6,0.2-1.1,0.4-1.7,0.5c-0.4,0.1-0.8,0.3-1.2,0.4c0.1,0.2,0.1,0.3,0.2,0.5
			C185.9,458.4,187.5,458.4,191.5,459.7z M231,699.4c-2.6,2-4.8,3.7-7,5.4c0.9,1.2,1.8,2.4,2.9,3.9C228,705.3,231.1,703.3,231,699.4
			z M125.4,464.7c-1.6,0-2.7,0-4.1,0c-0.1,1.3-2.9,1.4-2,3.8C121.2,467.3,123.1,466.1,125.4,464.7z M246.7,698.5c-0.1,0-0.2,0-0.3,0
			c0,0.3,0,0.7,0,1c0.1,0,0.2,0,0.3,0C246.7,699.2,246.7,698.8,246.7,698.5z M304,770.2c0-0.1,0-0.2,0-0.3c-0.3,0-0.7,0-1,0
			c0,0.1,0,0.2,0,0.3C303.4,770.2,303.7,770.2,304,770.2z"/>
		<path fill="#2C3033" d="M419,638.5c0-0.6,0-1.2,0-2c-1.5,0-2.8,0-4,0c-0.1-1,0-2-0.4-2.8c-2.3-4.4-3.3-9.1-3.9-14.1
			c-3.2-2.1-6.4-4.3-9.9-6.6c0-1.7,0-3.5,0-5c-1.5-0.6-2.8-1.1-4.1-1.7c0-3.5,0-6.6,0-9.8c-1.7,0-3.2-0.1-4.7,0
			c-3.4,0.4-6-1-8.1-3.6c0-2.2-0.5-4.7,0.1-6.8c1-3.1,1.4-6.4,3.1-9.2c1.7-2.8,2.3-6.1,3.6-9c1.9-4,4.1-8.3,3-13.2
			c-1.5-1.3-3.1-2.6-4.6-3.9c-1.7-2.8-2.5-5.8-2.3-9.1c0-0.6,0-1.3-0.2-1.9c-0.9-2.5-1.6-5-1.8-7.8c-0.2-2.7-1.2-5.3-1-8.1
			c0.2-2.5,0.1-5,0-7.5c0-0.3-0.3-0.6-0.4-0.8c-0.8-0.1-1.6-0.1-2.8-0.3c0.7-2.8,1.4-5.5,2-7.9c-1.7-2.6-3.3-5.1-4.7-7.2
			c0-2.8,0-5.1,0-7.3c1.9-1.3,1.9-1.3,4.9-0.9c0.2,1.8-0.3,3.7,0.9,5.4c0-3.1,0-6.2,0-8.8c1.7-3.1,3.1-5.6,4.3-8c1.1,0,1.8,0,3.1,0
			c0.2,0.4,0.7,1.3,0.9,1.7c1.5-1.7,2.5-3.6,4.1-4.4c2.3-1.2,4.4-3.2,7.1-2.4c1.1-1.9,2-3.5,3-5.2c1.6,0.3,3,0.5,4.6,0.8
			c1-1,2.3-2.3,3.5-3.6c1.7,0,3.4,0,4.9,0c3.9-3.9,9.7-4.6,13.6-8.8c0-0.2,0-0.7,0-1.2c1.8,0,3.7,0,5.8,0c0.5,0.5,1.2,1.2,2,2
			c1.7-0.7,3.5-1.5,5.5-2.4c0.5,1,0.8,1.6,1.2,2.3c0.5-0.4,1-0.7,1.8-1.3c0.9,1.2,1.7,2.3,2.6,3.6c0.7-0.6,1.4-1.1,2.2-1.7
			c-0.4-0.4-0.7-0.8-1-1.2c0.4-1.4,0.9-2.7,1.4-4.2c0.9,0,2,0,3.4,0c0.5,0.8,1.2,1.8,2,3c5-2.1,10.3-0.8,15.6-1.2
			c0.9,1.1,1.9,2.2,2.5,2.9c3.3,0.5,6,0.7,8.7,1.2c0.9,0.2,1.7,0.8,2.4,1.4c1.9,1.7,2.6,1.7,4.5,1.7c2-0.1,4.3-1.1,6,0.8
			c0.5-0.4,1-0.7,1.8-1.3c1.3,1.8,3.4,2.6,3.9,5c2.5,1,4.8,2.9,8,2.5c0.9-0.1,2,1.1,2.9,1.8c0.7,0.5,1.3,1.1,2,1.7
			c0,0.5,0,1.2,0,2.2c0.8,0.1,1.5,0.1,2.8,0.3c1.3,1.7,2.9,3.7,4.5,5.8c-0.9,1-1.6,1.8-2.3,2.7c3.1,0.5,3.1,0.5,5.1,2.3
			c-0.3,0.5-0.6,1-1.1,1.8c1.2,0.1,2.4,0.3,3.8,0.4c0,1.1,0,2.2,0,3.2c2.8,1,4.1,3.4,6.1,5c-0.1,1.4,0.7,3-0.8,4
			c1.5,3.1,4.6,5.9,1.8,9.7c1.5,2,3.3,3.7,3.1,6.5c-0.6,0.2-1.1,0.4-1.7,0.6c0.2,1,0.4,2,0.7,3c0.3,1,0.9,2.1,0.9,3.1
			s-0.6,2.1-1,3.2c1.1,2.8,2.2,5.6,3.5,8.7c-1.2,0.9-2.1,1.6-3.2,2.4c-0.4,2.2-1.1,4.7-1.1,7.2c0,2.5,0.8,5,1.3,7.6
			c-0.9,0.3-1.5,0.5-2,0.7c0.3,1.5,0.5,2.9,0.8,4.4c-0.8,0.3-1.4,0.5-2.1,0.8c0,1.4,0,2.8,0,4.4c-0.6,0.1-1,0.2-1.7,0.4
			c-1,3.9-1.5,8.2-4.4,11.7c-0.3,3.8-0.1,7.8-0.8,11.8c-0.6,3.8-1.1,7.7-1.4,11.7c-0.8,1.6-1.8,3.4-3.1,5.8
			c0.4,3.3,0.8,7.3,1.2,11.1c0.7,1.2,1.4,2.3,2.1,3.5c2.8,0,5.6,0,7.7,0c1.3,0.7,2,1,2.9,1.5c0,0,0.2,0.3,0.3,0.6
			c1.6,3.5,3.4,6.9,4.8,10.5c1.2,3.1,3.5,5.6,5.1,8.4c2.9,4.9,5.5,10,8,15.2c2.8,5.8,5.7,11.6,7.4,17.9c1,3.6,1.8,7.2,2.7,10.9
			c1.5,6.2,2.4,12.5,4.7,18.5c0.3,0.9,0.4,1.8,0.6,2.8c0.7-0.4,1.2-0.7,1.7-1c0.2,1.6-0.7,3.3,1,4.6c0.3,4.1,2.6,7.6,3.2,11.7
			c0.5,3.2,1.3,6.4,1.9,9.7c1,5.1,3,10.1,4.4,15.1c0.5,1.8,1.2,3.5,1.5,5.4c0.6,3.6,1.4,7.1,2.1,10.6c0.5,2.4-0.1,5.1,0.9,7.1
			c1.3,2.6,0.8,5.1,0.8,7.7c0,9.2,0.6,18.4-0.9,27.6c-0.2,1.5,0.1,3-0.1,4.5c-0.2,1.4-0.6,2.7-1,4.1c-86.7,0-173.3,0-260,0
			c0-2,0.1-4,0-6c-0.1-1.9,0.9-3.7,1.2-5.5c0.4-2,0.2-4.2,1-6c3-7,4.2-14.6,6.7-21.7c1.7-4.7,2.7-9.6,4.1-14.3c0.8-2.8,2-5.5,3-8.3
			c2.1-6,4.1-11.9,6.3-17.9c0.4-1,1.1-1.9,1.5-2.6c1.9-0.8,3.9-1.2,5.3-2.3c3.3-2.6,6.4-5.5,9.5-8.4c2.4-2.3,5-4.5,7-7.1
			c2-2.6,5.6-3.3,6.7-6.6c4.8-2.5,7.8-7,11.5-10.6c3.5-3.4,7.6-5.8,12-7.4c4.5-1.6,9-3.2,13.7-4.3c4.7-1.1,9.5-1.9,14.3-2.8
			c4.5-0.8,8.8-2.1,13.2-3.2c2.2-0.5,4.7-1.4,6.2-2.9c3-2.9,4.5-6.7,3.3-11.5c-2.5,1.5-4.1,3.1-5,5.3c-1.2,0-2.3,0-3.6,0
			c0-0.8,0.2-1.6,0-2.1c-2.7-5.1-0.1-9.6,1.9-13.9c1.9-4,4.9-7.6,8.3-10.6c0.4-0.4,0.7-1,1-1.5c-2.1-2-3.9-3.9-5.6-5.6
			c-1.7-0.4-3.6-1.5-4.7-1c-1.9,0.9-3.8,0.4-5.6,0.9c-2.6,0.7-5.2,0.8-7.7,1.8c-2.2,0.8-4.5,1.5-7,1.2
			C424.7,638.3,421.9,638.5,419,638.5z M391,739.5c-1,0.5-2.1,1-3.4,1.7c0.7,0.9,1.3,1.6,1.8,2.2c0.6-0.3,1.1-0.6,1.6-0.9
			c0.4,0.5,0.6,1.2,1.1,1.5c3.3,2,6.5,4.1,10.2,5.5c0.3,0.1,0.5,0.4,0.7,0.5c0,1.3,0,2.7,0,3.8c-1.4,2.5-3,4.7-3.8,7.1
			c-1,3.1-1.8,6.1-0.4,9.6c1.1,2.7,2.8,5.1,3.7,8.8c0.4-1.9,0.6-2.9,0.8-3.8c1.3,0,2.3,0,2.9,0c2.3,1.8,4.3,3.3,6.4,5
			c2.6-6.5,5.7-12.7,10-18.3c1.3-1.6,2.3-4,2.2-6c0-4.6,0.5-9,1.1-13.5c0.1-1.1,0.3-2.2,0.5-3.3c0.5-2.9,1.1-5.8,1.6-8.8
			c-1.4,0.3-2.5,0.8-3.4,0.7c-5-0.4-10.1,1.1-15.1-0.9c-0.4-0.2-1-0.2-1.5,0c-3.9,1.4-8.2,1.9-11.3,5.4
			C395.5,737.7,393.5,739.2,391,739.5z M427.1,718.3c2.3,0,3.5,0,5,0c0.3-0.9,0.6-1.8,1.2-3.6C430.9,716.1,429.5,717,427.1,718.3z"
			/>
		<path fill="#2C3033" d="M1506,480.5c1.9-0.3,3.7-0.7,5.6-1c1.7-0.2,3.5,0.4,5.1-0.9c0.6-0.5,2-0.2,2.9-0.1
			c5.3,0.7,10.1-1.3,15-2.4c1.8-0.4,3.4-0.2,5.2-0.7c0.1,1.5,0.1,2.6,0.2,4.2c4.5-0.7,8.8-3.2,13.7-1.8c0.1,0.2,0.2,0.7,0.4,1.6
			c1.9,0.5,4.2,1,6.6,1.6c-0.1,0.2-0.4,0.5-0.6,0.9c0.1,0.2,0.1,0.6,0.3,0.6c0.5,0.1,1,0,2,0c0.8-0.8,2-1.9,2.8-2.8
			c2.2,0.4,4.1,0.7,6.5,1.2c2.2,1.8,4.9,4.1,7.7,6.5c3.9,0.3,7.7,1.5,11.6,3.7c-0.4,1.2-0.8,2.5-1.2,3.7c4.3,3.7,10.8,5.1,12.2,12.1
			c-1,0.7-2,1.4-2.8,2c2.4,2.2,5,4.6,7.8,7.2c-0.4,1.2-0.8,2.3-1.1,3.1c1.4,1.4,2.8,2.8,3.8,3.7c0,1.6,0,2.3,0,3.3
			c-0.9,0.7-2,1.6-2.9,2.3c0,3.1,0,5.8,0,8.7c2.1,0,4.2,0,6.4,0c0.8,1,1.6,1.9,2.5,3c0,0.7,0,1.9,0,2.9c-0.7,0.2-1.3,0.5-2,0.7
			c1.3,1.2,2,2.3,2.3,4.1c0.3,2.6,2.3,4.6,3.2,7.1c1.1,2.9,1.9,5.7,1.6,9c-0.5,0.2-1.1,0.4-1.8,0.6c0,1.7,0,3.5,0,5.3
			c-0.7,0.3-1.3,0.5-2.1,0.7c0,1.1-0.4,2.4,0.1,3.2c1.6,2.5,1,5.2,0.6,7.6c-0.3,1.5-0.2,3.3-0.9,4.6c-1.3,2.6-0.6,5.4-1,7.9
			c-1.3,0.4-2.5,0.8-3.7,1.2c0,4.4,0,8.6,0,12c-0.7,1.3-1,2-1.6,3.1c-0.9,0-2.1,0-2.8,0c-3.2,4-6,7.5-8.7,11c-1.5,0-2.6,0-3.8,0
			c-0.2-0.5-0.4-1.1-0.6-1.7c-0.2,0.1-0.5,0.2-0.7,0.4c-0.3,0.2-0.4,0.5-0.7,0.7c-2.8,1.8-4,3.2-5.5,6.5c-0.9,2-2.1,3.8-2.7,5.9
			c-0.6,2.1-0.7,4.4-1.1,6.6c-0.6,2.9-2.1,5.8,0,8.7c-0.4,3.3,0.6,6.3,2,9.2c1.3,2.6,2.5,5.4,4.3,7.7c2.9,3.7,4.5,8.2,7,12.1
			c4.1,6.7,7.6,13.8,11,20.9c4.1,8.7,7.9,17.4,10.8,26.5c1,3.2,1.7,6.6,3.1,9.7c1.1,2.5,1.2,5.2,1.8,7.7c0.8,3.4,1.7,6.9,1.2,10.5
			c0,0.2,0.6,0.5,1,0.8c0,13,0,26,0,39c-1.3,0-1,1-1,1.8c0,6.4,0,12.8,0,19.2c-66.7,0-133.3,0-200,0c-0.4-4,0.7-8.1-0.9-12.1
			c-0.8-2,0-4.3-0.9-6.6c-0.8-2-0.8-4.6-1.1-7c-0.7-4.8-2.3-9.4-3.4-14.1c-0.7-2.9-2-5.7-1.7-8.8c1.9-1.7,3.4-3.9,5.7-4.9
			c-0.3-0.7-0.5-1.1-0.7-1.5c-0.4-1,0.9-2.5-1-3c0.1-4.4-1.8-8.1-3.5-12c-1.3-2.9-2.7-5.8-4.4-9.4c-2.5-2.8-5.6-6.2-8.5-9.6
			c-0.7-0.8-1.5-1.2-2.6-1c-4-5.3-9.3-9.2-15-12.7c0-0.9,0-2.1,0-3.3c-2-3.8-4.5-7.5-5.8-11.5c-1.2-3.8-3.2-7-4.8-10.5
			c-1.6-3.5-3.9-6.7-5.9-10c-2-3.3-4.6-6.4-4.4-10.6c0-0.4,0.2-0.9,0.4-1.3c1.5,0,2.8,0,3.8,0c3,1.5,5.3,3.4,6.8,6.2
			c1.4,2.6,3.1,5.1,4.6,7.4c0.5-2.2,1.1-4.4,1.6-6.6c1,0,1.7,0,2.2,0c1.3,1.2,2.5,2.4,3.5,3.3c0.6,2.4,1.1,4.5,1.6,6.8
			c0.4-0.8,0.7-1.5,1-2.1c1.1,0,2.1,0,3.1,0c0.8,0.8,1.6,1.6,2.6,2.6c0,2.6,0,5.4,0,8.2c0.2,0,0.4,0.1,0.6,0.1
			c0.6-2,1.2-3.9,1.7-5.8c1.4,0,2.9,0,4.6,0c-0.5,4.3,0.7,8.5-0.9,12.8c3.7,3.4,7.8,6.4,13.1,6.2c1.9,1,3.7,1.9,5.6,2.9
			c0-1.3,0.3-2.5-0.1-3.5c-0.7-2.2-1.7-4.3-2.4-6.5c-1.9-5.7-4.2-11.3-3.3-17.7c1-1.4,2.1-2.9,3-4.1c1.6,0,2.7,0,3.4,0
			c1.8,3.5,2.1,7,4.1,10.2c2.9,4.6,6.2,9,9.2,13.6c2.5,3.9,3.7,8,4,12.3c0.3,4.3-0.5,8.7-0.9,13.1c0,0.1-0.2,0.3-0.3,0.4
			c-1.5,2.6-0.5,5.5-0.7,8.2c-0.2,3.1,2.4,4.8,4,7c2,4,4,8,6.1,12c2.4,0,4.5,0,6.8,0c0.8,1.2,1.5,2.5,2.3,3.6
			c1.4,2.2,2.2,4.7,3.2,7.1c2.8,6.5,4.9,13.3,8.3,19.5c0.9,1.7,0.9,4,1.2,6c0.5,2.8,0.9,5.7,1.5,8.9c1.3-2.9,1.3-2.9,6.5-6.7
			c-1.4-2.1-2.7-4.2-4.1-6.2c-3.9-5.4-6.3-11.3-5.9-18.1c0.1-1.3,0.1-2.7,0-4c-0.5-5.3,1.5-9.9,3.7-14.5c2.7-5.7,6.1-10.9,10-15.8
			c5-6.2,10.5-12,15.8-18c2.2-2.4,4.5-4.6,6.4-7.3c3.9-5.6,8.3-10.8,12.2-16.5c2.9-4.2,5.9-8.4,7.5-13.4c0.4-1.3,0.9-2.6,1.4-4.1
			c-1.4-1.5-0.9-3.5-0.9-5.4c0-6-2-10.8-7.9-13.4c-2.5,0-5,0.1-7.5,0c-1.5-0.1-3.5-0.2-4.5-1.1c-2.1-1.8-4.6-0.5-6.9-1.7
			c-2.1-1.1-5.2-0.2-7.9-0.2c-0.7,0-1.3,0-2,0c-5-0.3-9.4-1.5-11.3-6.6c-0.2-5.1-0.6-10,2.9-14c-2.6-1.7-4.9-3.1-6.8-4.3
			c0-1.9,0-3.4,0-4.7c1.4-0.6,2.6-1.2,3.9-1.8c-2.2-2.6-6.3-0.9-8-4.1c-0.7-3,0.9-5.7,1.8-8.2c-1-1.1-1.8-2-2.4-2.7
			c-2.9-1.5-6.3-1.5-8.4-4c0-2.1,0-4.1,0-5.9c1.4-2.5,2.5-4.9,4-7.1c2-3,3.2-6.1,3-9.8c0-0.3-0.3-0.5-0.6-1c-0.7,0-1.5,0-2.3,0
			c0-1.3,0-2.4,0-3.6c1.6-0.4,3.4-0.1,4-2.5c-0.1-0.4-0.2-1-0.4-1.6c-1.6-4-3-7.9-2.7-12.4c0.3-3.8,0.1-7.6,0.1-11.3
			c-0.6-0.6-1.1-1.4-1.6-1.4c-3,0-5.4-1.9-7.7-3.2c-3.7-2.2-5.6-5.8-5.8-10.4c-0.2-4.9,1.5-8.9,4.6-12.6c2.9-3.5,5.1-7.4,6.5-11.8
			c0.9-2.8,2.2-5.7,4.9-7.4c5.8-3.9,11.6-8,18.7-8.7c1.1-2.4,1.8-4.7,4.5-6c5.4-2.6,10.7-2.5,16.3-1
			C1505,481.1,1505.5,480.8,1506,480.5z M1511.3,486.9c0.9-0.6,1.8-1.2,3.1-2c-2.3-0.8-2.7,0.5-2.8,2.1c-0.2-0.2-0.3-0.4-0.5-0.5
			c-0.6,0-1.2,0.1-2,0.1c0,0.7,0.1,1.2,0.1,1.9C1510.1,487.9,1510.8,487.5,1511.3,486.9z M1463.9,537.9c0-1.1,0-1.7,0-2.2
			c-1.4,0-2.6,0-4.4,0C1461.1,536.5,1462.2,537.1,1463.9,537.9z M1457.8,531.5c-0.2,0-0.3,0-0.5,0c0,0.7,0,1.3,0,2
			c0.2,0,0.3,0,0.5,0C1457.8,532.8,1457.8,532.2,1457.8,531.5z"/>
	</g>
	<g>
		<path fill="#6D6E70" d="M132,457.5c0,0.8,0,1.7,0,2.6c-1.1,0.4-2.3,0.7-3.2,1c-3.8-1.2-7.5-0.3-10.6-0.6c-1.9,1-3.3,1.7-5.4,2.8
			c-1.4,1.8-0.7,4.8-0.9,7.4c0.5,0.9,0.8,1.6,1.4,2.6c-4.9,0.7-9.9-1-14.3,3c0,0.1-0.5,0.8-1,1.7c-0.4,0.7-1,1.4-1,2.1
			c-0.2,4-2.7,6.4-6,7.9c-3.2,1.4-5.7,3.6-8,6c-1.4,1.5-2.1,3.1-2,5.2c0.1,1.7,0.1,3.3,0,5c-0.1,1.7,0.5,3.5-0.9,5.2
			c-0.4,0.4,0.3,1.7,0.6,3c-3,2.2-4.8,5.9-6.5,10.6c0.3,2.2-1,5.5,0.9,8.5c-1.3,2.8-1.5,6.7-0.8,14.9c0.7,0.4,1.5,0.9,2.6,1.6
			c1.1,2.2,1.1,5.1,2.2,7.7c1.3,3,2.8,5.9,3.2,9.2c0.1,1,1.6,1.9,2.6,2.9c1.1-0.3,1.9-0.6,3-1c0.1,0.2,0.1,0.6,0.3,0.9
			c1.4,2.6,2.9,5.1,4.3,7.7c2,3.7,3.4,7.6,3.7,12c0.3,3.4,1.7,6.6,3.7,9.4c1.1,1.6,2.4,3,3.5,4.6c0.7,1,1.2,2.2,1.7,3.3
			c0.5,1.3,0.9,2.6,1.3,3.9c0.9,0,1.6,0,2.5,0c0,2.1,0,4.2,0,6.4c0.9,0.6,1.7,1.2,2.6,2c-1.3,3.3-2.5,6.5-3.7,9.5
			c-2.2-0.4-4.2-0.8-6.5-1.2c-0.2,2.6-0.2,4.9-0.6,7.1c-0.3,2-1.1,3.9-1.8,6c-4,0.3-7.1,2.8-10.2,5.1c-3.1,2.3-6.1,4.9-8.8,7.8
			c-7.6,8.1-13.9,17.1-18.4,27.4c-1.7,3.9-3,8.1-4.5,12.1c-0.4,1.2-0.6,2.5-1.2,3.5c-2.2,3.6-3.2,7.7-4.9,11.5
			c-1.6,3.7-2.4,7.7-3.8,11.4c-0.9,2.5-0.7,5.4-1.1,8c-0.3,1.7-0.7,3.4-1,5.1c-0.2,1.7-0.4,3.4-0.8,5.1c-0.6,2.7-0.6,5.7-1.1,8.5
			c-1,5.2-2.1,10.3-2.1,15.7c-1.6,2-0.4,4.5-1.1,6.5c-0.8,2.2-0.4,4.5-1,6.6c-0.8,2.7,0,5.9-1.1,8c-1.3,2.5,0.6,5.3-1.7,7.4
			c-0.3,0.2-0.1,0.9-0.1,1.4c-0.3,4-0.8,8.1-1,12.1c-0.2,4,0,8,0,12c-11.7,0-23.3,0-35,0c0-6.5-0.1-13,0-19.5c0.1-2.7,0.4-5.4,1-8.1
			c0.6-2.6,0.5-5.3,1.7-7.8c0.1-0.3,0.2-0.6,0.2-0.9c0.3-4,0.4-8.1,1.1-12.1c0.6-3.1,0.6-6.2,1.8-9.2c0.8-2.1-0.2-4.8,1.2-7
			c-0.3-5.8,2.4-11.3,2-17.2c2-2.5,0.4-5.6,1.5-8.4c0.9-2.5,0.9-5.3,1.6-7.9c0.8-3.1,1.6-6.3,3-9.2c4-8.5,7.4-17.3,10.7-26
			c2.2-5.8,5.6-11.1,9.1-16.2c4.2-6.1,9-11.6,14.6-16.4c2.8-2.4,6-4.7,9.5-6c4.6-1.9,6-5.2,6.1-9.6c0-1.3,0-2.7,0-4.3
			c2.2-0.2,4.4-0.7,6.9,0.9c1.3-3.5,3.3-6.8,3.2-10.7c-0.8-0.2-1.2-0.3-1.9-0.5c0-2.4,0-4.8,0-7.6c-0.9-0.1-1.7-0.2-2.7-0.3
			c-1.4-2-1.6-4.8-3.5-6.8c-1.2-1.2-1.9-2.9-3.1-4.2c-2.8-3.3-3.1-7.4-3.9-11.4c-0.7-3.2-1.1-6.4-3-9.3c-1.9-2.8-3.3-5.9-5-9
			c-1.2,0.3-2.3,0.5-3.6,0.8c-0.8-1.3-1.6-2.5-2.5-3.8c0.3-2.7-0.8-4.9-2.2-7.4c-1.6-2.8-3.1-5.7-4.7-8.5c-0.5-0.9-1-1.9-1.9-3.6
			c0-2.4,0-5.7,0-9.2c0.8-1.6,1.8-3.4,2.8-5.3c-0.4-0.1-1-0.3-1.7-0.6c0-2.4,0-4.8,0-7.8c1.6-2.5,3.7-5.2,5.4-8.2
			c0.9-1.6,1.3-3.6,1.4-5.4c0.2-3.6,0.1-7.3,0.1-10.6c1.2-1.7,2.3-3.1,3.2-4.5c1.9-3,5.6-3.6,8.1-6c1.4-1.3,3.1-2.2,4.7-3.3
			c0-1.7,0-3.1,0-5c1.6-1.6,3.4-3.4,4.6-4.6c4.3-0.6,7.8-1.1,11.3-1.6c-0.3-2.4-0.7-4.7-1-6.7c2.1-3.4,5-4.8,8.3-5.7
			c0.9-0.2,1.9-0.5,2.8-0.3c1.8,0.4,3.5,1.5,5.3,1.6c1.8,0.1,3.6-0.6,5.6-1c0-0.6,0-1.4,0-2c0.4-0.3,0.7-0.6,1-0.6
			c1.3,0,2.7-0.2,4,0c1.7,0.3,3.3-0.4,4.5-1.1c2.1-1.2,4.5-1.2,6.7-1.9c1.5-0.4,3.2,0.3,4.6-1c0.3-0.3,1.4-0.3,1.9,0
			c3.3,1.6,6.7,0.7,10.1,1C131.2,456.6,131.6,457.2,132,457.5z M83.1,470.6c2.8-1.7,5.2-3.2,8-4.9c-3.3-0.7-5.8-0.1-8,2.1
			C83.1,468.5,83.1,469.3,83.1,470.6z M74.9,479.3c0-0.3,0-0.6,0-0.9c-0.9,0.1-1.8,0.2-2.7,0.4c0,0.2,0,0.3,0,0.5
			C73.1,479.3,74,479.3,74.9,479.3z"/>
		<path fill="#6D6E70" d="M589,813.5c0.3-1.4,0.8-2.7,1-4.1c0.2-1.5-0.2-3,0.1-4.5c1.5-9.2,0.9-18.4,0.9-27.6c0-2.5,0.6-5-0.8-7.7
			c-1-2-0.4-4.6-0.9-7.1c-0.8-3.5-1.6-7.1-2.1-10.6c-0.3-1.9-1-3.6-1.5-5.4c-1.4-5.1-3.4-10-4.4-15.1c-0.6-3.2-1.5-6.5-1.9-9.7
			c-0.6-4.1-3-7.6-3.2-11.7c-1.7-1.2-0.8-3-1-4.6c0-1.8,0.1-3.4,0.9-5.1c0.9-1.9,1.7-4,2-6.1c0.7-4.6,2.7-8.9,4.2-13.3
			c1-3.2,2.5-6.3,4-9.3c1.8-3.6,3-7.4,4.9-11c2.6-4.9,4-10.3,6-15.5c1.3-3.5,2.6-6.9,4-10.3c1.1-2.6,1.6-5.1-0.1-7.4
			c0.1-3.2,3.1-4.2,4.1-6.5c2.7-0.3,2.9-3.1,4.5-4.6c1.6-1.4,3-3,4.4-4.7c1-1.2,2.2-2.1,3.1-3.2c0.5-0.5,0.8-1.2,1.4-1.9
			c1.5,0,3.1,0,4.7,0c1.5,1,3.1,2,4.6,3c3.1-1,5-3.2,7-5.4c1.8-2,3.5-4.2,4.9-6.5c1.1-2.4,2.2-4.7,3.3-7.2c-1.6-2.2-0.7-4.9-1-7.4
			c-0.3-2.4-0.7-4.7-1.1-7.3c-0.8-0.1-1.7-0.3-2.6-0.5c-0.4-5.1,0-6.9,2.7-11.7c-0.4-1-0.9-2-1.4-3.1c-1,0-2.1,0-3.2,0
			c-0.2-0.5-0.4-0.8-0.4-1c0.3-3.4-0.5-6.7,0.8-10.1c0.7-1.7,0.8-4.1-0.5-6.2c-0.5-0.7-0.3-1.9-0.3-2.9c0-5.2-0.1-10.3,0-15.5
			c0.3-9,1.9-14.5,8.3-21.5c-0.7-1.2-1.5-2.5-2.4-4c1-5.6,6.6-7.4,9.8-11.1c-1.3-2-0.5-4.3-0.8-6.6c1.8-0.9,3.4-1.8,5.3-2.8
			c-1.1-0.2-2-0.4-3.1-0.6c0-0.8,0-1.5,0-2.5c5.4-2.4,10.7-5.1,14.8-9.7c1.2-1.3,3.1-2.1,4.9-3.3c0-0.4,0.1-1.2,0.3-2.3
			c1.4-0.6,3.1-1.1,4.4-2.1c1.2-1,1.9-2.5,2.8-3.8c3.1,0,6.2,0.4,9-0.2c2.7-0.6,5.4-1,8.2-0.8c0.2-0.6,0.4-1.2,0.6-1.9
			c0.7,0,1.5,0,2.4,0c0.8,0.8,1.7,1.7,2.7,2.7c1.1-0.8,3-0.9,3.1-3.1c1.1,0.3,2.1,0.6,3,0.9c2.2-0.5,4.5-1.1,6.7-1.6
			c0.2,0,0.5,0.6,0.8,1c0,0.5,0,1,0,1.6c-3.1,0-3.1,4.8-6.7,4.3c-0.4,1.5-0.4,3.3-2,4.2c-0.8,0.4-1.7,0.7-3.5,1.5
			c-3,3.7-7.8,6.8-13,9.4c-1.1,0.5-2,1.6-3,2.5c0.3,1,0.5,1.9,0.7,2.6c-0.9,0.9-1.9,1.9-2.5,2.5c0,2.8,0,4.8,0,7.2
			c-1.8,1.4-3.9,2.9-5.9,4.6c-2,1.7-3.4,3.9-3.1,7c0.6,0.7,1.3,1.5,2,2.2c-0.1,0.5-0.1,0.8-0.3,1.1c-1.5,1.9-3.2,3.6-4.5,5.6
			c-1.1,1.6-1,3.6-1.5,5.4c-1,3.2-1.8,6.4-1.7,9.8c0.1,5.5,0,11,0.1,16.5c0,0.9,0.4,1.7,0.8,3.1c-1.9,4.8-0.3,10.2-0.9,15.4
			c0.3,0.3,0.4,0.5,0.5,0.5c1,0,2,0,3,0c0.5,1,1.1,1.9,1.7,3c-2.3,3.8-3.7,8-2.9,12.8c0.8,0.1,1.7,0.3,2.7,0.4
			c0.6,4.6,1.2,9.1,1.9,14.3c-1.4,2.9-2.6,6.9-5,10.1c-2.5,3.3-5.4,6.6-9.6,8.5c-1.4-1-3-2-4.6-3.1c-1.6,0-3.3,0-5,0
			c-0.3,0.7-0.6,1.4-1,2c-0.3,0.4-0.7,0.7-1,1.1c-5.1,5.4-10.1,10.8-15.6,16.6c0.3,1.7,0.6,3.7,1,6.3c-2.3,5.9-5.3,12.4-7.3,19.2
			c-1.7,5.8-5.2,10.9-6.6,16.8c-0.6,2.3-3.1,4-3,6.7c-4.8,9.1-6.9,19.1-10.5,28.6c-1.3,3.5-1.5,7.4-2.3,11
			c-1.1,4.5-2.2,9.1-3.4,13.6c-1,3.9-2,7.8-3.5,11.5c-0.1,0.3,0,0.6-0.1,1c-0.3,4.4-0.6,8.7-1,13.1c-0.2,1.9-0.7,3.7-1,5.6
			c-0.3,1.9,0.6,3.9-1,5.6c-0.2,0.2,0,0.6,0,1c-0.3,4.2-0.1,8.5-1.2,12.5c-0.8,3.2,0,6.6-1.2,9.5c-1.3,3.3-0.4,6.5-0.6,9.7
			c-0.2,3.3,0,6.7-0.1,10c0,2.6-1.6,4.9-1,7.6C592.4,813.5,590.7,813.5,589,813.5z"/>
		<path fill="#6D6E70" d="M419,638.5c2.8,0,5.7-0.2,8.5,0.1c2.5,0.3,4.9-0.5,7-1.2c2.6-0.9,5.2-1.1,7.7-1.8c1.8-0.5,3.7,0,5.6-0.9
			c1.1-0.5,3,0.6,4.7,1c1.7,1.7,3.6,3.5,5.6,5.6c-0.3,0.5-0.6,1.1-1,1.5c-3.5,3-6.4,6.5-8.3,10.6c-2,4.3-4.6,8.8-1.9,13.9
			c0.3,0.5,0,1.3,0,2.1c1.3,0,2.4,0,3.6,0c0.9-2.1,2.5-3.8,5-5.3c1.2,4.8-0.3,8.5-3.3,11.5c-1.5,1.5-4,2.4-6.2,2.9
			c-4.4,1.1-8.7,2.4-13.2,3.2c-4.8,0.9-9.6,1.6-14.3,2.8c-4.7,1.1-9.3,2.7-13.7,4.3c-4.3,1.5-8.5,4-12,7.4
			c-3.8,3.6-6.8,8.1-11.5,10.6c-1.1,3.3-4.8,4-6.7,6.6c-2,2.6-4.6,4.8-7,7.1c-3.1,2.9-6.2,5.8-9.5,8.4c-1.4,1.1-3.3,1.5-5.3,2.3
			c-0.4,0.7-1.2,1.6-1.5,2.6c-2.1,5.9-4.2,11.9-6.3,17.9c-1,2.8-2.1,5.5-3,8.3c-1.4,4.7-2.4,9.6-4.1,14.3
			c-2.6,7.1-3.7,14.7-6.7,21.7c-0.8,1.8-0.6,4-1,6c-0.3,1.9-1.3,3.6-1.2,5.5c0.1,2,0,4,0,6c-11.7,0-23.3,0-35,0c0-1.2,0.1-2.3,0-3.5
			c-0.4-5.1,0.9-9.9,2.6-14.7c0.8-2.2,1-4.5,1.4-6.8c0-0.5,0-1,0-1c1.5-1.4,3.1-2.4,3.9-3.8c2.5-4.5,3.6-9.4,3-14.4
			c4.1-5,7.7-10.1,10.3-15.4c-0.9-2.6-2.6-2.5-4.2-2.5c0-2.5,0-4.8,1.5-7.2c1.4-2.2,1.7-5.2,2.5-7.8c1.5-0.1,0.8-1.2,1-2
			c0.5,0,1,0,1.5,0c1.4-0.6-0.6-2.8,1.5-3c1.6,0.4,2.8-0.7,3.9-1.5c2.6-1.9,5-4.2,7.4-6.3c1.5-1.3,2.4-3.1,4.5-3.6
			c0.3-0.1,0.5-0.4,0.7-0.7c1.4-1.7,2.7-3.6,4.3-5.2c1.3-1.3,3-2.2,4.2-3.6c2.4-2.7,5.3-4.9,7.9-7.5c2.7-2.7,5.1-5.9,8.2-8
			c4.3-2.9,9.1-5.1,14.2-6.7c4.6-1.4,9.4-2.2,14.2-3.1c4.7-0.9,9.5-2,14.2-3.1c3.3-0.8,6.7-1.2,9.8-2.7c1.6-0.8,3.4-1.4,5.3-2.1
			c1.1-3.7,2.3-7.6,3.5-11.7c-0.9-0.1-1.7-0.1-2.8-0.2c-1.5,1.9-3.1,3.9-4.8,6c-0.6,0-1.4,0-2.3,0c-0.6-2.7,0.5-5.6-1.1-8.1
			c-0.2-0.4,0.2-1.2,0.4-1.8c1.5-6.2,4.9-11.2,9.5-15.5c1-0.9,1.9-1.9,2.9-2.9C421.6,641.6,420.3,640.1,419,638.5z"/>
		<path fill="#6D6E70" d="M1422,758.5c0.2,0.4,0.4,0.8,0.7,1.5c-2.3,1-3.8,3.2-5.7,4.9c-0.3,3.1,0.9,5.9,1.7,8.8
			c1.2,4.7,2.7,9.3,3.4,14.1c0.3,2.4,0.3,5,1.1,7c0.9,2.3,0,4.6,0.9,6.6c1.7,4,0.5,8.1,0.9,12.1c-11.7,0-23.3,0-35,0
			c0.7-5.2-1.3-10.3-1-15.5c-1.5-2.2-0.3-4.9-1.2-7c-1.4-3.5-1.9-7-1.8-10.7c0-0.2-0.3-0.5-0.5-0.6c-0.5-0.1-1-0.2-1.8-0.4
			c1.8-3.1-2.6-6.1,0.2-9.2c-0.7-0.8-1.5-1.6-2.5-2.7c1.4-0.9,3.3-1.5,3.3-2.1c0.1-1.8,2.1-1.3,2.3-2.5c-0.8-2.4-1.9-4.6-2.1-7.2
			c-0.2-3.3-1-6.7-2.3-9.5c-1.3-3-3.7-5.4-3.7-9c0-0.2-0.5-0.4-0.7-0.7c-1.6-2.6-4.3-4.2-6-6.8c-0.2-0.3-0.9-0.2-1.3-0.3
			c-0.1-0.9-0.1-1.7-0.1-2.5c-2.4-1.5-4-3.8-6.7-4.6c-1.1-2.9-5.2-3.1-5.4-6.8c-3.5,0.8-3.8-2.8-5.9-3.9c-2.4-1.2-2.3-4-3.8-5.7
			c-1.8-2.1-0.6-5-1.3-7.5c-1,0-1.8,0-2.2,0c-0.7-2.3-1.4-4.4-2-6.4c-0.6-1.7,0-3.8-1.5-5.4c-0.7-2.2,1-3.9,1-6
			c1,0.2,1.9,0.4,3.1,0.7c0-2.2,0-4.3,0-5.7c1.1-1.1,1.8-1.8,2.8-2.8c0.3,0,1,0,1.8,0c1.5,2.9,1.4,6.5,4.1,8.9c1.5,0,3.1,0,4.8,0
			c0.5,0.5,1,1,1.4,1.4c0.2,2.8-0.2,5.7,0.9,8.5c0.5-1.9,1-3.9,1.6-6.2c1.5,0.5,2.9,1,4.4,1.5c0,1.9,0,3.7,0,4.7
			c-0.9,2.2-1.6,3.7-2.4,5.6c2.3,1.5,4.4,2.8,6.4,4.1c0.1,0.8,0.2,1.6,0.2,1.9c1.3-0.2,2.5-0.8,3.4-0.4c2.7,1.1,5.3,2.6,7.9,3.8
			c1.1,0.5,2.4,0.7,3.5,1.1c0,1.2,0,2.3,0,3.3c5.7,3.5,11,7.4,15,12.7c0,1.8,0,3.6,0,5.5c-0.1,3.7-0.4,7.4,3,10.2
			c0.6,0.5,0.8,1.6,1,2.5c0.9,4.7,4.3,8.2,5.3,12.7c2.3-1.1,4.1-2.6,6.7-1.5c0.4,0.8,1,1.7,1.5,2.6c0.5,0,1,0,1.5,0
			C1421.4,756.5,1420.1,758,1422,758.5z"/>
		<path fill="#6D6E70" d="M871,735.5c-0.1,0.6,0,1.4-0.4,1.8c-1.1,1.3-2.3,2.4-3.5,3.6c0,2.1,0,4.2,0,6.3
			c7.8,0.9,14.8,5.4,21.1,13.4c-1,0.7-2,1.3-3,2c0,2.1,0,4.3,0,6.5c3.7,3.5,7,7.5,11.8,9.9c1.6,0.8,2.6,2.5,3.7,3.6
			c0.4,3.2,0.8,6.3,1.2,9.2c1.6,1.6,3.2,3,4.6,4.4c2.8,0.8,5.5,1.6,8.2,2.3c1.3,3.3,3.9,4.9,6.7,6c0.9,1.1,1.6,2.7,2.5,2.8
			c2.2,0.3,3.8,1.4,5.4,2.7c0.6,0.5,1.8,0.4,3.5,0.6c0.5,0.6,1.4,1.7,2.3,2.8c-12,0-24,0-36,0c-0.4-1.2-1.1-1.8-2.4-2
			c-3.6-0.8-7.2-1.7-10.3-3.9c-3-2.2-6.8-3.4-7.6-7.7c-0.1-0.4-0.7-0.7-1.1-1.1c-5.5-0.9-10-3.3-12.5-8.7c0-1.7,0-3.5,0-5.2
			c0.7-0.2,1.3-0.4,2.3-0.8c-6.7-4-12.6-8.4-17.4-14.1c0-1.7,0-3.3,0-5.5c1.6-0.5,3.2-1,4.8-1.4c-2.3-2.6-4.6-5.1-6.8-7.5
			c0.2-1.5-0.6-2.4-1.8-3c-2.3-1.1-4.7-2.2-7.2-3.4c0-4.9,2.3-9.1,4-13.6c1.9-0.3,3.7-0.8,5.6-1c2-0.2,4,0.1,6-0.1
			C860.1,734.1,865.5,736.2,871,735.5z"/>
		<path fill="#6D6E70" d="M1506,480.5c-0.5,0.3-1.1,0.6-1.6,0.9c-5.5-1.5-10.9-1.6-16.3,1c-2.6,1.3-3.4,3.5-4.5,6
			c-7.2,0.7-12.9,4.8-18.7,8.7c-2.6,1.7-4,4.6-4.9,7.4c-1.4,4.4-3.6,8.3-6.5,11.8c-3.1,3.7-4.8,7.7-4.6,12.6
			c0.2,4.6,2.1,8.2,5.8,10.4c2.3,1.4,4.6,3.3,7.7,3.2c0.5,0,1,0.8,1.6,1.4c0,3.7,0.2,7.5-0.1,11.3c-0.3,4.4,1.2,8.4,2.7,12.4
			c0.2,0.6,0.3,1.2,0.4,1.6c-0.5,2.3-2.4,2.1-4,2.5c0,1.2,0,2.3,0,3.6c0.8,0,1.6,0,2.3,0c0.3,0.4,0.6,0.7,0.6,1c0.2,3.6-1,6.8-3,9.8
			c-1.4,2.2-2.6,4.6-4,7.1c0,1.8,0,3.8,0,5.9c2.1,2.5,5.5,2.4,8.4,4c0.6,0.7,1.5,1.6,2.4,2.7c-0.9,2.5-2.5,5.2-1.8,8.2
			c1.7,3.2,5.8,1.5,8,4.1c-1.3,0.6-2.5,1.2-3.9,1.8c0,1.3,0,2.7,0,4.7c2,1.2,4.2,2.7,6.8,4.3c-3.5,4-3.1,9-2.9,14
			c2,5.1,6.4,6.3,11.3,6.6c0.7,0,1.3,0,2,0c2.7,0,5.8-0.8,7.9,0.2c2.3,1.1,4.8-0.1,6.9,1.7c1,0.9,3,1,4.5,1.1c2.5,0.2,5,0,7.5,0
			c5.8,2.6,7.9,7.4,7.9,13.4c0,1.9-0.5,3.9,0.9,5.4c-0.5,1.4-1,2.7-1.4,4.1c-1.6,5-4.6,9.2-7.5,13.4c-3.9,5.6-8.4,10.8-12.2,16.5
			c-1.9,2.7-4.3,4.9-6.4,7.3c-5.3,5.9-10.9,11.7-15.8,18c-3.9,4.9-7.3,10.1-10,15.8c-2.2,4.6-4.1,9.2-3.7,14.5c0.1,1.3,0.1,2.7,0,4
			c-0.4,6.8,2,12.7,5.9,18.1c1.4,2,2.7,4.1,4.1,6.2c-5.2,3.8-5.2,3.8-6.5,6.7c-0.5-3.2-1-6.1-1.5-8.9c-0.4-2-0.3-4.3-1.2-6
			c-3.4-6.3-5.6-13-8.3-19.5c-1-2.4-1.8-4.9-3.2-7.1c-0.8-1.2-1.5-2.4-2.3-3.6c-2.3,0-4.4,0-6.8,0c-2-4-4.1-8-6.1-12
			c0.2-0.7,0.3-1.6,0.7-2.2c1-1.3,2.3-2.4,3.2-3.7c0.9-1.2,1.3-3.4,2.4-3.8c1.9-0.7,2.1-2.6,3.3-3.7c6-5.6,11.3-11.7,16.3-18.2
			c4.2-5.4,8.6-10.6,12.3-16.4c2.5-3.9,5.3-7.7,7.1-12c1.1-2.7,2.3-5.6,1.3-8.3c-0.7-1.8-0.9-3.4-0.8-5.1
			c0.4-5.9-5.4-12.2-11.7-11.6c-3.5,0.3-6.7-0.8-10-1.4c-3.1-0.5-6.2-1.2-9.3-1.6c-4.2-0.5-8.5,0.5-13-1.5c-0.1-0.1-0.7-0.7-1.3-1.3
			c-0.6-0.6-1.2-1.2-1.8-1.7c0-0.7,0.2-1.5,0-2c-2.2-5-0.7-7.1,1.2-11.2c0.4-0.9,0.7-1.9,1-3c-2.3-1.3-4.2-2.4-6.1-3.5
			c0-1.6,0-3,0-4.9c1.2-0.4,2.5-0.9,3.7-1.4c-1.5-3.3-6-1.4-8.1-4.5c0.4-3.1,0.8-6.4,1.3-10c-3-1.2-5.8-2.3-8.2-3.2
			c-1.3-1-2.2-1.7-2.8-2.2c0-2,0-3.7,0-5c1.9-2.9,3.1-5.8,4.8-8.4c1.6-2.6,2-6,3.1-9.5c-1.7-0.4-3.4-0.8-4.8-1.2c0-1,0-1.7,0-2.4
			c1.7-0.5,3.6,0.5,4.9-2.2c-0.9-3.7-2.4-8-2.9-12.4c-0.5-4.7-0.1-9.6-0.1-14.2c-0.8-0.6-1.3-1.3-1.8-1.3c-4.2,0-7.2-2.4-9.8-5.2
			c-0.4-0.4-0.3-1.2-0.4-1.8c0-0.7,0-1.3,0-2c0-2,0.1-4,0-6c-0.1-1.7-0.6-3.4-1-5.1c0-1.9,1-3.3,2.1-4.6c1.5-1.9,3.2-3.6,4.5-5.6
			c1.1-1.7,1.9-3.6,2.3-5.5c0.7-3.6,2.4-6.6,5.2-8.8c2.1-1.7,4.3-3.1,6.7-4.4c3.7-2,7.7-3.2,11.7-4.3c1.1-1.8,2.3-3.6,3.7-5.8
			c0.5,0,1.3,0.3,1.7,0c3.4-2.6,7.4-1.9,11.2-2c2.4,0,4.7,0,7.1-0.9c2-0.8,4.3-0.2,6.6-0.9c3.3-1.1,7-0.9,10.5-1.2
			c2.1-0.1,4.1-0.2,6.1-0.9c4.2-1.5,8.6-2.5,13.3-2c0,0.8,0,1.5,0,2.5C1507.4,479.4,1506.7,480,1506,480.5z M1421.4,534.4
			c-0.5-1.6-1.1-3.2-1.8-5.3c-1.3,2.6,0.5,3.8,1.4,5.4c0,0.5,0,1,0,1.4c2.2,1.5,4.4,3,6.6,4.6c1.6-2.5,1.7-3.1,0.9-4c-1,0-2,0-3.1,0
			c-0.5-0.6-1.2-1.4-1.7-2C1422.7,534.5,1421.8,534.5,1421.4,534.4z"/>
		<path fill="#6D6E70" d="M864,692.5c-1.4,0.3-2.7,0.8-4.1,1c-1.9,0.2-3.9,0-6.4,0c2.2-2.2,3.7-4.4,5.8-5.6c2.1-1.2,3.5-2.9,5.2-4.4
			c1.8-1.6,3.1-3.8,5.6-4.6c0-0.5,0-1,0-1.5c2-0.1,4.1,0.4,6.6-0.6c-2.7-2.5-3.5-5.4-4.1-8.4c0,0-0.3,0-0.5,0c0-2,0.6-4.2-0.1-5.9
			c-0.9-2.1-0.6-4.1-0.9-6.1c-0.3-1.8-1.5-3.5-1.7-5.3c-0.2-2.7-0.9-5.3-1.2-8c-0.2-2.6-1.8-4.9-1.1-7.6c-2.1-1.8,0.2-4.9-2-6.7
			c0.2-2.4-0.3-4.8-0.9-7.1c-0.6-2.1-0.4-4.5-1.1-6.5c-1.1-3.2-1.6-6.4-2-9.7c-0.1-1.4-0.7-2.7-1-4.1c-0.8-4.2-2.1-8.3-2.1-12.7
			c0-0.9-0.7-1.7-0.9-2.6c-0.6-2.7-1.6-5.4-2.3-8.1c-0.4-2-0.5-4.4-1.8-6.2c-1.2-1.7-1.4-3.7-2-5.7c-0.6-2.1-2-3.9-2.5-5.9
			c-0.7-3-2.6-5.7-2.5-9c0-0.7-0.7-1.4-0.8-2.1c-0.7-3.7-2.1-7.3-2.2-11.1c0-0.9-0.4-1.8-0.6-2.7c-0.1-0.6-0.5-1.5-0.3-1.8
			c1.6-2,0.7-4.4,1-6.6c6.1-2.1,12.3-4.3,18.8-5.7c0.1-0.7,0.1-1.5,0.2-2.5c0.9-0.1,1.8-0.3,2.9-0.4c0-3.2,0.1-6.4,0-9.5
			c-0.1-1.9-0.4-3.8-1-5.6c-1.6-4.3-0.3-9.2-2.9-13.3c0.5-3.2-1-6.6,0.7-9.7c0.1-0.1,0.3-0.3,0.2-0.4c-0.6-4,0.8-7.5,2-11.2
			c1-2.9,1.5-6.2,3.2-8.6c1.2-1.7,1.8-3.3,2-5.2c0-0.3,0.4-0.5,0.7-0.7c-1.6-1.2-4.4-1.9-2.2-4.8c-0.3-2.1-0.7-4.2-1-6.6
			c1.7-0.8,3.2-1.2,4.5-2c1.5-0.9,0.5-2.9,2.1-4.2c1.8-1.5,4.5-4.1,8-6c1.2-0.7,2.4-1.4,3.7-2.2c0-1.7,0-3.4,0-5.1
			c1.1-1.5,2.2-3.1,3.2-4.6c1.3,0,2.4,0,3.8,0c0.7,1.5,1.4,3.1,2.1,4.8c5.4-0.4,8.2,4.2,12.6,6c1.2-2.6,2.5-5.4,4.3-9.5
			c0.3-1.9,0.8-5.3,1.3-8.9c0.4-0.7,1.4-1.7,1.7-2.9c1.4-5.5,7.3-9.7,13.7-9.4c1.7,1.3,1.5,2.9,0.9,4.8c-0.6,1.8-1.6,3.3-2.5,5
			c-0.4,0.7-0.7,1.8-1,2.6c-0.4,1.7-0.1,3.6-0.1,5.5c-2.4-0.1-3.3,1.5-4,3.4c-0.3,0.9-0.8,1.7-1,2.6c-0.2,1.1,0,2.3,0,3
			c-4.5,3.1-8.7,6-12.9,8.9c-0.1,1.4-0.1,2.5-0.2,3.6c-1.7,0.9-3.4,1.8-5.1,2.7c0.5,3.9,0.9,7.5,1.4,11.4c0.3,0.1,0.9,0.3,1.4,0.5
			c-0.5,4.6-4.1,8.1-5,12.6c-0.5,2.4-1.2,4.8-1.8,7.2c-1.3,5-0.6,10-0.9,15c0.5,1.7-1,2.9-1,4.5c0,1.8-0.6,3.9,0.1,5.4
			c1.2,2.5,0.9,5,0.8,7.5c-0.1,3,1,5.2,3.1,7.1c0,1.5,0,3,0,4.5c-0.8,0-1.7,0-2.7,0c-0.2,0.9-0.3,1.8-0.5,2.7
			c-6.4,1.2-12.7,2.8-18.8,5.7c0,3.8-0.2,7.8,0.1,11.7c0.1,2,1.1,3.9,1,6.1c-0.1,1.8,0.6,3.7,1.2,5.4c0.6,1.9,1.1,3.9,1.8,5.7
			c1.8,4.8,3,9.7,5,14.4c2.4,5.7,3.7,11.5,5.1,17.4c0.3,1.5,0.5,3.1,0.9,4.6c0.4,1.4,0.8,2.7,1,4.1c0.6,3.7,1.6,7.3,2.4,11
			c0.5,2.1,1.5,4.2,1.5,6.3c0,5,2.5,9.6,2.1,14.6c2.3,5,2.1,10.7,3.9,15.8c0.9,2.7,0.4,5.8,1.2,8.5c1.6,5.7,1.4,11.6,3,17.2
			c0.7,2.5,1.8,4.8,2.7,7.3c-2.1,0-4.2,0-6.6,0c0-0.7-0.1-1.4-0.1-2.3c-1.7-0.9-3.4-1.8-5-2.6c-6.4,1.1-10.1,5.7-14.3,9.9
			c-1.5,0-3.1,0-4.3,0c-4.7,2-8.5,4.5-10.3,9.1c-2.2,0.2-2.8,0.8-3,3C866,692.5,865,692.5,864,692.5z"/>
		<path fill="#6D6E70" d="M1292,473.5c-1.8,0-3.7,0-5,0c-3.7,1.9-6,5.6-10.8,4.9c-0.2,1-0.3,1.9-0.4,2.7c-2.8,2.9-6.8,3-10.2,4.3
			c-2.4,0.9-4.9,1.8-7.4,2.7c0,2.2,0,4,0,5.6c-4.9,2-5.9,7.5-10.3,9.8c0.6,4-1.4,7.1-3.7,10c-1.7,2.2-2.5,4.4-2.3,7.1
			c0.1,2.3,0,4.7,0.1,7c0,0.9,0.5,1.8,0.9,3c-0.4,0.9-1.1,2.1-1.9,3.7c0,2.9,0,6.2,0,9.6c0,1.6-0.1,3.1-0.9,4.6
			c-0.7,1.2,0.6,3-0.8,4.2c-0.2,0.2-0.3,0.6-0.3,0.9c0.2,6.9-2.1,13.7-0.9,20.6c0.8,4.6,0.2,9.2,1,13.6c0.6,3.6,0.5,7.1,0.9,10.6
			c0.3,3.1-1,5.7-2.5,8c-3.6,5.4-7.3,10.8-11.6,15.7c-1.2,1.4-2.2,3-3.3,4.5c-2.2-2.1-4.7-0.5-6.9-1.2c-3.7,2.6-3.6,6.8-5.4,11.4
			c-1.3,1-3.4,2.8-5.6,4.3c-3.9,2.7-6.4,6.4-8.8,10.3c-2.8,4.3-5.9,8.5-8.3,13.1c-1.6,3.1-4.2,5.9-4.7,9.5c-2.3,1.6-2.7,4.2-3.5,6.5
			c-2.5,6.6-5,13.3-7.4,19.9c-1.9,5.2-3.6,10.5-5.3,15.8c-0.8,2.5-2,5.1-1.7,7.8c0.6,4.5-0.9,8.7-1.2,13.1c-0.2,2.4-1.1,4.9-2.2,7
			c-2.9,5.5-4.1,11.3-3.7,17.5c0.2,3.6-0.9,6.7-2.6,9.9c-0.7-3.5-1.5-6.7-1.6-10.1c-0.1-3.2-1.5-6.4-1.8-9.7
			c-0.3-3.3-1.1-6.5-1.8-9.7c-0.5-2.1-0.3-4.6-1.4-6.4c-1.1-1.9,0-4.3-1.9-5.8c-0.5-7.6-3.2-14.6-5.7-21.6c-0.7-2.1-0.8-4.3-1.3-6.5
			c-0.1-0.5-0.6-0.9-1-1.3c-0.5-3.3,0.8-6.2,2-9.2c1.3-3.3,2.9-6.5,3.9-9.8c1-3.2,2.7-5.9,4.2-8.7c3.8-7.2,9.2-13.4,12.7-20.7
			c1.6-3.2,4.2-5.4,6.9-7.5c3.3-2.6,6.6-4.9,7.4-9.5c0.4-2.2,2.1-4.1,3.4-6.4c1.8,0,3.9,0,6.2,0c0.1,0.4,0.3,1,0.5,1.6
			c0.1,0.1,10.5-12.8,10.9-13.3c3.3-4.7,6.3-9.6,8.8-15.1c-0.4-0.3-1.1-0.8-1.9-1.4c0-5.7,0.8-11.4-0.2-16.9
			c-1.2-7.1-0.4-14.1-0.8-21.1c-0.1-2.3,0.1-4.5,1-6.6c1.4-3.1,1-6.5,1.9-9.7c0.3-1.1-0.3-2.5-0.5-3.7c-0.4-1.9-0.9-3.5,0.5-5.5
			c1.5-2.1,1.2-3.5,1.1-7.2c-0.1-3.5,0-7,0-10.2c1.5-3.7,5-6,5.1-10.2c0-1.4,0.9-3.1,2-4.1c3.1-3.2,5.1-7.8,10.9-9.3
			c-1.8-0.3-2.7-0.5-3.8-0.7c0-0.6-0.1-1.2-0.1-1.8c0.2-0.4,0.2-0.7,0.4-0.9c2.8-3.1,6.6-4.2,10.4-5.1c2.9-0.7,5.6-1.7,8.3-3.2
			c0-1.3,0-2.4,0-3.7c2,0,3.7,0,4.9,0c2.8-1.9,5.2-3.5,7.7-5.2c4.9,1,9.6-0.7,14-2.2c-0.3-1-0.6-2.1-0.9-3c0.5-0.3,0.8-0.6,1-0.6
			c3,0.3,6,0.8,9.1,0.9c1.5,0.1,3.1,0.5,4.7-0.8c0.6-0.5,2.3-0.4,3.7,0.4c1.5,0.9,3.5,1.1,5.4,1.4
			C1291,471.7,1291.7,472.3,1292,473.5z"/>
		<path fill="#6D6E70" d="M433,457.5c0,0.5,0,1,0,1.2c-3.8,4.2-9.7,4.9-13.6,8.8c-1.6,0-3.3,0-4.9,0c-1.3,1.3-2.6,2.6-3.5,3.6
			c-1.6-0.3-3-0.5-4.6-0.8c-1,1.7-1.9,3.3-3,5.2c-2.6-0.8-4.8,1.2-7.1,2.4c-1.6,0.8-2.6,2.7-4.1,4.4c-0.3-0.5-0.7-1.3-0.9-1.7
			c-1.3,0-2,0-3.1,0c-1.3,2.3-2.7,4.9-4.3,8c0,2.6,0,5.7,0,8.8c-1.2-1.7-0.6-3.6-0.9-5.4c-2.9-0.4-2.9-0.4-4.9,0.9
			c0,2.2,0,4.6,0,7.3c1.4,2.1,3,4.6,4.7,7.2c-0.6,2.4-1.3,5.1-2,7.9c1.2,0.1,2,0.2,2.8,0.3c0.1,0.3,0.4,0.6,0.4,0.8
			c0,2.5,0.2,5,0,7.5c-0.2,2.8,0.8,5.4,1,8.1c0.2,2.7,0.9,5.2,1.8,7.8c0.2,0.6,0.3,1.3,0.2,1.9c-0.3,3.3,0.6,6.3,2.3,9.1
			c1.5,1.3,3.1,2.6,4.6,3.9c1.1,5-1.1,9.2-3,13.2c-1.4,3-2,6.2-3.6,9c-1.6,2.8-2.1,6.1-3.1,9.2c-0.7,2.1-0.1,4.6-0.1,6.8
			c2.1,2.6,4.7,4,8.1,3.6c1.5-0.2,3,0,4.7,0c0,3.2,0,6.3,0,9.8c1.3,0.5,2.6,1.1,4.1,1.7c0,1.5,0,3.3,0,5c3.4,2.3,6.7,4.5,9.9,6.6
			c0.6,5,1.5,9.7,3.9,14.1c0.4,0.8,0.3,1.9,0.4,2.8c-4.6-0.7-9,1.3-13.6,1c-0.5,0-1.1,0.6-1.7,0.7c-3.2,0.8-6.4,2.1-9.6,2.1
			c-6.2,0.2-10.4-1.3-13.1-8.5c-1.3-3.5-1.7-7.3-2.6-11.4c-1.4-0.8-3.2-1.8-4.9-2.9c-1.6-1-3.1-2.2-4.7-3.4c0-1.6,0-3,0-4.5
			c-1.3-0.8-2.5-1.6-3.8-2.4c0-2.8,0-5.6,0-8.5c-3.3-0.5-6.4-1.1-10.1-1.7c-0.7-1-1.7-2.4-2.6-3.9c-0.3-0.5-0.6-1.4-0.3-1.8
			c1.7-2.4,0.6-5.1,1-7.3c0.7-1.1,1.5-2,1.8-3c1.5-6.3,4.5-12.2,6.5-18.3c0.8-2.4,0.1-4.5,0.8-7c-3.6-1.5-5.6-4.4-7.2-8.7
			c0-0.8,0-2.4,0-4.1c0-1.6,0-3.1-0.9-4.6c-1.2-2.1-0.6-4.8-1.2-7c-1.3-4.9-0.5-9.7-1-14.8c-0.9-0.1-1.8-0.3-3.2-0.5
			c0.8-2.8,1.6-5.4,2.4-8c-5.3-3.1-6.7-9.4-3.6-15.7c0.7,0,1.3,0,2,0c0.5,0.5,1,1,1.6,1.6c0,1.6,0,3.4,0,6.2
			c1.3-2.3,0.8-3.9,0.8-5.3c0.1-1.7,0-3.3,0-4.7c1.4-2.7,2.7-5.2,4-7.7c1,0,1.8,0,2.8,0c0.1,0.9,0.3,1.8,0.5,3.6
			c1.5-4.7,5.4-6,8.2-8.7c1,0,2.1-0.1,3.1-0.1c1.6-2,3.1-4,4.5-5.8c1,0,1.8,0,2.5,0c0.3,0.6,0.5,1.2,0.6,1.7
			c1.2-1.2,2.5-2.5,3.6-3.6c2,0,3.7,0,5.5,0c0.9-1.1,1.8-2.3,2.2-2.7c6.6-1.3,10.4-5.8,15.5-8.4c0.5,0,1.5,0,2.5,0
			c0.3,0.7,0.7,1.3,1,2c2.5-0.5,4.5-3.7,7.4-0.9c1.8-1,3.5-2.1,5.4-2.8c1.7-0.7,3.3-2.3,5.9-0.5c0.1,0.3,0.7,1.2,1.4,2.4
			C427.3,457.6,430.1,457.3,433,457.5z"/>
		<path fill="#6D6E70" d="M1038,450.5c0,0.5,0,1,0,1.5c-7.7,2.8-15.4,5.9-21.9,11c-5.3,4.2-8.5,10.2-11,16.4
			c-1.8,4.4-3.4,8.9-5.6,13.1c-1,1.8-2.2,3.4-3.1,5.2c-1,2.1-1.7,4.3-2.6,6.6c-1,0-2.1,0-3.2,0c-6.7,6.6-8.1,15.2-9.8,24
			c-3.8,4-10,5.9-12.7,12c0.3,2.1-0.7,4.8,1,7.2c0.4,0.5,0.6,1.3,1.1,1.5c3.3,1.4,5,4.6,7.7,6.7c-1.2,2.9-2.3,5.9-1.7,9.4
			c0.5,0.4,1.3,1,1.9,1.5c0,4.3,0,8.3,0,12.5c1.2,0.8,2.5,1.7,4,2.7c-0.1,3.1-1.5,5.6-3,8.5c0,2,0.1,4.3,0,6.6
			c-0.1,1.9,0.8,3.4,1.8,4.7c0.9,1.1,2.1,2,3.3,2.8c5,3.2,9.7,6.6,14.1,10.6c2,1.8,4.6,3.4,7.2,4.2c3.1,0.9,5.9,2.7,9.3,3.3
			c1.5,5.1,3,10.3,4.6,15.7c-4.2,0.5-7.9,0.1-11.4-1.8c-4.2-2.3-9.1-2.9-13.5-4.9c-1.7-0.8-3.9-0.1-5.9-0.1c-2.2,0-4.3,0-6.5,0
			c-1.3-2.5-1.2-5.4-2.4-7.8c-2.9-1.1-5.8-2.1-8.6-3.2c0-1.2,0-2.3,0-3.5c-3.6-1.5-5.2-4.8-7.1-7.9c-1-1.8-1.5-3.7-2.4-5.5
			c-1.5-3-2.8-6.3-5-8.8c-2.6-3-3.4-6.7-4.4-10.2c-1.4-5.1-2.9-10.1-4.3-15.2c-1-3.7-2-7.5-2.9-11.2c-0.5-1.9-1.4-3.7-1.9-5.7
			c-0.5-1.8,0.9-4-1-5.6c0.4-4.2-1.7-8.3-1-12.5c1.3-1.3,3.1-2.3,3.9-3.8c1.1-2.2,1.7-4.7,2.1-7.1c0.9-6.1,3.8-11.2,7.2-16.1
			c1.7,0,3.1,0,4.8,0c-0.4-4,1.8-7.1,3.7-10c2.7-4,4.5-8.5,6.2-12.9c2-4.9,4-9.6,7.3-14c4.9-6.7,12-9.8,19.1-12.9
			c3.6-1.6,7-4,11.2-4.2c1.6-2.1,4.6,0.3,6.2-1.9c3.6,0.3,6.9-1.6,10.6-1.1c1.3,0.2,3,0.7,4.1-0.9c0.2-0.2,1.1-0.3,1.4-0.1
			C1031.8,451.3,1035,450.2,1038,450.5z M955.4,515.6c-0.5,1.4-1.2,2.9-1.3,4.4c-0.1,1.5-2.2,2.7-0.4,4.7c0-2.3,2.6-2.1,3.2-3.6
			c0.7-1.7,0.9-3.5,1.3-5.5C957,515.6,956.2,515.6,955.4,515.6z"/>
		<path fill="#6D6E70" d="M294,676.5c0,1.9-1.1,3.2-2.1,4.6c-2.2,2.9-4.5,5.8-6.7,8.7c-2.1,2.7-3.2,5.7-3.2,9.2c0,4.5-0.2,9,0,13.5
			c0.2,5.5-0.5,10.8-2.5,16c-1,0-2,0-3.1,0c-0.1,0.4-0.2,0.9-0.4,1.3c-1,1.8-2.3,3.4-2.9,5.3c-0.7,2.1-2,3.2-3.9,3.8
			c-5.6,1.9-9.1,5.9-12.2,10.7c-3.8,5.9-6.9,12.2-11,18c-1.1,1.6-2.6,2.9-3.8,4.4c-0.9,1.1-1.8,2.2-2.9,3.6
			c-0.3-0.6-0.8-1.4-1.1-1.9c-1.2,0-1.9,0-2.9,0c0,2.5,0,5.1,0,8c-2.3,0-4.3,0-6.2,0c0.4-2.7,2.3-4.4,3.9-6.5c0-1.3,0-2.8,0-3.8
			c-2.2-1.1-4-2.1-6.4-3.4c2.1-1.2,3.7-2.4,5.6-3.3c4.4-2.1,8.1-5.2,11.2-8.9c1.6-2,2.5-4.6,2.7-7.3c0.1-1.1,0-2.3,0-3.4
			c8.9-2.9,11.5-10.2,13-16.9c0.3-1.4,0.8-2.7,1-4.1c0.2-1.3,0-2.6,0-3.6c-0.8-1.4-1.4-2.4-1.7-2.9c0.3-3.2,0.6-5.9,0.8-7.8
			c-1.3-2.8-3.2-1.8-4.8-2.2c-0.6-3.8-2.4-6.7-6.3-8.3c0.1-0.7-0.1-1.7,0.3-2.2c3.4-4.7,6.5-9.7,10-14.4c2.7-3.6,5-8,4.7-12.9
			c0.1-3.7,1.4-6.8,4.8-9c0.7,0,1.5,0,2.6,0c2.4,1.8,3.8,4.2,3.7,7.6c-0.1,7.7,0,7.7-3.6,17.5c-0.2,0.6-0.4,1.2-0.5,1.8
			c0,0.3,0.1,0.6,0.3,1.2c2.1-0.4,4.4,0.9,6.6-1.4c-1.3-1.3-1-3-0.8-4.7c0.2-1.5,0.9-3,1.5-4.9c1.5-1.1,3.1,0.6,4.9,1
			c1.7-2.3-1.3-4.2-0.5-6.4c0.7-2.1,1-4.3,1.6-6.9c0.6-0.3,1.6-0.7,2.7-1.2C288.9,668.4,291.5,672.5,294,676.5z"/>
		<path fill="#6D6E70" d="M820,695.5c0.7,2.4-0.7,4.4-1.1,6.6c-0.9,5.1-2.2,10.1-3,15.2c-0.5,3.2-1.8,6.2-2.9,9.2
			c-0.6,1.8-1.7,3.4-3.2,4.7c-0.9,0.8-1.6,1.9-2.4,2.9c-2.6-2.1-5.4-4.5-8.3-6.9c-2.4,1.4-5.3,1.8-6.5,5c-1.1,3-3.2,5.6-4.4,8.6
			c-1.7,4.3-4.9,7.7-7.5,11.4c-1.8,2.6-4.1,4.9-6.4,7.5c-0.4-4.5-1-8.6-1.2-12.8c-0.2-4.2,0-8.3,0-12.5c1.7-3.3,4.6-5.8,5.4-9.8
			c0.8-4.1,2.3-8.1,2.7-12.4c0.7-7,3.2-13.6,7.2-19.5c0.5-0.7,1.4-1.4,2.1-2c1.7-1.5,4-2.3,6-3.4c3.5-1.7,6.8-3.7,10.4-4.9
			c4.3-1.4,8.2-3.3,11.2-6.7c0.5-0.6,6.8-4.1,7.6-4.4c1.3-0.5,2.5-1.2,4.1-1.9c4-0.1,4-0.1,6,1.3c0.5,2.5,0,4.7-1.4,6.8
			c-1.9,2.6-3.2,5.5-6.2,7.4c-4.1,2.7-7.5,6.6-11.8,10.4C818.1,695.5,819.1,695.5,820,695.5z"/>
		<path fill="#6D6E70" d="M214,696.5c-0.1,0.3-0.2,0.6-0.4,0.9c-0.6-0.3-1.3-0.7-1.7-0.9c-1.2,1.4-2,2.8-3.2,3.8
			c-5.8,5.3-5,7.9-6.8,13.2c-1.3,3.8-1,7.7-1,11.6c0,0.8,0.3,1.9-0.1,2.5c-1.7,2.5-0.3,5.4-1.3,8c-1,2.7-2,5.5-3.1,8.5
			c-1.6-0.8-2.9-1.6-4.4-2.4c0-1.5-0.7-2.8,0.5-4.2c0.3-0.3,0.3-0.9,0.3-1.3c0.3-6.3,0.6-12.7,1-19c0.3-4.5-0.9-9.1,0.8-13.6
			c0.5-1.3-0.9-3.2-1.3-4.8c-1.2-4.3-2.9-8.5-3.5-13c0.9-3.3,4.6-6.7,7.7-7c1-0.1,2,0,3.3,0c0,3.4,0,6.6,0,10.5
			c1.8-2.2,3.5-3.7,4.5-5.6c1.2-2.3,2.9-4,4.7-5.5c1.7-1.4,2.6-3.3,4.4-4.7c4-3.3,4.2-3.7,7.9-3.7c1,0,2,0,3,0c0.5,0.5,1,1,1.4,1.4
			c0.7,4.5-2,7.8-4.1,11.2c-2.7,4.2-5.6,8.3-8.4,12.5C214.1,695.1,214.1,695.9,214,696.5z"/>
		<path fill="#6D6E70" d="M739,637.5c0.2-0.7,0.3-1.7,0.7-2.2c2.1-2.2,3.9-4.5,4.5-7.6c0.1-0.6,0.7-1.1,1-1.5
			c3.9,1,7.3,1.9,10.7,2.8c0,0,0,0.3,0,0.5c0,0.8,0,1.7,0,2.5c-1.4,1.4-2.8,2.8-4.3,4.3c-1.6,0.4-3.4,0.5-4.8,1.3
			c-2.5,1.4-5,0.8-7.5,0.7C739.3,638.3,739.1,637.8,739,637.5z"/>
		<path fill="#6D6E70" d="M308,681.5c1.1-3.5,1.7-7.1,2.9-10.6c0.7-2.2,0.1-4.9,0.1-7.4c2.9-1.3,5.8-2.4,9-2c-0.3,1-0.7,2-1,3
			c-0.3,1-0.9,2-1,3c-0.2,1.6,0,3.3,0,4.9c-0.7,0.7-1.3,1.3-2,2c-2.6,0.5-3.5,1.4-4,4C311.6,681.3,311.4,681.5,308,681.5z"/>
		<path fill="#6D6E70" d="M1117,651.5c-1.1,0.2-1.9-0.1-2.6-1c-1.1-1.5-2.3-3-3.5-4.5c-1.1-1.4-2.2-2.8-3.3-4c-2-2.2-3-4.8-4.7-7.4
			c0.9-1.8,1.8-3.8,3.1-6.5c0-0.9,0-2.7,0-4.5c0.5,0,1,0,1.5,0c1.3,1.9,1.6,4.1,1.5,6.4c-0.1,2.7-0.4,5.4,1.5,7.9
			c0.7,0.9,0.4,2.4,0.8,3.6c0.9,2.9,2.3,5.5,4.6,7.6C1116.8,649.7,1117.2,650.4,1117,651.5z"/>
		<path fill="#6D6E70" d="M902,690.5c2.7-2.2,6.2-2.8,9.3-4c3-1.2,6-2.3,9.6-3.6c7.9,3.8,16.4,8.1,25,12c7.7,3.5,15.5,6.9,23.1,10.6
			c3,1.5,6.3,2.4,9.3,4.1c3.4,1.9,7.1,3.6,8.8,7.5c0.6,1.3,1.1,2.5,1.5,3.5c-0.2,1.4-0.4,2.6-0.6,3.8c-0.2,1-1,2.1-0.9,3.1
			c0.1,1.9-0.8,3.3-1.4,4.9c-0.6,1.6-2,2.9-1.7,4.8c0.3,1.8-1.7,2.5-2.2,4.1c-0.6,1.9-0.5,3.9-1.6,5.8c-0.9,1.6-2,3.4-2.4,5.5
			c-0.4,2-2.1,3.7-3.5,5.8c-1.4-1.8-3.8-3-4.6-5.6c-0.2-0.6-1.3-0.8-1.9-1.3c-2-1.9-4.3-3.6-5.8-5.9c-3-4.7-6.7-8.6-11.1-12.1
			c0-1.2-0.5-2.9,0.1-3.4c1.8-1.7,0.1-3.9,1.3-5.5c1.3-1.8,0.2-3.8,0.7-5.8c-2-2.1-3.6-4.7-5.9-6.2c-2.5-1.6-5.2-3.2-8.2-4.2
			c-2.9-1-5.6-2.5-8.4-3.8c-0.8-0.4-2-0.2-2.6-0.8c-3.7-3.3-8.6-4.4-12.9-6.2c-4.1-1.7-7.9-4.2-12.1-5.7
			C902.6,691.8,902.4,691,902,690.5z"/>
		<path fill="#6D6E70" d="M1299,700.5c0,0.3,0,0.7,0,1c-2.2,0.6-2.1,2.3-2,4c-0.5,0-1,0-1.6,0c-2.5-7.8-4.9-15.6-7.5-23.7
			c0.9-0.2,1.8-0.3,2.6-0.4c1.9-2.4,2.2-5.4,3.3-8.1c1-2.8-0.3-5.3-1.4-7.7c-0.8-1.8-1.3-3.9-3.1-5.3c-0.4-0.3-0.3-1.2-0.5-1.9
			c3.4-4,7.1-7.8,9.6-12.5c2.7,1.6,5.5,3.4,8.7,5.3c-0.2,1-0.3,2.3-0.8,3.4c-2,4.5-1.6,9.3-1.2,13.9c0.2,2.2,0.8,5.2,3.8,6.1
			c-1.9,3.4-2.8,7.1-4,10.7C1303.2,690.4,1301.5,695.6,1299,700.5z"/>
		<path fill="#6D6E70" d="M876,733.5c1.5-3.1,2.1-6.5,3-9.8c1.2-4.8,2.4-9.6,4.4-14.2c2.8-0.5,4.4,1.7,6.1,3.1c3.8,3,7.1,6.8,11,9.7
			c3.6,2.6,6.5,5.9,9.7,8.9c0.3,0.3,0.5,0.8,0.7,1.2c-7,0-14,0-20.9,0c-2.5,0-5-0.1-7.5,0C880.4,732.7,878.2,733.2,876,733.5z"/>
		<path fill="#6D6E70" d="M992.3,514.1c1.5,2.5-0.2,3.8-0.7,5.4C989.9,517.5,992.2,516.2,992.3,514.1z"/>
		<path fill="#6D6E70" d="M883.7,681.5c0,0.3,0,0.7,0,1c-0.1,0-0.2,0-0.3,0c0-0.3,0-0.7,0-1C883.5,681.5,883.6,681.5,883.7,681.5z"
			/>
		<path fill="#6D6E70" d="M125.4,464.7c-2.3,1.4-4.1,2.6-6.1,3.8c-0.9-2.5,1.9-2.5,2-3.8C122.7,464.7,123.8,464.7,125.4,464.7z"/>
		<path fill="#6D6E70" d="M228.9,780.6c0,2.8,0,4.8,0,7.8c-1-2.3-1.5-3.6-2.2-5.2C227.4,782.4,228,781.7,228.9,780.6z"/>
		<path fill="#6D6E70" d="M246.7,698.5c0,0.3,0,0.7,0,1c-0.1,0-0.2,0-0.3,0c0-0.3,0-0.7,0-1C246.5,698.5,246.6,698.5,246.7,698.5z"
			/>
		<path fill="#6D6E70" d="M304,770.2c-0.3,0-0.7,0-1,0c0-0.1,0-0.2,0-0.3c0.3,0,0.7,0,1,0C304,769.9,304,770.1,304,770.2z"/>
		<path fill="#6D6E70" d="M391,739.5c2.5-0.3,4.4-1.8,6-3.6c3-3.5,7.3-4,11.3-5.4c0.4-0.2,1.1-0.2,1.5,0c4.9,2,10,0.6,15.1,0.9
			c1,0.1,2-0.4,3.4-0.7c-0.6,3-1.1,5.9-1.6,8.8c-0.2,1.1-0.4,2.2-0.5,3.3c-0.6,4.5-1.1,9-1.1,13.5c0,2-1,4.3-2.2,6
			c-4.3,5.6-7.4,11.8-10,18.3c-2.2-1.7-4.2-3.3-6.4-5c-0.7,0-1.6,0-2.9,0c-0.2,0.9-0.4,2-0.8,3.8c-0.9-3.7-2.6-6.1-3.7-8.8
			c-1.5-3.5-0.6-6.6,0.4-9.6c0.8-2.5,2.4-4.6,3.8-7.1c0-1.1,0-2.4,0-3.8c-0.2-0.2-0.5-0.4-0.7-0.5c-3.6-1.4-6.9-3.5-10.2-5.5
			c-0.5-0.3-0.7-1-1.1-1.5C391,741.5,391,740.5,391,739.5z"/>
		<path fill="#6D6E70" d="M427.1,718.3c2.4-1.4,3.8-2.2,6.2-3.6c-0.6,1.8-0.9,2.7-1.2,3.6C430.6,718.3,429.4,718.3,427.1,718.3z"/>
		<path fill="#6D6E70" d="M1463.9,537.9c-1.7-0.8-2.8-1.4-4.4-2.2c1.8,0,3,0,4.4,0C1463.9,536.2,1463.9,536.8,1463.9,537.9z"/>
		<path fill="#6D6E70" d="M1457.8,531.5c0,0.7,0,1.3,0,2c-0.2,0-0.3,0-0.5,0c0-0.7,0-1.3,0-2
			C1457.4,531.5,1457.6,531.5,1457.8,531.5z"/>
	</g>
</g>
<g>
	<g>
		<circle fill="#FFFFFF" cx="153.1" cy="505.5" r="34"/>
	</g>
	<g>
		<circle fill="#FFFFFF" cx="466.8" cy="506.6" r="34"/>
	</g>
	<g>
		<circle fill="#FFFFFF" cx="742.1" cy="503.9" r="34"/>
	</g>
	<g>
		<circle fill="#FFFFFF" cx="1071.3" cy="500.6" r="34"/>
	</g>
	<g>
		<circle fill="#FFFFFF" cx="1311.2" cy="521.5" r="34"/>
	</g>
	<g>
		<circle fill="#FFFFFF" cx="1545.2" cy="524.6" r="34"/>
	</g>
</g>
<g>
	<g>
		<circle fill="#FFFFFF" cx="92.4" cy="223.5" r="55.6"/>
	</g>
	<g>
		<circle fill="#FFFFFF" cx="292.5" cy="294.8" r="50.7"/>
	</g>
	<g>
		<circle fill="#FFFFFF" cx="600.2" cy="313.3" r="60.4"/>
	</g>
	<g>
		<circle fill="#FFFFFF" cx="325.9" cy="170.1" r="61.1"/>
	</g>
	<g>
		<circle fill="#FFFFFF" cx="960.3" cy="211.1" r="60.4"/>
	</g>
	<g>
		<circle fill="#FFFFFF" cx="1206.8" cy="327.3" r="54.9"/>
	</g>
	<g>
		<circle fill="#FFFFFF" cx="1615.5" cy="306.8" r="52.6"/>
	</g>
	<g>
		<circle fill="#FFFFFF" cx="1465.1" cy="194" r="54.2"/>
	</g>
</g>
<g>
	<g>
		<circle fill="#FFFFFF" cx="1564.8" cy="44.9" r="16.7"/>
	</g>
	<g>
		<circle fill="#FFFFFF" cx="1086.6" cy="92.2" r="16.7"/>
	</g>
	<g>
		<circle fill="#FFFFFF" cx="572.3" cy="51.1" r="16.7"/>
	</g>
	<g>
		<circle fill="#FFFFFF" cx="627.5" cy="120.7" r="16.7"/>
	</g>
	<g>
		<circle fill="#FFFFFF" cx="265" cy="75.2" r="16.7"/>
	</g>
	<g>
		<circle fill="#FFFFFF" cx="322.9" cy="16.7" r="16.7"/>
	</g>
</g>
<g id="Capa_1" display="none">
</g>
<g id="Capa_1_1_" display="none">
</g>
<g id="Capa_1_2_" display="none">
</g>
<g id="Capa_1_3_" display="none">
</g>
<g id="Capa_1_4_" display="none">
</g>
<g>
	<g>
		<path fill="#6D6E70" d="M223.9,96.4h-55.6c-5.4,0-9.7,4.4-9.7,9.7v112.9c0,5.4,4.4,9.7,9.7,9.7h55.6c5.4,0,9.7-4.4,9.7-9.7V106.2
			C233.6,100.8,229.3,96.4,223.9,96.4z M163,114.1h66.2v83.8H163V114.1z M168.3,100.9h55.6c2.9,0,5.3,2.4,5.3,5.3v3.5H163v-3.5
			C163,103.2,165.4,100.9,168.3,100.9z M223.9,224.4h-55.6c-2.9,0-5.3-2.4-5.3-5.3v-16.8h66.2v16.8
			C229.2,222,226.8,224.4,223.9,224.4z"/>
		<path fill="#6D6E70" d="M196.1,204.6c-4.9,0-8.8,4-8.8,8.8c0,4.9,4,8.8,8.8,8.8c4.9,0,8.8-4,8.8-8.8
			C205,208.5,201,204.6,196.1,204.6z M196.1,217.8c-2.4,0-4.4-2-4.4-4.4c0-2.4,2-4.4,4.4-4.4s4.4,2,4.4,4.4
			C200.5,215.8,198.6,217.8,196.1,217.8z"/>
		<path fill="#6D6E70" d="M187.3,107.5h8.8c1.2,0,2.2-1,2.2-2.2c0-1.2-1-2.2-2.2-2.2h-8.8c-1.2,0-2.2,1-2.2,2.2
			C185.1,106.5,186.1,107.5,187.3,107.5z"/>
		<path fill="#6D6E70" d="M202.7,107.5h2.2c1.2,0,2.2-1,2.2-2.2c0-1.2-1-2.2-2.2-2.2h-2.2c-1.2,0-2.2,1-2.2,2.2
			C200.5,106.5,201.5,107.5,202.7,107.5z"/>
	</g>
	<g>
		<path fill="#6D6E70" d="M676.4,30.8c-25.2,4.4-40.6,36.4-30.4,59.1c11.2,24.9,39.1,30.1,61.8,17.5c2.8-1.5,0.3-5.8-2.5-4.3
			c-17.3,9.6-38,8.7-50.6-7.8c-12.4-16.2-7.3-37.3,6.4-50.7c16.8-16.4,43-10.3,54,9.3c5.4,9.6,5.4,23.5-2.4,31.7
			c-4.7,5-10.8,0.2-13.2-3.8c-1.4-2.4-2-5.8-2.4-8.6c0.8-5.6,0.2-11.7-0.6-16.5c-0.5-2.8-4.8-2.1-4.9,0.7c0,1.8,0,3.7,0,5.6
			c-6-15.4-34.1-5.5-30.3,11.4c2.5,11.1,13.2,17.3,24,14.4c4.3-1.1,7.2-3.6,9-6.8c1.6,3.6,4,6.8,7.7,9.1c11.2,7,19.4-7.4,21.2-16.3
			C728.7,47.9,701.1,26.4,676.4,30.8z M688.5,81.1c-7.7,9.1-21.6,0.7-22.6-9.1c-1.3-12.2,19.1-16.9,23.8-5.8c0.4,0.9,1.3,1.1,2,0.8
			c0.1,2.2,0.2,4.4,0.5,6.5C691.6,76.3,690.4,78.9,688.5,81.1z"/>
	</g>
	<g>
		<g>
			<path fill="#DB3340" d="M68.2,195.8v56.7c0,4.9,4.8,9.9,9.7,10.4c0.3,0,0.8,0,1,0c3.7,0,6.9-2.3,9.4-4.1c0.4-0.3,0.9-0.6,1.3-0.9
				c3.5-2.4,7.1-4.9,10.4-7.4c2.9-2.1,5.9-4.3,8.9-6.4c2.8-1.9,5.6-3.9,8.3-5.8l3-2.1c4.8-3.3,8.9-6.1,8.9-12c0-6.2-5-9.5-8.9-12
				c-0.6-0.4-1.2-0.8-1.8-1.2c-0.7-0.5-1.4-1-2.1-1.5c-6-4.3-11.9-8.6-17.9-12.7c-0.8-0.6-1.7-1.2-2.5-1.7c-2.2-1.5-4.5-3.1-6.7-4.6
				c-0.5-0.3-1.1-0.8-1.7-1.2c-2.3-1.7-5.1-3.9-8.5-3.9c-1.4,0-3.1,0.4-4.3,1C72,188,68.2,191.5,68.2,195.8z M74.5,195.8
				c0-1.2,1.7-3,3.4-3.9c0.3-0.2,0.7-0.2,1-0.2c1.3,0,3.3,1.4,4.8,2.6c0.7,0.6,1.5,1.1,2.2,1.5c2.2,1.4,4.4,2.9,6.6,4.4
				c0.9,0.6,1.7,1.2,2.6,1.8c6,4.1,11.8,8.3,17.8,12.6c0.7,0.5,1.5,1,2.2,1.5c0.6,0.4,1.2,0.8,1.8,1.3c4.3,2.8,6.2,4.4,6.2,6.8
				c0,2.3-1.2,3.5-6.2,6.9l-3,2.2c-2.7,1.9-5.5,3.9-8.2,5.8c-3.1,2.1-6.1,4.3-9.1,6.5c-3.3,2.4-6.8,5-10.2,7.3
				c-0.4,0.3-0.9,0.6-1.4,1c-1.8,1.3-4,2.9-5.6,2.9c-0.1,0-0.5,0-0.6,0c-1.7-0.2-4-2.4-4-4.1L74.5,195.8L74.5,195.8z"/>
		</g>
	</g>
	<g>
		<path fill="#E8B81A" d="M1495.8,213.9c-0.5-5.2-4.9-9.3-10.1-9.3c-3.3,0-6.3,1.6-8.2,4.3c-0.4-0.1-0.7-0.1-1.1-0.1
			c-2.9,0-5.6,2-6.4,4.8c-2.4,1.4-4,4.1-4,7c0,4.4,3.5,8.1,7.9,8.1h13.7c0.1,0,0.1,0,0.2,0c0.1,0,0.2,0,0.2,0h5.5
			c4.1,0,7.4-3.4,7.4-7.6C1500.8,217.8,1498.8,214.9,1495.8,213.9z M1493.4,226.1l-5.5,0l-0.2,0l-13.9,0c-2.9,0-5.3-2.5-5.3-5.5
			c0-2.1,1.2-4.1,3.1-5l0.6-0.3l0.1-0.6c0.4-2,2.1-3.4,4.1-3.4c0.4,0,0.9,0.1,1.3,0.2l1,0.3l0.5-0.9c1.4-2.4,3.8-3.9,6.5-3.9
			c4.1,0,7.6,3.5,7.6,7.8l0,1l1,0.2c2.3,0.4,4,2.5,4,5C1498.3,223.9,1496.1,226.1,1493.4,226.1z"/>
		<path fill="#E8B81A" d="M1463,209.6c-1,0-2.1,0-3.1-0.1c-0.6,0-1.2-0.1-1.8-0.1c-0.4,0-0.8,0-1.1-0.1c-0.8-0.1-1.6-0.1-2.3-0.2
			c-0.1,0-0.3,0-0.4,0c-0.9-0.1-1.7-0.2-2.6-0.3c0,0,0,0-0.1,0c-4.3-0.6-8-1.6-10.9-2.8c0,0,0,0,0,0c-0.5-0.2-1-0.4-1.5-0.7
			c-0.1,0-0.1-0.1-0.2-0.1c-0.4-0.2-0.8-0.4-1.2-0.6c-0.1-0.1-0.2-0.1-0.3-0.2c-0.3-0.2-0.6-0.4-0.9-0.6c-0.1-0.1-0.2-0.2-0.3-0.2
			c-0.2-0.2-0.5-0.4-0.7-0.5c-0.1-0.1-0.2-0.2-0.3-0.3c-0.2-0.2-0.3-0.3-0.5-0.5c-0.1-0.1-0.2-0.2-0.3-0.4c-0.1-0.2-0.2-0.3-0.3-0.5
			c-0.1-0.1-0.1-0.3-0.2-0.4c-0.1-0.2-0.1-0.3-0.1-0.5c0-0.2-0.1-0.4-0.1-0.6v-10.4c0,0,0.1,0.1,0.1,0.1c0.3,0.2,0.6,0.5,0.9,0.7
			c4.8,3.6,14.3,6.4,28.2,6.4c13.8,0,23.3-2.8,28.1-6.4c0.4-0.3,0.7-0.6,1.1-0.9h0v11c0,0.7,0.6,1.3,1.3,1.3c0.7,0,1.3-0.6,1.3-1.3
			v-15.2v-0.6v-15.2V169c0-0.2-0.1-0.4-0.2-0.6c-1.5-5.4-12.4-10.8-31.5-10.8c-19.1,0-30.1,5.4-31.5,10.8c-0.1,0.2-0.2,0.4-0.2,0.6
			v0.6v15.2v0.6v14.6v0.6V216c0,0.2,0.1,0.4,0.1,0.6c1.4,6.1,13.6,9.7,25.1,10.6c0,0,0.1,0,0.1,0c0.7,0,1.2-0.5,1.3-1.2
			c0.1-0.7-0.5-1.3-1.2-1.4c-14.1-1.1-22.3-5.3-22.9-8.9c0-0.1,0-0.1,0-0.2v-10.7c0,0,0.1,0.1,0.1,0.1c0.3,0.2,0.6,0.5,0.9,0.7
			c4.8,3.6,14.3,6.4,28.2,6.4c0.7,0,1.3-0.6,1.3-1.3S1463.7,209.6,1463,209.6z M1434.6,175.1c0.4,0.3,0.8,0.6,1.2,0.9
			c0.1,0.1,0.2,0.1,0.3,0.2c0.4,0.2,0.8,0.5,1.2,0.7c0.2,0.1,0.3,0.2,0.5,0.2c0.5,0.2,0.9,0.5,1.5,0.7c0.1,0,0.2,0.1,0.2,0.1
			c0.6,0.3,1.2,0.5,1.9,0.7c0.2,0.1,0.4,0.1,0.6,0.2c0.5,0.2,1.1,0.3,1.6,0.5c0.2,0.1,0.4,0.1,0.6,0.2c0.7,0.2,1.5,0.4,2.3,0.6
			c0.1,0,0.2,0,0.3,0.1c0.7,0.2,1.4,0.3,2.2,0.4c0.3,0,0.5,0.1,0.8,0.1c0.7,0.1,1.5,0.2,2.2,0.3c0.2,0,0.4,0.1,0.6,0.1
			c0.9,0.1,1.9,0.2,2.9,0.3c0.2,0,0.5,0,0.8,0.1c0.8,0.1,1.6,0.1,2.5,0.1c0.3,0,0.6,0,0.9,0c1.1,0,2.2,0.1,3.4,0.1
			c1.2,0,2.3,0,3.4-0.1c0.3,0,0.6,0,0.9,0c0.8,0,1.7-0.1,2.5-0.1c0.3,0,0.5,0,0.8-0.1c1-0.1,2-0.2,2.9-0.3c0.2,0,0.4-0.1,0.6-0.1
			c0.8-0.1,1.5-0.2,2.2-0.3c0.3,0,0.5-0.1,0.8-0.1c0.8-0.1,1.5-0.3,2.2-0.4c0.1,0,0.2,0,0.3-0.1c0.8-0.2,1.6-0.4,2.3-0.6
			c0.2-0.1,0.4-0.1,0.6-0.2c0.6-0.2,1.1-0.3,1.6-0.5c0.2-0.1,0.4-0.1,0.6-0.2c0.7-0.2,1.3-0.5,1.9-0.7c0.1,0,0.2-0.1,0.2-0.1
			c0.5-0.2,1-0.5,1.5-0.7c0.2-0.1,0.3-0.2,0.5-0.2c0.4-0.2,0.8-0.4,1.2-0.7c0.1-0.1,0.2-0.1,0.3-0.2c0.4-0.3,0.9-0.6,1.2-0.9
			c0.1-0.1,0.2-0.2,0.3-0.2c0.2-0.1,0.3-0.3,0.5-0.4v10.4c0,0.2-0.1,0.4-0.1,0.6c0,0.2-0.1,0.3-0.1,0.5c-0.1,0.1-0.1,0.3-0.2,0.4
			c-0.1,0.2-0.2,0.3-0.3,0.5c-0.1,0.1-0.2,0.2-0.3,0.4c-0.1,0.2-0.3,0.3-0.5,0.5c-0.1,0.1-0.2,0.2-0.3,0.3c-0.2,0.2-0.4,0.4-0.7,0.5
			c-0.1,0.1-0.2,0.2-0.3,0.2c-0.3,0.2-0.6,0.4-0.9,0.6c-0.1,0.1-0.2,0.1-0.3,0.2c-0.4,0.2-0.8,0.4-1.2,0.6c-0.1,0-0.1,0.1-0.2,0.1
			c-0.5,0.2-1,0.4-1.5,0.7c0,0,0,0,0,0c-2.9,1.2-6.6,2.1-10.9,2.8c0,0,0,0-0.1,0c-0.8,0.1-1.7,0.2-2.6,0.3c-0.1,0-0.3,0-0.4,0
			c-0.8,0.1-1.5,0.2-2.3,0.2c-0.4,0-0.7,0-1.1,0.1c-0.6,0-1.2,0.1-1.8,0.1c-1,0-2,0.1-3.1,0.1c-1,0-2.1,0-3.1-0.1
			c-0.6,0-1.2-0.1-1.8-0.1c-0.4,0-0.8,0-1.1-0.1c-0.8-0.1-1.6-0.1-2.3-0.2c-0.1,0-0.3,0-0.4,0c-0.9-0.1-1.7-0.2-2.6-0.3
			c0,0,0,0-0.1,0c-4.3-0.6-8-1.6-10.9-2.8c0,0,0,0,0,0c-0.5-0.2-1-0.4-1.5-0.7c-0.1,0-0.1-0.1-0.2-0.1c-0.4-0.2-0.8-0.4-1.2-0.6
			c-0.1-0.1-0.2-0.1-0.3-0.2c-0.3-0.2-0.6-0.4-0.9-0.6c-0.1-0.1-0.2-0.2-0.3-0.2c-0.2-0.2-0.5-0.4-0.7-0.5c-0.1-0.1-0.2-0.2-0.3-0.3
			c-0.2-0.2-0.3-0.3-0.5-0.5c-0.1-0.1-0.2-0.2-0.3-0.4c-0.1-0.2-0.2-0.3-0.3-0.5c-0.1-0.1-0.1-0.3-0.2-0.4c-0.1-0.2-0.1-0.3-0.1-0.5
			c0-0.2-0.1-0.4-0.1-0.6v-10.4c0.2,0.1,0.3,0.3,0.5,0.4C1434.4,175,1434.5,175.1,1434.6,175.1z M1463,160.2c17.2,0,29.2,5,29.2,9.5
			c0,4.5-12,9.5-29.2,9.5c-17.2,0-29.2-5-29.2-9.5C1433.8,165.2,1445.8,160.2,1463,160.2z"/>
	</g>
	<g>
		<path id="path8861" fill="#0C97CE" d="M1204.5,282.6c-25.2,0-45.6,20.4-45.6,45.6s20.4,45.6,45.6,45.6s45.6-20.4,45.6-45.6
			S1229.7,282.6,1204.5,282.6z M1204.5,285.7c1,0,2,0,3,0.1c3.2,3.1,6,7.7,8.2,13.4c-2.1,1.1-3.6,3-4.1,5.4H1192
			c2.3-8.1,5.8-14.7,10-18.8C1202.8,285.8,1203.6,285.7,1204.5,285.7z M1197.2,286.3c-3.7,4.7-6.6,11-8.6,18.2h-19.4
			C1175.5,295.1,1185.6,288.4,1197.2,286.3z M1212.2,286.4c11.5,2.1,21.4,8.8,27.6,18.2H1227c-0.7-3.6-3.9-6.3-7.7-6.3
			c-0.2,0-0.4,0-0.6,0C1216.9,293.7,1214.7,289.7,1212.2,286.4z M1219.3,301.4c2.6,0,4.7,2.1,4.7,4.7s-2.1,4.7-4.7,4.7
			c-2.6,0-4.7-2.1-4.7-4.7S1216.7,301.4,1219.3,301.4z M1219.3,302.2c-2.2,0-3.9,1.8-3.9,3.9c0,0.4,0.3,0.8,0.8,0.8
			c0.4,0,0.8-0.3,0.8-0.8c0,0,0,0,0,0c0-1.3,1-2.4,2.4-2.4c0.4,0,0.8-0.3,0.8-0.8C1220.1,302.6,1219.7,302.2,1219.3,302.2
			C1219.3,302.2,1219.3,302.2,1219.3,302.2z M1167.3,307.7h20.6c-0.9,4-1.6,8.3-1.9,12.7c-3.1,0.6-5.5,3.1-6.1,6.1h-17.7
			C1162.3,319.8,1164.2,313.4,1167.3,307.7z M1191.1,307.7h20.4c0.7,3.6,3.9,6.3,7.7,6.3c0.1,0,0.1,0,0.2,0c0.6,4,1,8.2,1.1,12.6
			h-25.3c-0.6-3.1-3.1-5.5-6.1-6.1C1189.5,316,1190.2,311.7,1191.1,307.7z M1227,307.7h14.7c3.1,5.6,4.9,12,5.2,18.9h-23.2
			c-0.1-4.6-0.5-9-1.1-13.3C1224.8,312.3,1226.5,310.2,1227,307.7z M1187.5,323.4c2.6,0,4.7,2.1,4.7,4.7c0,2.6-2.1,4.7-4.7,4.7
			l-0.8-0.1c-2.2-0.4-3.9-2.3-3.9-4.6c0-2.6,2-4.7,4.6-4.7h0C1187.4,323.5,1187.5,323.4,1187.5,323.4z M1187.5,324.2
			c-2.2,0-3.9,1.8-3.9,3.9c0,0.4,0.3,0.8,0.8,0.8c0.4,0,0.8-0.3,0.8-0.8c0,0,0,0,0,0c0-1.3,1-2.4,2.4-2.4c0.4,0,0.8-0.3,0.8-0.8
			C1188.3,324.6,1188,324.2,1187.5,324.2C1187.5,324.2,1187.5,324.2,1187.5,324.2z M1162.1,329.7h17.7c0.6,3.1,3.1,5.5,6.1,6.1
			c0.4,4.4,1,8.7,1.9,12.7h-20.6C1164.2,343,1162.3,336.6,1162.1,329.7z M1195.2,329.7h25.3c-0.1,4.3-0.4,8.6-1.1,12.6
			c-0.1,0-0.1,0-0.2,0c-3.8,0-7,2.7-7.7,6.3h-20.4c-1-4-1.7-8.3-2-12.7C1192.2,335.2,1194.6,332.8,1195.2,329.7z M1223.7,329.7h23.2
			c-0.2,6.8-2.1,13.2-5.2,18.9H1227c-0.5-2.5-2.2-4.5-4.4-5.6C1223.2,338.8,1223.6,334.3,1223.7,329.7z M1219.3,345.5
			c2.6,0,4.7,2.1,4.7,4.7c0,2.6-2.1,4.7-4.7,4.7c-2.6,0-4.7-2.1-4.7-4.7C1214.6,347.5,1216.7,345.5,1219.3,345.5z M1219.3,346.2
			c-2.2,0-3.9,1.8-3.9,3.9c0,0.4,0.3,0.8,0.8,0.8c0.4,0,0.8-0.3,0.8-0.8c0,0,0,0,0,0c0-1.3,1-2.4,2.4-2.4c0.4,0,0.8-0.3,0.8-0.8
			C1220.1,346.6,1219.7,346.2,1219.3,346.2C1219.3,346.2,1219.3,346.2,1219.3,346.2z M1169.2,351.7h19.4c2,7.3,4.9,13.6,8.6,18.2
			C1185.6,368,1175.5,361.2,1169.2,351.7z M1192,351.7h19.6c0.5,2.3,2,4.3,4.1,5.4c-2.2,5.6-5,10.3-8.2,13.4c-1,0.1-2,0.1-3,0.1
			c-0.9,0-1.7,0-2.6-0.1C1197.8,366.5,1194.3,359.8,1192,351.7z M1227,351.7h12.8c-6.3,9.3-16.1,16.1-27.6,18.2
			c2.6-3.3,4.7-7.3,6.5-11.9c0.2,0,0.4,0,0.6,0C1223.1,358,1226.2,355.3,1227,351.7z"/>
	</g>
	<g>
		<path fill="#2C3033" d="M472.1,202.2l17.3,17.3l-43.8,43.8L428.3,246L472.1,202.2z M502.5,198.1l-7.7-7.7c-3-3-7.8-3-10.8,0
			l-7.4,7.4l17.3,17.3l8.6-8.6C504.8,204.1,504.8,200.4,502.5,198.1z M419.2,270.4c-0.3,1.4,1,2.7,2.4,2.3l19.3-4.7l-17.3-17.3
			L419.2,270.4z"/>
	</g>
	<g>
		<g>
			<path fill="#2C3033" d="M1420.8,416.5c-4.1-3.9-9.5-6-15.2-5.8c-10.9,0.4-19.9,9.7-19.9,20.6c0,4.9,1.7,9.6,4.8,13.3
				c4.5,5.4,7,12.2,7,19.2c0,0-0.5,3.2,1.8,3.2h14.3c2.3,0,1.8-3.2,1.8-3.2c0-6.8,2.5-13.6,7.3-19.5c2.9-3.7,4.5-8.2,4.5-12.9
				C1427.2,425.8,1424.9,420.4,1420.8,416.5L1420.8,416.5z M1419.8,442.1c-5.2,6.5-7.9,13.8-8,21.4h-10.7
				c-0.1-7.7-2.9-15.1-7.8-21.1c-2.6-3.1-4-7-3.9-11c0-9,7.4-16.7,16.4-17c4.7-0.2,9.2,1.5,12.5,4.8c3.4,3.3,5.3,7.6,5.3,12.3
				C1423.5,435.4,1422.3,439,1419.8,442.1z"/>
			<path fill="#2C3033" d="M1430.3,404.6c-0.7-0.7-1.9-0.7-2.6,0l-4.4,4.4c-0.7,0.7-0.7,1.9,0,2.6c0.7,0.7,1.9,0.7,2.6,0l4.4-4.4
				C1431,406.5,1431,405.3,1430.3,404.6z"/>
			<path fill="#2C3033" d="M1413.7,469.5h-14.5c-1,0-1.8,0.8-1.8,1.8c0,1,0.8,1.8,1.8,1.8h14.5c1,0,1.8-0.8,1.8-1.8
				C1415.5,470.3,1414.7,469.5,1413.7,469.5z"/>
			<path fill="#2C3033" d="M1410.9,476.3h-9c-1,0-1.8,0.8-1.8,1.8c0,1,0.8,1.8,1.8,1.8h9c1,0,1.8-0.8,1.8-1.8
				C1412.8,477.1,1411.9,476.3,1410.9,476.3z"/>
			<path fill="#2C3033" d="M1406.4,404.6c1,0,1.8-0.8,1.8-1.8v-6.2c0-1-0.8-1.8-1.8-1.8s-1.8,0.8-1.8,1.8v6.2
				C1404.6,403.8,1405.4,404.6,1406.4,404.6z"/>
			<path fill="#2C3033" d="M1389.6,411.6c0.7-0.7,0.7-1.9,0-2.6l-4.4-4.4c-0.7-0.7-1.9-0.7-2.6,0c-0.7,0.7-0.7,1.9,0,2.6l4.4,4.4
				C1387.7,412.3,1388.9,412.3,1389.6,411.6z"/>
			<path fill="#2C3033" d="M1438.4,426.7h-6.2c-1,0-1.8,0.8-1.8,1.8c0,1,0.8,1.8,1.8,1.8h6.2c1,0,1.8-0.8,1.8-1.8
				C1440.2,427.5,1439.4,426.7,1438.4,426.7z"/>
			<path fill="#2C3033" d="M1380.8,426.7h-6.2c-1,0-1.8,0.8-1.8,1.8c0,1,0.8,1.8,1.8,1.8h6.2c1,0,1.8-0.8,1.8-1.8
				C1382.6,427.5,1381.8,426.7,1380.8,426.7z"/>
		</g>
	</g>
	<g>
		<g>
			<g>
				<path fill="#6D6E70" d="M1225.6,28.5V48h-109.9v73.3h7.3v7.3h4.9v-7.3h61.1v4.9c0,1.3-1.1,2.4-2.4,2.4h-44c-4,0-7.3,3.3-7.3,7.3
					v4.9h-9.8v44h102.6v-44h-87.9V136c0-1.3,1.1-2.4,2.4-2.4h44c4,0,7.3-3.3,7.3-7.3v-4.9h39.1v7.3h4.9v-7.3h7.3v-4.9h26.9V28.5
					H1225.6z M1223.2,145.8V180h-92.8v-34.2H1223.2z M1240.3,116.4h-119.7V52.9h119.7V116.4z M1267.1,111.6h-22v-8.4
					c1.5,0.7,3.2,1,4.9,1c6.7,0,12.2-5.5,12.2-12.2c0-6.7-5.5-12.2-12.2-12.2c-1.7,0-3.4,0.4-4.9,1V48h-14.7V33.4h36.6V111.6z
					 M1245.2,97.4V86.6c1.3-1.2,3.1-1.9,4.9-1.9c4,0,7.3,3.3,7.3,7.3c0,4-3.3,7.3-7.3,7.3C1248.2,99.3,1246.5,98.6,1245.2,97.4z"/>
				<rect x="1125.5" y="106.7" fill="#6D6E70" width="17.1" height="4.9"/>
				<rect x="1147.4" y="106.7" fill="#6D6E70" width="7.3" height="4.9"/>
				<rect x="1159.7" y="106.7" fill="#6D6E70" width="7.3" height="4.9"/>
				<rect x="1235.4" y="38.3" fill="#6D6E70" width="26.9" height="4.9"/>
				<rect x="1250" y="48" fill="#6D6E70" width="12.2" height="4.9"/>
				<rect x="1250" y="57.8" fill="#6D6E70" width="12.2" height="4.9"/>
				<rect x="1257.4" y="67.6" fill="#6D6E70" width="4.9" height="4.9"/>
				<rect x="1171.9" y="57.8" fill="#6D6E70" width="12.2" height="4.9"/>
				<rect x="1159.7" y="170.2" fill="#6D6E70" width="39.1" height="4.9"/>
				<rect x="1149.9" y="170.2" fill="#6D6E70" width="4.9" height="4.9"/>
				<rect x="1135.2" y="170.2" fill="#6D6E70" width="9.8" height="4.9"/>
				<rect x="1135.2" y="160.4" fill="#6D6E70" width="12.2" height="4.9"/>
				<rect x="1152.3" y="160.4" fill="#6D6E70" width="4.9" height="4.9"/>
				<rect x="1162.1" y="160.4" fill="#6D6E70" width="4.9" height="4.9"/>
				<rect x="1171.9" y="160.4" fill="#6D6E70" width="4.9" height="4.9"/>
				<rect x="1181.6" y="160.4" fill="#6D6E70" width="4.9" height="4.9"/>
				<rect x="1191.4" y="160.4" fill="#6D6E70" width="4.9" height="4.9"/>
				<rect x="1201.2" y="160.4" fill="#6D6E70" width="4.9" height="4.9"/>
				<rect x="1211" y="160.4" fill="#6D6E70" width="7.3" height="4.9"/>
				<rect x="1135.2" y="150.6" fill="#6D6E70" width="4.9" height="4.9"/>
				<rect x="1145" y="150.6" fill="#6D6E70" width="4.9" height="4.9"/>
				<rect x="1154.8" y="150.6" fill="#6D6E70" width="4.9" height="4.9"/>
				<rect x="1164.5" y="150.6" fill="#6D6E70" width="4.9" height="4.9"/>
				<rect x="1174.3" y="150.6" fill="#6D6E70" width="4.9" height="4.9"/>
				<rect x="1184.1" y="150.6" fill="#6D6E70" width="4.9" height="4.9"/>
				<rect x="1193.9" y="150.6" fill="#6D6E70" width="4.9" height="4.9"/>
				<rect x="1203.6" y="150.6" fill="#6D6E70" width="4.9" height="4.9"/>
				<rect x="1213.4" y="150.6" fill="#6D6E70" width="4.9" height="4.9"/>
				<rect x="1203.6" y="170.2" fill="#6D6E70" width="4.9" height="4.9"/>
				<rect x="1213.4" y="170.2" fill="#6D6E70" width="4.9" height="4.9"/>
				<path fill="#6D6E70" d="M1254.9,140.9c-6.7,0-12.2,5.5-12.2,12.2v19.5c0,6.7,5.5,12.2,12.2,12.2c6.7,0,12.2-5.5,12.2-12.2v-19.5
					C1267.1,146.4,1261.7,140.9,1254.9,140.9z M1262.3,172.6c0,4-3.3,7.3-7.3,7.3c-4,0-7.3-3.3-7.3-7.3v-19.5c0-4,3.3-7.3,7.3-7.3
					c4,0,7.3,3.3,7.3,7.3V172.6z"/>
				<rect x="1252.5" y="150.6" fill="#6D6E70" width="4.9" height="4.9"/>
			</g>
		</g>
	</g>
	<g>
		<g>
			<path fill="#2C3033" d="M393.5,6.2v84.4l-15.7,31.5c-0.5,1.1-0.5,2.3,0.1,3.3c0.6,1,1.7,1.6,2.9,1.6h159.5l0,0
				c1.9,0,3.4-1.5,3.4-3.4c0-0.6-0.2-1.3-0.5-1.8l-15.4-31.2V6.2c0-1.9-1.5-3.4-3.4-3.4H396.9C395,2.9,393.5,4.3,393.5,6.2z
				 M440.5,119l1.8-3.5h36.6l1.7,3.5H440.5z M400.2,9.6h120.8V88H400.2V9.6L400.2,9.6z M522.3,94.8l12.6,25.5h-46.1l-4.8-9.7
				c-0.6-1.2-1.7-1.9-3-1.9h-40.7c-1.3,0-2.5,0.7-3,1.9l-4.8,9.7h-46.1L399,94.8H522.3z"/>
		</g>
	</g>
	<g>
		<g>
			<g>
				<path fill="#6D6E70" d="M316.7,394.3h-78.3c-3.6,0-6.6,2.9-6.6,6.6v47c0,3.6,2.9,6.6,6.6,6.6h5.1v17.5c0,1.1,0.7,2.1,1.7,2.5
					c0.3,0.1,0.7,0.2,1.1,0.2c0.7,0,1.4-0.3,1.9-0.8l19.4-19.4h3.9c1.5,0,2.8-1.2,2.8-2.8c0-1.5-1.2-2.8-2.8-2.8c0,0-5.2,0-5.2,0
					c-0.6,0-1.3,0.3-1.8,0.8L249,465.2c0,0,0-13.8,0-13.8c-0.1-1.4-1.3-2.5-2.7-2.5h-7.8c-0.6,0-1.1-0.5-1.1-1.1v-47
					c0-0.6,0.5-1.1,1.1-1.1h78.3c0.6,0,1.1,0.5,1.1,1.1v18c0,1.5,1.2,2.8,2.8,2.8s2.8-1.2,2.8-2.8v-18
					C323.3,397.2,320.3,394.3,316.7,394.3z"/>
			</g>
		</g>
		<g>
			<g>
				<path fill="#6D6E70" d="M342,427.9h-54.8c-3.6,0-6.6,2.9-6.6,6.6v32c0,3.6,2.9,6.6,6.6,6.6h34.3l13.9,13.9
					c0.5,0.5,1.2,0.8,1.9,0.8c0.4,0,0.7-0.1,1.1-0.2c1-0.4,1.7-1.4,1.7-2.5v-12h1.9c3.6,0,6.6-2.9,6.6-6.6v-32
					C348.5,430.9,345.6,427.9,342,427.9z M343,466.6c0,0.6-0.5,1.1-1.1,1.1h-4.6c-1.4,0-2.6,1.1-2.7,2.5c0,0.1,0,8.3,0,8.3l-10-10
					c0,0,0,0,0,0c0,0-0.1-0.1-0.1-0.1c-0.5-0.4-1.1-0.7-1.8-0.7h-35.5c-0.6,0-1.1-0.5-1.1-1.1v-32c0-0.6,0.5-1.1,1.1-1.1H342
					c0.6,0,1.1,0.5,1.1,1.1V466.6z"/>
			</g>
		</g>
		<g>
			<g>
				<path fill="#6D6E70" d="M314.6,447.8c-1.5,0-2.8,1.2-2.8,2.8s1.2,2.8,2.8,2.8c1.5,0,2.8-1.2,2.8-2.8S316.1,447.8,314.6,447.8z"
					/>
			</g>
		</g>
		<g>
			<g>
				<path fill="#6D6E70" d="M302.6,412.5h-50.1c-1.5,0-2.8,1.2-2.8,2.8s1.2,2.8,2.8,2.8h50.1c1.5,0,2.8-1.2,2.8-2.8
					S304.1,412.5,302.6,412.5z"/>
			</g>
		</g>
		<g>
			<g>
				<path fill="#6D6E70" d="M271.5,430.7h-19c-1.5,0-2.8,1.2-2.8,2.8s1.2,2.8,2.8,2.8h19c1.5,0,2.8-1.2,2.8-2.8
					S273,430.7,271.5,430.7z"/>
			</g>
		</g>
		<g>
			<g>
				<path fill="#6D6E70" d="M301.8,447.8c-1.5,0-2.8,1.2-2.8,2.8s1.2,2.8,2.8,2.8c1.5,0,2.8-1.2,2.8-2.8S303.3,447.8,301.8,447.8z"
					/>
			</g>
		</g>
		<g>
			<g>
				<path fill="#6D6E70" d="M327.4,447.8c-1.5,0-2.8,1.2-2.8,2.8s1.2,2.8,2.8,2.8c1.5,0,2.8-1.2,2.8-2.8S328.9,447.8,327.4,447.8z"
					/>
			</g>
		</g>
	</g>
	<g>
		<g>
			<g>
				<path fill="#2C3033" d="M1597.8,69.7c0,1.2,1,2.1,2.1,2.1h84.9c3.1,0,6.4,3.3,6.4,6.4v72.1c0,3.1-3.3,6.4-6.4,6.4
					c-1.2,0-2.1,1-2.1,2.1c0,1.2,1,2.1,2.1,2.1c5.5,0,10.6-5.2,10.6-10.6V78.2c0-5.5-5.2-10.6-10.6-10.6h-84.9
					C1598.7,67.6,1597.8,68.5,1597.8,69.7z"/>
				<path fill="#2C3033" d="M1678.4,158.8V78.2c0-1.2-1-2.1-2.1-2.1s-2.1,1-2.1,2.1v78.5h-95.5c-3.1,0-6.4-3.3-6.4-6.4V78.2
					c0-3.1,3.3-6.4,6.4-6.4h10.6v78.5c0,1.2,1,2.1,2.1,2.1s2.1-1,2.1-2.1V69.7c0-1.2-1-2.1-2.1-2.1h-12.7c-5.5,0-10.6,5.2-10.6,10.6
					v72.1c0,5.5,5.2,10.6,10.6,10.6h97.6C1677.5,160.9,1678.4,160,1678.4,158.8z"/>
				<path fill="#2C3033" d="M1686.9,114.3c0-1.2-1-2.1-2.1-2.1s-2.1,1-2.1,2.1c0,1.2,1,2.1,2.1,2.1S1686.9,115.5,1686.9,114.3
					L1686.9,114.3z"/>
				<path fill="#2C3033" d="M1665.1,127.6c-0.8-0.8-2.2-0.8-3,0l-17,17c-0.4,0.4-0.6,1-0.6,1.5c0,0.5,0.2,1.1,0.6,1.5
					c0.8,0.8,2.2,0.8,3,0l17-17C1665.9,129.8,1665.9,128.4,1665.1,127.6z"/>
				<path fill="#2C3033" d="M1580.8,110c-2.3,0-4.2,1.9-4.2,4.2s1.9,4.2,4.2,4.2c2.3,0,4.2-1.9,4.2-4.2
					C1585.1,111.9,1583.2,110,1580.8,110z"/>
				<path fill="#2C3033" d="M1657.2,146.1c0,0.5,0.2,1.1,0.6,1.5c0.8,0.8,2.2,0.8,3,0l4.2-4.2c0.8-0.8,0.8-2.2,0-3
					c-0.8-0.8-2.2-0.8-3,0l-4.2,4.2C1657.4,145,1657.2,145.5,1657.2,146.1z"/>
			</g>
		</g>
	</g>
	<g>
		<g>
			<g>
				<path fill="#2C3033" d="M1644.7,278.2v25.5h9.3v-25.5H1644.7z M1651.6,301.4h-4.6v-20.9h4.6V301.4z"/>
				<path fill="#2C3033" d="M1633.1,289.9c-0.7-0.7-1.5-1.3-2.3-1.9v-0.6h-0.9c-4.5-3-9.9-4.6-15.4-4.6h-1.2v29h29v-1.2
					c0-2.4-0.3-4.7-0.9-7h0.9v-20.9h-9.3V289.9z M1615.7,309.5v-24.3c3.3,0.2,6.5,0.9,9.4,2.3h-3.6v16.2h9.3V291
					c0.8,0.7,1.6,1.4,2.3,2.2v10.5h6c0.5,1.9,0.9,3.8,1,5.8H1615.7z M1628.4,289.8v11.6h-4.6v-11.6H1628.4z M1635.4,285.2h4.6v16.2
					h-4.6V285.2z"/>
				
					<rect x="1589.8" y="311" transform="matrix(-0.7071 0.7071 -0.7071 -0.7071 2946.6228 -596.2444)" fill="#2C3033" width="13.9" height="2.3"/>
				<path fill="#2C3033" d="M1595.9,307.2c0-1.9-1.6-3.5-3.5-3.5c-1.9,0-3.5,1.6-3.5,3.5s1.6,3.5,3.5,3.5
					C1594.4,310.7,1595.9,309.1,1595.9,307.2z M1591.3,307.2c0-0.6,0.5-1.2,1.2-1.2c0.6,0,1.2,0.5,1.2,1.2s-0.5,1.2-1.2,1.2
					C1591.8,308.4,1591.3,307.9,1591.3,307.2z"/>
				<path fill="#2C3033" d="M1601.7,313c-1.9,0-3.5,1.6-3.5,3.5c0,1.9,1.6,3.5,3.5,3.5c1.9,0,3.5-1.6,3.5-3.5
					C1605.2,314.6,1603.6,313,1601.7,313z M1601.7,317.7c-0.6,0-1.2-0.5-1.2-1.2c0-0.6,0.5-1.2,1.2-1.2s1.2,0.5,1.2,1.2
					C1602.9,317.1,1602.4,317.7,1601.7,317.7z"/>
				<path fill="#2C3033" d="M1632.9,330.9c3.1-4.6,4.8-10,4.8-15.6v-1.2H1611v-26.7h-1.2c-1.1,0-2.3,0.1-3.5,0.2v-16.5H1582v16.2
					h14.6l2.3,2.3c-10.2,4.4-16.9,14.4-16.9,25.6c0,15.4,12.5,27.8,27.8,27.8c6.7,0,13.1-2.4,18.2-6.8l3.6,3.6
					c0.7,0.7,1.6,1.1,2.6,1.1s1.9-0.4,2.6-1.1c1.4-1.4,1.4-3.7,0-5.1L1632.9,330.9z M1597.6,285.2h-13.2v-11.6h19.7v18.1
					L1597.6,285.2z M1609.8,340.9c-14.1,0-25.5-11.4-25.5-25.5c0-10.5,6.5-20,16.3-23.8l5.7,5.7v-7.2c0.8-0.1,1.6-0.2,2.3-0.2v26.7
					h26.7c-0.2,4.6-1.6,8.9-4.1,12.8l-1.9-1.9c0.1-0.5,0.2-1.1,0.2-1.6c0-3.8-3.1-7-7-7s-7,3.1-7,7s3.1,7,7,7c0.6,0,1.1-0.1,1.6-0.2
					l2.2,2.2C1621.8,338.7,1616,340.9,1609.8,340.9z M1627.3,325.8c0,2.6-2.1,4.6-4.6,4.6s-4.6-2.1-4.6-4.6s2.1-4.6,4.6-4.6
					S1627.3,323.2,1627.3,325.8z M1635.1,338.3c-0.5,0.5-1.3,0.5-1.8,0l-6.8-6.8c0.7-0.5,1.3-1.1,1.8-1.8l6.8,6.8
					C1635.6,337,1635.6,337.8,1635.1,338.3z"/>
				<rect x="1586.6" y="275.9" fill="#2C3033" width="15.1" height="2.3"/>
				<rect x="1586.6" y="280.5" fill="#2C3033" width="15.1" height="2.3"/>
				<rect x="1621.5" y="324.6" fill="#2C3033" width="2.3" height="2.3"/>
				<rect x="1611" y="324.6" fill="#2C3033" width="2.3" height="2.3"/>
				<rect x="1606.4" y="324.6" fill="#2C3033" width="2.3" height="2.3"/>
				<rect x="1601.7" y="324.6" fill="#2C3033" width="2.3" height="2.3"/>
			</g>
		</g>
	</g>
	<g>
		<g>
			<g>
				<path fill="#0AA1DA" d="M554.6,313.4l24.1-31.3c0.7-0.9,0.5-2.2-0.4-2.9c-0.9-0.7-2.2-0.5-2.9,0.4l-25.1,32.6
					c-0.6,0.7-0.6,1.8,0,2.5l24.8,33.1c0.4,0.5,1,0.8,1.7,0.8c0.4,0,0.9-0.1,1.2-0.4c0.9-0.7,1.1-2,0.4-2.9L554.6,313.4z"/>
			</g>
		</g>
		<g>
			<g>
				<path fill="#0AA1DA" d="M648.8,312.2L624,279.1c-0.7-0.9-2-1.1-2.9-0.4c-0.9,0.7-1.1,2-0.4,2.9l23.9,31.9l-23.9,31.9
					c-0.7,0.9-0.5,2.2,0.4,2.9c0.4,0.3,0.8,0.4,1.2,0.4c0.6,0,1.2-0.3,1.7-0.8l24.8-33.1C649.4,313.9,649.4,312.9,648.8,312.2z"/>
			</g>
		</g>
		<g>
			<g>
				<path fill="#0AA1DA" d="M610.5,265.9c-1.1-0.3-2.2,0.3-2.6,1.4l-24.8,86.9c-0.3,1.1,0.3,2.2,1.4,2.6c0.2,0.1,0.4,0.1,0.6,0.1
					c0.9,0,1.7-0.6,2-1.5l24.8-86.9C612.2,267.4,611.6,266.2,610.5,265.9z"/>
			</g>
		</g>
	</g>
	<g>
		<g>
			<g>
				<path fill="#6D6E70" d="M316.4,257.4h-36.7c-0.8,0-1.5,0.7-1.5,1.5v4.7h-4.7c-0.8,0-1.5,0.7-1.5,1.5v4.7h-4.7
					c-0.8,0-1.5,0.7-1.5,1.5v4.6h-4.6c-0.8,0-1.5,0.7-1.5,1.5v51.7c0,0.8,0.7,1.5,1.5,1.5h36.7c0.8,0,1.5-0.7,1.5-1.5v-4.6h4.6
					c0.8,0,1.5-0.7,1.5-1.5v-4.7h4.7c0.8,0,1.5-0.7,1.5-1.5V312h4.7c0.8,0,1.5-0.7,1.5-1.5v-51.7C317.9,258,317.2,257.4,316.4,257.4
					z M296.7,327.4h-33.8v-48.8h33.8V327.4z M302.7,321.3h-3.1v-44.2c0-0.8-0.7-1.5-1.5-1.5H269v-3.1h33.8V321.3z M308.8,315.2
					L308.8,315.2h-3.2v-44.2c0-0.8-0.7-1.5-1.5-1.5h-29.1v-3.2h33.8V315.2z M315,309.1h-3.2v-44.2c0-0.8-0.7-1.5-1.5-1.5h-29.1v-3.2
					H315V309.1L315,309.1z"/>
			</g>
		</g>
		<g>
			<g>
				<path fill="#6D6E70" d="M292.1,313.7h-24.6c-0.8,0-1.5,0.7-1.5,1.5s0.7,1.5,1.5,1.5h24.6c0.8,0,1.5-0.7,1.5-1.5
					C293.6,314.4,292.9,313.7,292.1,313.7z"/>
			</g>
		</g>
		<g>
			<g>
				<path fill="#6D6E70" d="M292.1,319.4h-24.6c-0.8,0-1.5,0.7-1.5,1.5c0,0.8,0.7,1.5,1.5,1.5h24.6c0.8,0,1.5-0.7,1.5-1.5
					C293.6,320.1,292.9,319.4,292.1,319.4z"/>
			</g>
		</g>
		<g>
			<g>
				<path fill="#6D6E70" d="M292.1,283.6h-24.6c-0.8,0-1.5,0.7-1.5,1.5s0.7,1.5,1.5,1.5h24.6c0.8,0,1.5-0.7,1.5-1.5
					C293.6,284.3,292.9,283.6,292.1,283.6z"/>
			</g>
		</g>
		<g>
			<g>
				<path fill="#6D6E70" d="M292.1,289.3h-24.6c-0.8,0-1.5,0.7-1.5,1.5c0,0.8,0.7,1.5,1.5,1.5h24.6c0.8,0,1.5-0.7,1.5-1.5
					C293.6,289.9,292.9,289.3,292.1,289.3z"/>
			</g>
		</g>
		<g>
			<g>
				<path fill="#6D6E70" d="M292.1,294.9h-0.7c-0.8,0-1.5,0.7-1.5,1.5s0.7,1.5,1.5,1.5h0.7c0.8,0,1.5-0.7,1.5-1.5
					S292.9,294.9,292.1,294.9z"/>
			</g>
		</g>
		<g>
			<g>
				<path fill="#6D6E70" d="M286.1,294.9h-18.6c-0.8,0-1.5,0.7-1.5,1.5s0.7,1.5,1.5,1.5h18.6c0.8,0,1.5-0.7,1.5-1.5
					C287.6,295.6,286.9,294.9,286.1,294.9z"/>
			</g>
		</g>
	</g>
	<g>
		<g>
			<g>
				<path fill="#E8B81A" d="M344.9,183.1c3.7-5.1,5.9-11.4,5.9-18.2c0-17.3-14-31.3-31.3-31.3c-17.3,0-31.3,14-31.3,31.3
					c0,17.3,14,31.3,31.3,31.3c6.9,0,13.3-2.2,18.5-6l22.3,22.3l7-7L344.9,183.1z M330.4,190.6c-3.4,1.5-7.1,2.2-10.9,2.2
					c-3.8,0-7.4-0.7-10.9-2.2c-3.3-1.4-6.3-3.4-8.9-6c-2.6-2.6-4.6-5.6-6-8.9c-1.5-3.4-2.2-7.1-2.2-10.9c0-3.8,0.7-7.4,2.2-10.9
					c1.4-3.3,3.4-6.3,6-8.9c2.6-2.6,5.6-4.6,8.9-6c3.4-1.5,7.1-2.2,10.9-2.2c3.8,0,7.4,0.7,10.9,2.2c3.3,1.4,6.3,3.4,8.9,6
					c2.6,2.6,4.6,5.6,6,8.9c1.5,3.4,2.2,7.1,2.2,10.9c0,3.8-0.7,7.4-2.2,10.9c-1.4,3.3-3.4,6.3-6,8.9
					C336.7,187.2,333.7,189.2,330.4,190.6z M340.5,188c0.8-0.7,1.6-1.5,2.3-2.3l19.8,19.8l-2.3,2.3L340.5,188z"/>
			</g>
		</g>
		<g>
			<g>
				<g>
					<path fill="#E8B81A" d="M332.7,181.5C332.7,181.5,332.7,181.5,332.7,181.5L332.7,181.5L332.7,181.5z"/>
					<path fill="#E8B81A" d="M304.6,156.3C304.6,156.3,304.6,156.3,304.6,156.3L304.6,156.3L304.6,156.3z"/>
					<path fill="#E8B81A" d="M337.6,166.5h-5c0-0.5,0-1.1,0-1.6c0-0.5,0-1,0-1.5c4.3-2,4.9-6.3,5-6.5l0,0c0-0.1,0-0.2,0-0.2
						c0-0.9-0.7-1.6-1.6-1.6c-0.8,0-1.5,0.6-1.6,1.4c0,0-0.3,2.1-2.2,3.4c-0.9-4.2-3.1-7-6.2-8.5l3.2-5.4l0,0
						c0.1-0.2,0.2-0.5,0.2-0.8c0-0.9-0.7-1.6-1.6-1.6c-0.6,0-1.1,0.3-1.4,0.8l0,0l-3.6,6.1c-1-0.2-2.1-0.3-3.2-0.3
						c-1.1,0-2.2,0.1-3.2,0.3l-3.6-6.1l0,0c-0.3-0.5-0.8-0.8-1.4-0.8c-0.9,0-1.6,0.7-1.6,1.6c0,0.3,0.1,0.6,0.2,0.8l0,0l3.2,5.4
						c-3.2,1.5-5.3,4.3-6.2,8.5c-1.8-1.3-2.1-3.2-2.2-3.4h0c-0.1-0.8-0.8-1.4-1.6-1.4c-0.9,0-1.6,0.7-1.6,1.6c0,0.1,0,0.2,0,0.2l0,0
						c0,0.2,0.7,4.5,5,6.5c0,0.5,0,1,0,1.5c0,0.6,0,1.1,0,1.6h-5c-0.9,0-1.6,0.7-1.6,1.6c0,0.9,0.7,1.6,1.6,1.6h5.3
						c0.3,1.7,0.7,3.4,1.2,4.8c-4.1,2.1-4.8,6.3-4.8,6.5h0c0,0.1,0,0.2,0,0.2c0,0.9,0.7,1.6,1.6,1.6c0.8,0,1.5-0.6,1.6-1.4h0
						c0,0,0.4-2.7,3-4c2.1,3.3,5.4,5.4,10.2,5.4c4.7,0,8-2.1,10.2-5.4c2.5,1.3,3,3.8,3,4h0c0.1,0.8,0.8,1.4,1.6,1.4
						c0.9,0,1.6-0.7,1.6-1.6c0-0.1,0-0.2,0-0.2h0c0-0.2-0.7-4.4-4.8-6.5c0.6-1.5,1-3.1,1.2-4.8h5.3c0.9,0,1.6-0.7,1.6-1.6
						C339.2,167.2,338.5,166.5,337.6,166.5z M317.8,179.5c-2.5-0.4-4.3-1.6-5.7-3.7c-1.7-2.6-2.5-6.4-2.5-11c0-1.2,0.1-2.3,0.2-3.3
						h8V179.5L317.8,179.5z M310.7,158.2c0.4-0.9,0.9-1.7,1.5-2.3c1.6-1.7,4-2.6,7.3-2.6c3.2,0,5.7,0.9,7.3,2.6
						c0.6,0.6,1.1,1.4,1.5,2.3H310.7z M326.8,175.8c-1.4,2.1-3.2,3.3-5.7,3.7v-18h8c0.2,1,0.2,2.1,0.2,3.3
						C329.3,169.5,328.5,173.3,326.8,175.8z"/>
				</g>
			</g>
		</g>
	</g>
	<g>
		<g>
			<g>
				<path fill="#FEF568" d="M960,217.9c-0.6,0-1.1,0.5-1.1,1.1c0,3.2-1.2,6.2-3.4,8.4c-2.2,2.3-5.2,3.5-8.4,3.5s-6.2-1.2-8.4-3.4
					c-2.3-2.2-3.5-5.2-3.5-8.4s1.2-6.2,3.4-8.4c2.2-2.3,5.2-3.5,8.4-3.5c0.6,0,1.1-0.5,1.1-1.1c0-0.6-0.5-1.1-1.1-1.1
					c-3.8,0-7.3,1.5-9.9,4.2s-4.1,6.2-4.1,10c0,3.8,1.5,7.3,4.2,9.9c2.7,2.6,6.2,4.1,10,4c3.8,0,7.3-1.5,9.9-4.2
					c2.6-2.7,4.1-6.2,4-10C961,218.3,960.6,217.9,960,217.9z"/>
			</g>
		</g>
		<g>
			<g>
				<path fill="#FEF568" d="M978.2,225.1l-4.1-1.7c-0.6-0.2-1.2,0-1.4,0.6c-0.2,0.6,0,1.2,0.6,1.4l4.1,1.7c0.9,0.4,1.4,1.4,1,2.4
					l-1.9,4.5c-0.4,0.9-1.4,1.4-2.4,1l-4.1-1.7c-0.5-0.2-1,0-1.3,0.4c-1.9,2.9-4.3,5.3-7.2,7.2c-0.4,0.3-0.6,0.8-0.4,1.3l1.7,4.1
					c0.2,0.4,0.2,0.9,0,1.4c-0.2,0.4-0.5,0.8-1,1l-4.5,1.9c-0.4,0.2-0.9,0.2-1.4,0s-0.8-0.5-1-1l-1.7-4.1c-0.2-0.5-0.7-0.7-1.2-0.6
					c-3.4,0.7-6.8,0.7-10.2,0c-0.5-0.1-1,0.2-1.2,0.6l-1.7,4.1c-0.4,0.9-1.4,1.4-2.4,1l-4.5-1.9c-0.9-0.4-1.4-1.4-1-2.4l1.7-4.1
					c0.2-0.5,0-1-0.4-1.3c-2.9-1.9-5.3-4.3-7.2-7.2c-0.3-0.4-0.8-0.6-1.3-0.4l-4.1,1.7c-0.4,0.2-0.9,0.2-1.4,0s-0.8-0.5-1-1
					l-1.9-4.5c-0.2-0.4-0.2-0.9,0-1.4s0.5-0.8,1-1l4.1-1.7c0.5-0.2,0.7-0.7,0.6-1.2c-0.7-3.4-0.7-6.8,0-10.2c0.1-0.5-0.2-1-0.6-1.2
					l-4.1-1.7c-0.9-0.4-1.4-1.4-1-2.4l1.9-4.5c0.4-0.9,1.4-1.4,2.4-1l4.1,1.7c0.5,0.2,1,0,1.3-0.4c1.9-2.9,4.3-5.3,7.2-7.2
					c0.4-0.3,0.6-0.8,0.4-1.3l-1.7-4.1c-0.2-0.4-0.2-0.9,0-1.4s0.5-0.8,1-1l4.5-1.9c0.4-0.2,0.9-0.2,1.4,0c0.4,0.2,0.8,0.5,1,1
					l1.7,4.1c0.2,0.6,0.9,0.8,1.4,0.6c0.6-0.2,0.8-0.9,0.6-1.4l-1.7-4.1c-0.4-1-1.2-1.7-2.1-2.1c-0.5-0.2-1-0.3-1.5-0.3
					s-1,0.1-1.5,0.3l-4.5,1.9c-1,0.4-1.7,1.2-2.1,2.1s-0.4,2.1,0,3l1.4,3.3c-2.5,1.8-4.7,4-6.6,6.6l-3.3-1.4c-1-0.4-2.1-0.4-3,0
					c-1,0.4-1.7,1.2-2.1,2.1l-1.9,4.5c-0.8,2,0.1,4.3,2.1,5.2l3.3,1.4c-0.5,3.1-0.5,6.2,0,9.3l-3.3,1.4c-0.9,0.4-1.7,1.1-2.1,2.1
					c-0.4,1-0.4,2.1,0,3l1.9,4.5c0.4,1,1.2,1.7,2.1,2.1c1,0.4,2.1,0.4,3,0l3.3-1.4c1.8,2.5,4,4.7,6.6,6.6l-1.4,3.3
					c-0.8,2,0.1,4.3,2.1,5.2l4.5,1.9c2,0.8,4.3-0.1,5.2-2.1l1.4-3.3c3.1,0.5,6.2,0.5,9.3,0l1.4,3.3c0.4,1,1.2,1.7,2.1,2.1
					c1,0.4,2.1,0.4,3,0l4.5-1.9c1-0.4,1.7-1.2,2.1-2.1s0.4-2.1,0-3l-1.4-3.3c2.5-1.8,4.7-4,6.6-6.6l3.3,1.4c1,0.4,2.1,0.4,3,0
					c1-0.4,1.7-1.2,2.1-2.1l1.9-4.5C981.2,228.2,980.2,225.9,978.2,225.1z"/>
			</g>
		</g>
		<g>
			<g>
				<path fill="#FEF568" d="M975.9,180.9c-5.5,0-10,4.5-10,10c0,5.5,4.5,10,10,10c5.5,0,10-4.5,10-10
					C985.9,185.4,981.4,180.9,975.9,180.9z M975.9,198.9c-4.4,0-7.9-3.5-7.9-7.9c0-4.4,3.5-7.9,7.9-7.9c4.4,0,7.9,3.5,7.9,7.9
					C983.8,195.3,980.2,198.9,975.9,198.9z"/>
			</g>
		</g>
		<g>
			<g>
				<path fill="#FEF568" d="M998.5,186h-2.4c-0.5-2.1-1.3-4.1-2.4-5.9l1.7-1.7c0.6-0.6,0.9-1.4,0.9-2.3c0-0.8-0.3-1.6-0.9-2.3
					l-2.5-2.5c-0.6-0.6-1.4-0.9-2.3-0.9c-0.8,0-1.6,0.3-2.3,0.9l-1.7,1.7c-1.8-1.1-3.8-1.9-5.9-2.4v-2.4c0-1.8-1.4-3.2-3.2-3.2h-3.5
					c-1.8,0-3.2,1.4-3.2,3.2v2.4c-2.1,0.5-4.1,1.3-5.9,2.4l-1.7-1.7c-0.6-0.6-1.4-0.9-2.3-0.9c-0.9,0-1.6,0.3-2.3,0.9l-2.5,2.5
					c-0.6,0.6-0.9,1.4-0.9,2.3c0,0.8,0.3,1.6,0.9,2.3l1.7,1.7c-1.1,1.8-1.9,3.8-2.4,5.9h-2.4c-1.8,0-3.2,1.4-3.2,3.2v3.5
					c0,1.8,1.4,3.2,3.2,3.2h2.4c0.5,2.1,1.3,4.1,2.4,5.9l-1.7,1.7c-0.6,0.6-0.9,1.4-0.9,2.3c0,0.8,0.3,1.6,0.9,2.3l2.5,2.5
					c0.6,0.6,1.4,0.9,2.3,0.9s1.6-0.3,2.3-0.9l1.7-1.7c1.8,1.1,3.8,1.9,5.9,2.4v2.4c0,1.8,1.4,3.2,3.2,3.2h3.5
					c1.8,0,3.2-1.4,3.2-3.2v-2.4c2.1-0.5,4.1-1.3,5.9-2.4l1.7,1.7c0.6,0.6,1.4,0.9,2.3,0.9c0.8,0,1.6-0.3,2.3-0.9l2.5-2.5
					c0.6-0.6,0.9-1.4,0.9-2.3c0-0.8-0.3-1.6-0.9-2.3l-1.7-1.7c1.1-1.8,1.9-3.8,2.4-5.9h2.4c1.8,0,3.2-1.4,3.2-3.2v-3.5
					C1001.7,187.4,1000.3,186,998.5,186z M998.5,193.8h-3.3c-0.5,0-0.9,0.4-1.1,0.9c-0.5,2.4-1.4,4.7-2.8,6.7
					c-0.3,0.4-0.2,1,0.1,1.4l2.3,2.3c0.2,0.2,0.3,0.4,0.3,0.7c0,0.3-0.1,0.5-0.3,0.7l-2.5,2.5c-0.2,0.2-0.4,0.3-0.7,0.3
					c-0.3,0-0.5-0.1-0.7-0.3l-2.3-2.3c-0.4-0.4-0.9-0.4-1.4-0.1c-2.1,1.4-4.3,2.3-6.7,2.8c-0.5,0.1-0.9,0.5-0.9,1.1v3.3
					c0,0.6-0.5,1-1,1h-3.5c-0.6,0-1-0.5-1-1v-3.3c0-0.5-0.4-0.9-0.9-1.1c-2.4-0.5-4.7-1.4-6.7-2.8c-0.4-0.3-1-0.2-1.4,0.1l-2.3,2.3
					c-0.2,0.2-0.4,0.3-0.7,0.3c-0.3,0-0.5-0.1-0.7-0.3l-2.5-2.5c-0.2-0.2-0.3-0.4-0.3-0.7c0-0.3,0.1-0.5,0.3-0.7l2.3-2.3
					c0.4-0.4,0.4-0.9,0.1-1.4c-1.4-2.1-2.3-4.3-2.8-6.7c-0.1-0.5-0.5-0.9-1.1-0.9h-3.3c-0.6,0-1-0.5-1-1v-3.5c0-0.6,0.5-1,1-1h3.3
					c0.5,0,0.9-0.4,1.1-0.9c0.5-2.4,1.4-4.7,2.8-6.7c0.3-0.4,0.2-1-0.1-1.4l-2.3-2.3c-0.2-0.2-0.3-0.4-0.3-0.7
					c0-0.3,0.1-0.5,0.3-0.7l2.5-2.5c0.2-0.2,0.4-0.3,0.7-0.3c0.3,0,0.5,0.1,0.7,0.3l2.3,2.3c0.4,0.4,0.9,0.4,1.4,0.1
					c2.1-1.4,4.3-2.3,6.7-2.8c0.5-0.1,0.9-0.5,0.9-1.1v-3.2c0-0.6,0.5-1,1-1h3.5c0.6,0,1,0.5,1,1v3.3c0,0.5,0.4,0.9,0.9,1.1
					c2.4,0.5,4.7,1.4,6.7,2.8c0.2,0.1,0.4,0.2,0.6,0.2c0.3,0,0.6-0.1,0.8-0.3l2.3-2.3c0.2-0.2,0.4-0.3,0.7-0.3
					c0.3,0,0.5,0.1,0.7,0.3l2.5,2.5c0.2,0.2,0.3,0.4,0.3,0.7c0,0.3-0.1,0.5-0.3,0.7l-2.3,2.3c-0.4,0.4-0.4,0.9-0.1,1.4
					c1.4,2.1,2.3,4.3,2.8,6.7c0.1,0.5,0.5,0.9,1.1,0.9h3.3c0.6,0,1,0.5,1,1v3.5h0C999.6,193.3,999.1,193.8,998.5,193.8z"/>
			</g>
		</g>
	</g>
	<g>
		<g>
			<path fill="#6D6E70" d="M841.9,411.6l-2.7-2.4c-0.5-0.4-0.8-1.1-0.8-1.7s0.3-1.3,0.8-1.7l2.7-2.4c0.6-0.6,0.9-1.4,0.7-2.3
				c-0.2-0.8-0.8-1.5-1.6-1.7l-3.5-1c-0.6-0.2-1.2-0.6-1.4-1.2c-0.3-0.6-0.3-1.3-0.1-1.9l1.3-3.4c0.3-0.8,0.2-1.7-0.3-2.4
				c-0.5-0.7-1.4-1-2.2-0.9l-3.6,0.6c-0.7,0.1-1.3-0.1-1.8-0.5s-0.8-1-0.9-1.7l-0.3-3.6c-0.1-0.8-0.6-1.6-1.3-2
				c-0.8-0.4-1.7-0.3-2.4,0.2l-3,2c-0.5,0.4-1.2,0.5-1.9,0.4c-0.6-0.1-1.2-0.6-1.5-1.1l-1.8-3.1c-0.4-0.7-1.2-1.2-2.1-1.2
				s-1.6,0.5-2.1,1.2l-1.8,3.1c-0.3,0.6-0.9,1-1.5,1.1c-0.6,0.1-1.3,0-1.9-0.4l-3-2c-0.7-0.5-1.6-0.6-2.4-0.2
				c-0.8,0.4-1.3,1.1-1.3,2l-0.3,3.6c0,0.7-0.4,1.3-0.9,1.7s-1.2,0.6-1.8,0.5l-3.6-0.6c-0.8-0.1-1.7,0.2-2.2,0.9s-0.7,1.6-0.3,2.4
				l1.3,3.4c0.2,0.6,0.2,1.3-0.1,1.9c-0.3,0.6-0.8,1-1.4,1.2l-3.5,1c-0.8,0.2-1.4,0.9-1.6,1.7c-0.2,0.8,0.1,1.7,0.7,2.3l2.7,2.4
				c0.5,0.4,0.8,1.1,0.8,1.7c0,0.7-0.3,1.3-0.8,1.7l-2.7,2.4c-0.6,0.6-0.9,1.4-0.7,2.3c0.2,0.8,0.8,1.5,1.6,1.7l3.5,1
				c0.6,0.2,1.2,0.6,1.4,1.2c0.3,0.6,0.3,1.3,0.1,1.9l-1.3,3.4c-0.3,0.8-0.2,1.7,0.3,2.4c0.5,0.7,1.4,1,2.2,0.9l3.6-0.6
				c0.7-0.1,1.3,0.1,1.8,0.5s0.8,1,0.9,1.7l0.3,3.6c0.1,0.8,0.6,1.6,1.3,2c0.8,0.4,1.7,0.3,2.4-0.2l3-2c0.5-0.4,1.2-0.5,1.9-0.4
				c0.6,0.1,1.2,0.6,1.5,1.1l1.8,3.1c0.4,0.7,1.2,1.2,2.1,1.2c0.9,0,1.6-0.5,2.1-1.2l1.8-3.1c0.3-0.6,0.9-1,1.5-1.1
				c0.6-0.1,1.3,0,1.9,0.4l3,2c0.7,0.5,1.6,0.6,2.4,0.2c0.8-0.4,1.3-1.1,1.3-2l0.3-3.6c0-0.7,0.4-1.3,0.9-1.7
				c0.5-0.4,1.2-0.6,1.8-0.5l3.6,0.6c0.8,0.1,1.7-0.2,2.2-0.9s0.7-1.6,0.3-2.4l-1.3-3.4c-0.2-0.6-0.2-1.3,0.1-1.9
				c0.3-0.6,0.8-1,1.4-1.2l3.5-1c0.8-0.2,1.4-0.9,1.6-1.7C842.8,413.1,842.6,412.2,841.9,411.6z"/>
		</g>
	</g>
</g>
<g id="Capa_1_5_" display="none">
</g>
<g>
	<g>
		<g>
			<path fill="#FFFFFF" d="M1551.7,160.6h3.6c0.6,0,1.1-0.5,1.1-1.1c0-0.6-0.5-1.1-1.1-1.1h-3.6c-0.6,0-1.1,0.5-1.1,1.1
				C1550.6,160.1,1551.1,160.6,1551.7,160.6z"/>
			<path fill="#FFFFFF" d="M1562.3,174.6l-4.8-2.8c-1-0.6-2.2,0.1-2.2,1.3v5.6c0,1.1,1.2,1.8,2.2,1.3l4.8-2.8
				C1563.3,176.5,1563.3,175.1,1562.3,174.6z"/>
			<path fill="#FFFFFF" d="M1553.1,174.7h-11c-3.9,0-7.1-3.1-7.2-7c0-3.9,3.1-7.1,7.1-7.1h4.8c0.6,0,1.1-0.5,1.1-1
				c0-0.6-0.5-1.1-1.1-1.1h-4.7c-5.1,0-9.3,4.1-9.4,9.2c0,5.1,4.1,9.3,9.3,9.3h11.1c0.4,0,0.7-0.3,0.7-0.7v-0.7
				C1553.8,175.1,1553.5,174.7,1553.1,174.7z"/>
		</g>
	</g>
</g>
</svg>
