<?xml version="1.0" encoding="utf-8"?>
<!-- Generator: Adobe Illustrator 19.0.1, SVG Export Plug-In . SVG Version: 6.00 Build 0)  -->
<svg version="1.1" xmlns="http://www.w3.org/2000/svg" xmlns:xlink="http://www.w3.org/1999/xlink" x="0px" y="0px"
	 viewBox="0 0 457.8 245.6" style="enable-background:new 0 0 457.8 245.6;" xml:space="preserve">
<g id="_x2E__2_">
	<g id="js">
		<g id="js_1_">
			<path id="j" style="fill:#0C97CE;" d="M315.2,134.3v88.4c0,15.2-6.9,22.9-20.7,22.9c-3,0-5.7-0.4-8.3-1.3v-10.8
				c1.6,0.4,3.6,0.6,6.2,0.6c3,0,5.3-0.8,6.9-2.5c1.6-1.6,2.4-4.5,2.4-8.5v-88.8H315.2z"/>
			<path id="s" style="fill:#0C97CE;" d="M383.2,192.6c0-3.7-1.4-6.5-4.1-8.5c-2.8-2-7.6-3.8-14.4-5.2s-12.3-3.2-16.3-5.3
				c-4-2.1-7-4.5-8.9-7.3c-1.9-2.8-2.9-6.2-2.9-10.1c0-6.5,2.7-12,8.2-16.5c5.5-4.5,12.5-6.7,21.1-6.7c9,0,16.3,2.3,21.9,7
				c5.6,4.6,8.4,10.6,8.4,17.8h-13.6c0-3.7-1.6-6.9-4.7-9.6c-3.1-2.7-7.1-4-11.9-4c-4.9,0-8.8,1.1-11.6,3.2c-2.8,2.1-4.2,5-4.2,8.4
				c0,3.3,1.3,5.7,3.9,7.4c2.6,1.7,7.3,3.2,14,4.8c6.8,1.5,12.2,3.3,16.4,5.4c4.2,2.1,7.3,4.6,9.3,7.6c2,3,3,6.6,3,10.8
				c0,7.1-2.8,12.8-8.5,17c-5.7,4.3-13,6.4-22,6.4c-6.3,0-12-1.1-16.8-3.4c-4.9-2.2-8.7-5.4-11.5-9.4c-2.8-4-4.1-8.4-4.1-13.1h13.5
				c0.2,4.5,2.1,8.1,5.5,10.8c3.4,2.7,7.9,4,13.4,4c5.1,0,9.2-1,12.3-3.1C381.7,198.8,383.2,196,383.2,192.6z"/>
		</g>
	</g>
	<g id="_x2E__1_">
		<g id="_x2E__3_">
			<path id="_x2E__7_" style="fill:#DB3340;" d="M299.5,113.4c0-2.3,0.7-4.3,2.1-5.9c1.4-1.6,3.5-2.3,6.3-2.3s4.9,0.8,6.3,2.3
				c1.4,1.6,2.2,3.5,2.2,5.9c0,2.2-0.7,4.1-2.2,5.6c-1.4,1.5-3.6,2.3-6.3,2.3s-4.9-0.8-6.3-2.3C300.2,117.5,299.5,115.6,299.5,113.4
				z"/>
		</g>
	</g>
</g>
<g id="_x2E__4_">
	<g id="tutorial">
		<g id="tutorial_1_">
			<path id="t_1_" style="fill:#2C3033;" d="M28,14.1v19.2h14.8v10.5H28v49.2c0,3.2,0.7,5.6,2,7.1s3.6,2.4,6.7,2.4
				c1.6,0,3.7-0.3,6.4-0.9v10.9c-3.6,1-7,1.5-10.4,1.5c-6.1,0-10.6-1.8-13.7-5.5s-4.6-8.9-4.6-15.6V43.7H0V33.3h14.4V14.1H28z"/>
			<path id="u" style="fill:#2C3033;" d="M107.5,104.7c-5.3,6.2-13,9.3-23.2,9.3c-8.4,0-14.9-2.5-19.3-7.4
				c-4.4-4.9-6.7-12.2-6.7-21.8V33.3h13.5v51.2c0,12,4.9,18,14.6,18c10.4,0,17.2-3.9,20.7-11.6V33.3h13.5v79.2h-12.9L107.5,104.7z"
				/>
			<path id="t" style="fill:#2C3033;" d="M159.7,14.1v19.2h14.8v10.5h-14.8v49.2c0,3.2,0.7,5.6,2,7.1s3.6,2.4,6.7,2.4
				c1.6,0,3.7-0.3,6.4-0.9v10.9c-3.6,1-7,1.5-10.4,1.5c-6.1,0-10.6-1.8-13.7-5.5s-4.6-8.9-4.6-15.6V43.7h-14.4V33.3h14.4V14.1H159.7
				z"/>
			<path style="fill:#2C3033;" d="M185.2,72.1c0-7.8,1.5-14.7,4.6-20.9c3.1-6.2,7.3-11,12.7-14.4c5.4-3.4,11.7-5.1,18.6-5.1
				c10.8,0,19.5,3.7,26.2,11.2s10,17.4,10,29.8v1c0,7.7-1.5,14.6-4.4,20.8c-3,6.1-7.2,10.9-12.7,14.3c-5.5,3.4-11.8,5.1-18.9,5.1
				c-10.7,0-19.4-3.7-26.1-11.2s-10-17.4-10-29.7V72.1z M198.9,73.8c0,8.8,2,15.8,6.1,21.2c4.1,5.3,9.5,8,16.4,8
				c6.9,0,12.4-2.7,16.4-8.1c4.1-5.4,6.1-13,6.1-22.7c0-8.7-2.1-15.7-6.2-21.1c-4.1-5.4-9.6-8.1-16.4-8.1c-6.7,0-12.1,2.7-16.2,8
				C200.9,56.2,198.9,63.8,198.9,73.8z"/>
			<path id="r" style="fill:#2C3033;" d="M312.7,45.4c-2.1-0.3-4.3-0.5-6.7-0.5c-8.9,0-14.9,3.8-18.1,11.4v56.3h-13.5V33.3h13.2
				l0.2,9.2c4.4-7.1,10.7-10.6,18.9-10.6c2.6,0,4.6,0.3,6,1V45.4z"/>
			<rect id="i" x="326.3" y="33.3" style="fill:#2C3033;" width="13.6" height="79.2"/>
			<path style="fill:#2C3033;" d="M410.4,112.5c-0.8-1.6-1.4-4.3-1.9-8.3c-6.3,6.5-13.8,9.8-22.6,9.8c-7.8,0-14.2-2.2-19.2-6.6
				c-5-4.4-7.5-10-7.5-16.8c0-8.3,3.1-14.7,9.4-19.2c6.3-4.6,15.1-6.8,26.5-6.8h13.2v-6.2c0-4.7-1.4-8.5-4.2-11.3
				c-2.8-2.8-7-4.2-12.5-4.2c-4.8,0-8.9,1.2-12.2,3.7c-3.3,2.4-4.9,5.4-4.9,8.9h-13.6c0-4,1.4-7.8,4.2-11.5
				c2.8-3.7,6.6-6.6,11.4-8.8c4.8-2.1,10.1-3.2,15.9-3.2c9.1,0,16.3,2.3,21.5,6.8c5.2,4.6,7.9,10.9,8.1,18.9V94
				c0,7.3,0.9,13.1,2.8,17.4v1.2H410.4z M388,102.2c4.2,0,8.3-1.1,12.1-3.3s6.6-5.1,8.3-8.6V74h-10.6c-16.6,0-24.9,4.9-24.9,14.6
				c0,4.2,1.4,7.6,4.2,10C379.9,101,383.5,102.2,388,102.2z"/>
			<rect id="l" x="444.3" style="fill:#2C3033;" width="13.5" height="112.5"/>
		</g>
	</g>
	<g id="_x2E_">
		<g id="_x2E__5_">
			<path id="_x2E__6_" style="fill:#E8B81A;" d="M325.1,12.3c0-2.3,0.7-4.3,2.1-5.9c1.4-1.6,3.5-2.3,6.3-2.3s4.9,0.8,6.3,2.3
				c1.4,1.6,2.2,3.5,2.2,5.9c0,2.2-0.7,4.1-2.2,5.6s-3.6,2.3-6.3,2.3s-4.9-0.8-6.3-2.3C325.8,16.4,325.1,14.5,325.1,12.3z"/>
		</g>
	</g>
</g>
</svg>
